<mxfile host="65bd71144e">
    <diagram id="88ZYwzYQ_OBYtV6yMDWp" name="Page-1">
        <mxGraphModel dx="801" dy="546" grid="1" gridSize="10" guides="1" tooltips="1" connect="0" arrows="1" fold="1" page="1" pageScale="1" pageWidth="1169" pageHeight="827" background="#ffffff" math="0" shadow="0">
            <root>
                <object label="" id="0">
                    <mxCell/>
                </object>
                <mxCell id="1" parent="0"/>
                <mxCell id="5" value="AWS Cloud" style="points=[[0,0],[0.25,0],[0.5,0],[0.75,0],[1,0],[1,0.25],[1,0.5],[1,0.75],[1,1],[0.75,1],[0.5,1],[0.25,1],[0,1],[0,0.75],[0,0.5],[0,0.25]];outlineConnect=0;gradientColor=none;html=1;whiteSpace=wrap;fontSize=12;fontStyle=0;container=1;pointerEvents=0;collapsible=0;recursiveResize=0;shape=mxgraph.aws4.group;grIcon=mxgraph.aws4.group_aws_cloud_alt;strokeColor=#232F3E;fillColor=none;verticalAlign=top;align=left;spacingLeft=30;fontColor=#232F3E;dashed=0;" parent="1" vertex="1">
                    <mxGeometry x="30" y="220" width="1110" height="580" as="geometry"/>
                </mxCell>
                <mxCell id="7" value="VPC" style="points=[[0,0],[0.25,0],[0.5,0],[0.75,0],[1,0],[1,0.25],[1,0.5],[1,0.75],[1,1],[0.75,1],[0.5,1],[0.25,1],[0,1],[0,0.75],[0,0.5],[0,0.25]];outlineConnect=0;gradientColor=none;html=1;whiteSpace=wrap;fontSize=12;fontStyle=0;container=1;pointerEvents=0;collapsible=0;recursiveResize=0;shape=mxgraph.aws4.group;grIcon=mxgraph.aws4.group_vpc;strokeColor=#248814;fillColor=none;verticalAlign=top;align=left;spacingLeft=30;fontColor=#AAB7B8;dashed=0;" parent="5" vertex="1">
                    <mxGeometry x="250" y="150" width="770" height="420" as="geometry"/>
                </mxCell>
                <mxCell id="10" value="Public subnet" style="points=[[0,0],[0.25,0],[0.5,0],[0.75,0],[1,0],[1,0.25],[1,0.5],[1,0.75],[1,1],[0.75,1],[0.5,1],[0.25,1],[0,1],[0,0.75],[0,0.5],[0,0.25]];outlineConnect=0;gradientColor=none;html=1;whiteSpace=wrap;fontSize=12;fontStyle=0;container=1;pointerEvents=0;collapsible=0;recursiveResize=0;shape=mxgraph.aws4.group;grIcon=mxgraph.aws4.group_security_group;grStroke=0;strokeColor=#248814;fillColor=#E9F3E6;verticalAlign=top;align=left;spacingLeft=30;fontColor=#248814;dashed=0;" parent="7" vertex="1">
                    <mxGeometry x="40" y="30" width="240" height="380" as="geometry"/>
                </mxCell>
                <mxCell id="26" value="" style="sketch=0;outlineConnect=0;fontColor=#232F3E;gradientColor=none;fillColor=#4D27AA;strokeColor=none;dashed=0;verticalLabelPosition=bottom;verticalAlign=top;align=center;html=1;fontSize=12;fontStyle=0;aspect=fixed;pointerEvents=1;shape=mxgraph.aws4.application_load_balancer;" parent="10" vertex="1">
                    <mxGeometry x="80" y="70" width="80" height="80" as="geometry"/>
                </mxCell>
                <mxCell id="45" value="" style="sketch=0;outlineConnect=0;fontColor=#232F3E;gradientColor=none;fillColor=#4D27AA;strokeColor=none;dashed=0;verticalLabelPosition=bottom;verticalAlign=top;align=center;html=1;fontSize=12;fontStyle=0;aspect=fixed;pointerEvents=1;shape=mxgraph.aws4.nat_gateway;" parent="10" vertex="1">
                    <mxGeometry x="80" y="200" width="80" height="80" as="geometry"/>
                </mxCell>
                <mxCell id="66" value="NAT Gateway" style="text;html=1;align=center;verticalAlign=middle;resizable=0;points=[];autosize=1;strokeColor=none;fillColor=none;" parent="10" vertex="1">
                    <mxGeometry x="75" y="280" width="90" height="20" as="geometry"/>
                </mxCell>
                <mxCell id="70" value="ALB&lt;br&gt;" style="text;html=1;align=center;verticalAlign=middle;resizable=0;points=[];autosize=1;strokeColor=none;fillColor=none;" parent="10" vertex="1">
                    <mxGeometry x="100" y="150" width="40" height="20" as="geometry"/>
                </mxCell>
                <mxCell id="104" value="" style="endArrow=classic;html=1;" parent="10" target="46" edge="1">
                    <mxGeometry width="50" height="50" relative="1" as="geometry">
                        <mxPoint x="80" y="210" as="sourcePoint"/>
                        <mxPoint x="130" y="160" as="targetPoint"/>
                    </mxGeometry>
                </mxCell>
                <mxCell id="9" value="Private subnet" style="points=[[0,0],[0.25,0],[0.5,0],[0.75,0],[1,0],[1,0.25],[1,0.5],[1,0.75],[1,1],[0.75,1],[0.5,1],[0.25,1],[0,1],[0,0.75],[0,0.5],[0,0.25]];outlineConnect=0;gradientColor=none;html=1;whiteSpace=wrap;fontSize=12;fontStyle=0;container=1;pointerEvents=0;collapsible=0;recursiveResize=0;shape=mxgraph.aws4.group;grIcon=mxgraph.aws4.group_security_group;grStroke=0;strokeColor=#147EBA;fillColor=#E6F2F8;verticalAlign=top;align=left;spacingLeft=30;fontColor=#147EBA;dashed=0;" parent="7" vertex="1">
                    <mxGeometry x="290" y="30" width="474.87" height="380" as="geometry"/>
                </mxCell>
                <mxCell id="12" value="" style="sketch=0;outlineConnect=0;fontColor=#232F3E;gradientColor=none;fillColor=#2E27AD;strokeColor=none;dashed=0;verticalLabelPosition=bottom;verticalAlign=top;align=center;html=1;fontSize=12;fontStyle=0;aspect=fixed;pointerEvents=1;shape=mxgraph.aws4.rds_mysql_instance;" parent="9" vertex="1">
                    <mxGeometry x="350" y="170" width="84.87" height="84.87" as="geometry"/>
                </mxCell>
                <mxCell id="59" value="" style="sketch=0;aspect=fixed;html=1;points=[];align=center;image;fontSize=12;image=img/lib/mscae/Docker.svg;" parent="9" vertex="1">
                    <mxGeometry x="230" y="157.2" width="40" height="32.8" as="geometry"/>
                </mxCell>
                <mxCell id="60" value="" style="sketch=0;aspect=fixed;html=1;points=[];align=center;image;fontSize=12;image=img/lib/mscae/Docker.svg;" parent="9" vertex="1">
                    <mxGeometry x="230" y="337.45" width="40" height="32.8" as="geometry"/>
                </mxCell>
                <mxCell id="68" value="ECS Fargate" style="outlineConnect=0;gradientColor=none;html=1;whiteSpace=wrap;fontSize=12;fontStyle=0;strokeColor=#FF9900;fillColor=none;verticalAlign=top;align=center;fontColor=#FF9900;dashed=0;spacingTop=3;" parent="9" vertex="1">
                    <mxGeometry x="9.85" y="210" width="210.15" height="160.25" as="geometry"/>
                </mxCell>
                <mxCell id="69" value="ECS Fargate" style="outlineConnect=0;gradientColor=none;html=1;whiteSpace=wrap;fontSize=12;fontStyle=0;strokeColor=#FF9900;fillColor=none;verticalAlign=top;align=center;fontColor=#FF9900;dashed=0;spacingTop=3;" parent="9" vertex="1">
                    <mxGeometry x="9.85" y="30" width="210.15" height="160" as="geometry"/>
                </mxCell>
                <mxCell id="47" value="" style="shape=image;verticalLabelPosition=bottom;labelBackgroundColor=#ffffff;verticalAlign=top;aspect=fixed;imageAspect=0;image=data:image/svg+xml,PHN2ZyB4bWxucz0iaHR0cDovL3d3dy53My5vcmcvMjAwMC9zdmciIGlkPSJMYXllcl8xIiB2aWV3Qm94PSIwIDAgMzk1LjkgMTM5LjIiIHdpZHRoPSIyNTAwIiBoZWlnaHQ9Ijg3OSI+PHN0eWxlPi5zdDB7ZmlsbDojYzAwfTwvc3R5bGU+PHBhdGggY2xhc3M9InN0MCIgZD0iTTM0NC42IDEyMS4xdjE4LjFoMzIuN2M2LjcgMCAxOC4yLTQuOSAxOC42LTE4LjZ2LTdjMC0xMS43LTkuNi0xOC42LTE4LjYtMTguNkgzNjF2LTguNGgzMi4zVjY4LjRoLTMxYy04IDAtMTguNyA2LjYtMTguNyAxOC45djYuM2MwIDEyLjMgMTAuNiAxOC42IDE4LjcgMTguNiAyMi41LjEtNS40IDAgMTUuNCAwdjguOG0tMjA4LjMtNC4zczE3LjUtMS41IDE3LjUtMjQuMS0yMS4yLTI0LjctMjEuMi0yNC43aC0zOC4ydjcxLjNoMTkuMlYxMjJsMTYuNiAxNy4yaDI4LjRsLTIyLjMtMjIuNXptLTcuNC0xNC42aC0xNS4zVjg1LjhoMTUuNHM0LjMgMS42IDQuMyA4LjEtNC40IDguMi00LjQgOC4yem03Mi4zLTMzLjdoLTE5LjVjLTEzLjkgMC0xOC42IDEyLjYtMTguNiAxOC42djUyLjJoMTkuNXYtMTIuNUgyMzR2MTIuNWgxOC45Vjg3YzAtMTUuMi0xMy44LTE4LjYtMTguNi0xOC42em0tLjMgMzguMWgtMTguNFY4OS4yczAtMy45IDYuMS0zLjloNi43YzUuNCAwIDUuNSAzLjkgNS41IDMuOXYxNy4zaC4xek0yNjEuOCA2OC40aDIwLjN2NzAuOGgtMjAuM3pNMzEwLjYgMTIwLjlWNjguNGgtMjAuMnY3MC44aDQ3LjV2LTE4LjN6Ii8+PHBhdGggY2xhc3M9InN0MCIgZD0iTTcgMTM5LjJoNzlzLTE1LjEtNjguOSAzNC45LTk2LjhjMTAuOS01LjMgNDUuNi0yNS4xIDEwMi40IDE2LjkgMS44LTEuNSAzLjUtMi43IDMuNS0yLjdzLTUyLTUxLjktMTA5LjktNDYuMUM4Ny44IDEzLjEgNTIgMzkuNiAzMSA3NC42UzcgMTM5LjIgNyAxMzkuMnoiLz48cGF0aCBjbGFzcz0ic3QwIiBkPSJNNyAxMzkuMmg3OXMtMTUuMS02OC45IDM0LjktOTYuOGMxMC45LTUuMyA0NS42LTI1LjEgMTAyLjQgMTYuOSAxLjgtMS41IDMuNS0yLjcgMy41LTIuN3MtNTItNTEuOS0xMDkuOS00Ni4xQzg3LjggMTMuMSA1MiAzOS42IDMxIDc0LjZTNyAxMzkuMiA3IDEzOS4yeiIvPjxwYXRoIGNsYXNzPSJzdDAiIGQ9Ik03IDEzOS4yaDc5cy0xNS4xLTY4LjkgMzQuOS05Ni44YzEwLjktNS4zIDQ1LjYtMjUuMSAxMDIuNCAxNi45IDEuOC0xLjUgMy41LTIuNyAzLjUtMi43cy01Mi01MS45LTEwOS45LTQ2LjFjLTI5LjIgMi42LTY1IDI5LjEtODYgNjQuMVM3IDEzOS4yIDcgMTM5LjJ6TTE3MS42IDE2LjFsLjQtNi43Yy0uOS0uNS0zLjQtMS43LTkuNy0zLjVsLS40IDYuNmMzLjMgMS4xIDYuNSAyLjMgOS43IDMuNnoiLz48cGF0aCBjbGFzcz0ic3QwIiBkPSJNMTYyLjEgMzcuM2wtLjQgNi4zYzMuMy4xIDYuNi41IDkuOSAxLjJsLjQtNi4yYy0zLjQtLjctNi43LTEuMS05LjktMS4zem0tMzctMzEuMmgxbC0yLTYuMWMtMy4xIDAtNi4zLjItOS42LjZsMS45IDUuOWMyLjktLjMgNS44LS40IDguNy0uNHptNC44IDM2LjhsMi4zIDYuOWMyLjktMS40IDUuOC0yLjYgOC43LTMuNWwtMi4yLTYuNmMtMy40IDEtNi4zIDIuMS04LjggMy4yek04NC41IDE2LjZMODAgOS43Yy0yLjUgMS4zLTUuMSAyLjctNy44IDQuM2w0LjYgN2MyLjYtMS42IDUuMS0zLjEgNy43LTQuNHptMjAuNSA0NWw0LjggNy4yYzEuNy0yLjUgMy43LTQuOCA1LjktNy4xbC00LjUtNi44Yy0yLjMgMi4xLTQuNCA0LjQtNi4yIDYuN3pNOTAuNSA5My44bDguMSA2LjRjLjQtMy45IDEuMS03LjggMi4xLTExLjdsLTcuMi01LjdjLTEuMyAzLjctMi4yIDcuNC0zIDExek00Ni43IDQ2LjNsLTcuMS02LjJjLTIuNiAyLjUtNS4xIDUtNy40IDcuNWw3LjcgNi42YzIuMS0yLjcgNC40LTUuNCA2LjgtNy45ek0xNi41IDkxTDUgODYuOGMtMS45IDQuMy00IDkuMy01IDEybDExLjUgNC4yYzEuMy0zLjQgMy40LTguMyA1LTEyek04OSAxMTkuMmMuMiA1LjMuNyA5LjYgMS4yIDEyLjZsMTIgNC4zYy0uOS0zLjktMS44LTguMy0yLjQtMTNMODkgMTE5LjJ6Ii8+PC9zdmc+;" parent="9" vertex="1">
                    <mxGeometry x="43.889999999999986" y="265.13" width="142.07" height="50" as="geometry"/>
                </mxCell>
                <mxCell id="49" value="" style="shape=image;verticalLabelPosition=bottom;labelBackgroundColor=#ffffff;verticalAlign=top;aspect=fixed;imageAspect=0;image=data:image/png,iVBORw0KGgoAAAANSUhEUgAABQAAAAF4CAYAAAAL2lRIAAAABGdBTUEAALGPC/xhBQAAACBjSFJNAAB6JgAAgIQAAPoAAACA6AAAdTAAAOpgAAA6mAAAF3CculE8AAAABmJLR0QA/wD/AP+gvaeTAABkUElEQVR42u3dd5xU1f3/8ffnzrA0URYFSyyoKO4OEHV3FrtgLIlJjCmaRGNJ1GjsJfbC0OwFS2wpRhNT0F/6NybRCHbZ2Y2KzC7IgkbUKEpRpO3u3M/vD0wxsbCwO3Nm5vV8PPJIHgH2nPs+5957ztl7z5UAAAAAAAAAAAAAAAAAAAAAAAAAAAAAAAAAAAAAAAAAAAAAAAAAAAAAAAAAAAAAAAAAAAAAAAAAAAAAAAAAAAAAAAAAAAAAAAAAAAAAAAAAAAAAAAAAAAAAAAAAAAAAAAAAAAAAAAAAAAAAAAAAAAAAAAAAAAAAAAAAAAAAAAAAAAAAAAAAAAAAAAAAAAAAAAAAAAAAAAAAAAAAAAAAAAAAAAAAAAAAAAAAAAAAAAAAAAAAAAAAAAAAAAAAAAAAAAAAAAAAAAAAAAAAAAAAAAAAAAAAAAAAAAAAAAAAAAAAAAAAAAAAAAAAAAAAAAAAAAAAAAAAAAAAAAAAAAAAAAAAAAAAAAAAAAAAAAAAAAAAAAAAAAAAAAAAAAAAAAAAAAAAAAAAAAAAAAAAAAAAAAAAAAAAAAAAAAAAAAAAAAAAAAAAAAAAAAAAAAAAAAAAAAAAAAAAAAAAAAAAAAAAAAAAAAAAAAAAAAAAAAAAAAAAAAAAAAAAAAAAAAAAAAAAAAAAAAAAAAAAAAAAAAAAAAAAAAAAAAAAAAAAAAAAAAAAAAAAAAAAAAAAAAAAAAAAAAAAAAAAAAAAAAAAAAAAAAAAAAAAAAAAAAAAAAAAAAAAAAAAAAAAAAAAAAAAAAAAAAAAAAAAAAAAAAAAAAAAAAAAAAAAAAAAAAAAAAAAAAAAAAAAAAAAAAAAAIVjRIB1lXmtqZ96L9/LTLu4fGdJwyVVS9rovf9eImnpe/89W9Jz5npmwIqqx8/eao+VJAgAAAAAANDzWABEl1y/4Mm+7/Rf/WW5fUmmgyT1W4cfs1xmf5LrV3o7/lVm27GrSBYAAAAAAKBnsACItXLVm48PWJXMf8vdz5O0Rbf9YNdCyW/rnUjeeOHAvZeQNAAAAAAAQPdiARAfKeMe2ZJHv+PyyVrzam9PWWqyC8ZV73OnzJzkAQAAAAAAugcLgPhQExY9nIot+r6k3QtY7GOJfHzCpYP3m0MLAAAAAAAArD8WAPGBxi+e/hmXfilpQBGKf1dmR2aq9/0dLQEAAAAAALB+IiLAfxu/5JEzXPqDirP4J0kbyP1X4xc/cj6tAQAAAAAAsH5YAMT7ZBZNy7j7lAD6RsLlV45fPP1CWgUAAAAAAGDd8Qow/mX8ouknuOnOwKrlcjs+s/G+P6KFAAAAAAAAuo4FQEj6155/v5eUCLB6HYr94MwmYx+ipQAAAAAAALqGBUDo8nce2ri9MzlL0mYBV/MfSlSNyGy0x2JaDAAAAAAAYO2xByDU3pn4nsJe/JOkzZVvv5HWAgAAAAAA6BqeAKxw45dM/6K7flU6Pda+kKne93e0HAAAAAAAwNphAbCCXb/gyb7v9G9vkTS0hKr9slZtUJPZon4FLQgAAAAAAPDxeAW4gi3boOM8ldbinyRtbX2Wn0XrAQAAAAAArB2eAKxQmUXTtpTZbEn9S7D6K6RkTWbQXi/TkgAAAAAAAB+NJwArldl1Ks3FP0nqJ3VeQSMCAAAAAAB8PJ4ArECZxdP2kuzREm9/l9mYTPW+j9KiAAAAAAAAH44nACvMVJ+akOwWlf7ir8l9yprjAQAAAAAAwIdhAbDCtC4Z8m1JnyyTw9mldfGQb9GqAAAAAAAAH45XgCvIFUsfq14d51+QtEkZHdabMt8xUz12KS0MAAAAAADwv3gCsIKsjuMJKq/FP0karDgaR+sCAAAAAAB8MJ4ArBCZRY/WyuJnJfUqw8PrlHyXzKCxs2hpAAAAAACA9+MJwEph8Q0qz8U/SUrKoyk0MgAAAAAAwP9iAbACZJY88iVJB5b1QZp/KrPkkUNobQAAAAAAgPfjFeAyd5P/sffiJf1mSRpWAYc7X297KrPt2FW0PAAAAAAAwBo8AVjmFi/te64qY/FPkrbTRjqTVgcAAAAAAPg3ngAsY5Pe+usnOqPEHEn9K+iw31U+OTwzeK/X6AEAAAAAAAA8AVjWOqPENaqsxT9J2kCJzitpfQAAAAAAgDV4ArBMZRY9sofMH6/QNnbJ98kMGvs4PQEAAAAAAFQ6ngAsQxn3SJFPUeUu8JpkN2bc6d8AAAAAAKDisUBSjpY8erxc6QpPYVctfvRYOgMAAAAAAKh0vAJcZjKLnt5QtmqOpM0qPgzXwj7WseMFgw54m54BAAAAAAAqFU8Alp2VE8Ti3xqmIasseSlBAAAAAACASsYTgGVk4luP1OQjf05SL9L4l45EPh556eD95hAFAAAAAACoRDwBWEbykV8vFv/+W698MrqZGAAAAAAAQKViAbBMjF/y8BckfZokPoDrgPGLH/4sQQAAAAAAgErEAmAZyHiuyuPoGpL4cK7oxpv8j71JAgAAAAAAVBoWAMuALXnzHJl2IImPtP2SJf1OJwYAAAAAAFBp+AhIicssnLaZkjZH0oak8bGW9cpHwy8evM8/iAIAAAAAAFQKngAsdUm7Riz+ra0BHVF8OTEAAAAAAIBKwhOAJWzCoum7x6YnaMcu8SiOd79sk/1mEAUAAAAAAKgELByVqIx7pKWPPCVXA2l0uds3q3qfhoxZXFGH3ZYZItlYue0s00hJm0kaKKm3XO8q0ttye0nmz8q8WfnqR7XD6avpLwAAAAAAlDYWAEvU+EWPHOfmPyCJdez4ZseOq9737rI/0Oeu6a9+q46V+Vcl7SEp0YV/vUzSA5Ldpe0v+bPMnJ4DAAAAAEDpYQGwBF315uMDViY650janDTWuee/0cc7hl8w6IC3y/L4nrumvzZY9V25nyZp424IbKbcJ2uHy6bSeQAAAAAAKC18BKQErUx2ZsTi3/pxbbpKvS4qy2ObN/Fg9V+Zk3tG3bL4J0k+SqZfqm3CdM2fOJwOBAAAAABA6eAJwBKTeXvaMOVtlqTepLHe2pVPjMwM3vuFsjiaaZmktopukHRqD181lkt2tLa/9Fd0IQAAAABAt0vtPkhxxxaSDZJUJdkGMvWS4gEyS8q1ocxXSdYu+TJ51KnI3lY+jpWwpVJ+id4d8Kpemr6KMNdIEkGJydtNYvGvu1Qpkb9O0udL/kjmZjaURVMlHdTjZbn6S36f5k68RDtcegXdCAAAAADQJXV1vbQqUas4HhXJUjJ9wk1bybWFTFvKO/vK7H0T0TXs3//T7d//n1yKfc3/jF1SJPVbLtWmF0p6TdICMy2I3V+VlJP5M8o1v1xJkfMEYAnJLJ72Ocl+TxLdfhIcPG7QmAdK9gAWXN9X7cv+JLd9ipDeJRp26WR6EYJWmz5Spv6BXXje0qwsT9Guc5vWf0ZmWxW9Hq4OtWTvokEAAAhAzejdFMWjwqjMip8pl3uXRnnPmDFJvb4ircj3iMw+6e6jJNVK6lXkmi2W9IxJz8bSs/JohlpnzC3XZmABsERkPFelpW8+L9eOpNHt2gZVrxhxuh28uuRq7lMTmjf7fkmHFm366/q2driML1Ij3BtdbXqBpC1DO3vdbH/lGh+mhdapTR+Q9OkAavKutzQOoEUAACi+qDZ9jUvfDWKgZ/E2lfZ02f8Ymd5OsfaPXPu7tL+k6tIYaOpFcz0Yyx5SVfuDevbZpWVzjnCZKBFL3jyTxb8eM2zx4n6nlGTN5825QMVb/FtzeTTdpnmT6ulGQNfOHXO/TUPH9CEKAAAAlIVUfUNUm77RatMvW17zzHWHS4epVBb/JMm1rUvfNvlUa+/1ptWmH1FNw3nacfdPlHrzsABYAia/8dCmki4iiZ6ciisz+c1HS+vLynMnpCS/JICaJOXx3Xoxw0IG0DU7qt+75xMDAAAASlbNLtso1XC+1abnmNsMl06XtFWZHF1S0j5mfpUlO1+22vTjSqW/rVGj+pfiwbAAWAI6komrJG1EEj1qQEcyP7FkautTEzLdLSmURbda5aOL6UZA15jsQo3YrYYkAAAAUEIipeq/YjXpJ8ySL5n7lVLZv7EYSdrTXHdYvverUU36TtXU7VpqB4CATVj6cJ3MjiKJAnD7ZuatRxtKoq7zZ58gqS6wWp2neRleUwe6prd5/jaxJy8AAABCN2xYb9U0HG216Zy53SfTHhWZg2sjN51gFjVbbfpx1aY/VQrVZgEw6E7lFseJ79FOBTwfoniK3MOeiP/9imq5QnxasUqKrqUbAV0eQOyrVMPRBAEAAIAgjRrVXzXpS6yq+mUzv1vSToTyL3ua9JDVpKeppv6AkCvKwlLAMkunHyP5aJIoqN0zS6YfGXQN29snS9okyLq5Pq95Ew+mGwFdY+7Xadgug0kCAAAAIQ1TVVN/lOV7zzHTRElDiORDkxpjZn+xVPpJ7TS6LsQqsgAYqKvefHyA3C4niaKcuddkFj29YZBVa8uMkNkJQcfnfqPm3tSbfgR0ycZRVfJqYgAAAEAQRjTUW036cTO7R65PEMjazoe1u0VxY5RquEc71gX14A4LgIFamei8VNLmJFEUm8lWXRBm1aJbtOZLRCEbJlt6Bt0I6OpYQceUyv4hAAAAKFPb1W0U1aR/bLE3Vuwef90wcXf3oywZ5ZRKH6tA9vtmATBAE5f+dXut+XQ2iueciW8/skNQNZo34QhJ+5ZIfpdqziR+SwR0jZl0m4aO6UMUAAAAKLhU/Z7WJ3rWTceIj9R1hyHmustS6WkaNXrLYlcmSXuEJx8nb5ScVyiLqyqf1zWSDg2iNq9l+mmFriih/DZQ5FdJ+gZdCeiSHdRvxQWSMkQBACh7w/ccoCor/Jx04+QyTZ/eSQMA7xkzJqk3V5xj7hMl9SKQbuba1zrjZ7ym/hi1Nv2xWNXgCcDAjF80/QDJP0sSQZylX8gsmvbpIKqy3C6TtHVJxWd+hOZO2Jd+BHTx1JFfqNToWpIAAJT9PS+x+reWX7240P/RwmV1pA+8Z/guW9gbyx8x9yvF4l9P2sTM/hDVpq/QmDFFeRiPBcCA3OFNvdx0M0mENCqx6+/wpuJeBOdO3F5mZ5Zieopsinxqgo4EdEmVeXy7eO0CAAAAPak2nbJE8in2+ivcHNmlC2zhimkavssWhS6cBcCAvL54+emShpNEUGpeX7r85CJfIm6UVJqvhLvvrPmzT6AbAV22t2rrv0kMAAAA6BGp0WNNelyl9qZZWfC9LJHMKpXeuZClsgAYiMlvPLSpm19KEgGemu6ZzDvTivP57nkTPyeptF8JjzVZczKb0JOArjHZNRq1xxCSAAAAQLeqTX/DPP6TpIGEUTRbmGuaatL7FKpAFgAD0VGVvFzSRiQR5Cx8tTr6the83FymSu7XlUF+gxTZBDoS0GWDonzntcQAAACAblOb/oZJd0uqIoyiG2imB1RTf0AhCmMBMACZpY/uKtexJBEmk87NbLzbOwUvuCr6rqQdyyNEO1HzJtXTm4CucfejVJPenyQAAACw3lLpz5t0l1gLCkk/i+y3hRjz0+jFn92Z4ngKbRGsp8YN3PenBS91zqRPyHRhGeUYyeMpcuejBkAXmdlt2nL3viQBAACAdbZTw+7m+rmkJGEExtXXTL/q6T0BWXQqsvFLH/mGpL1JIkix4uhMmXnBS07E10raoMzy3FPzJ36dbgV0eUQwLNqo8yJyAAAAwDoZMXqUJfwBSf0JI1gDTPqDRo3esqcKYAGwiDILp23gritJIlDmd2U22aex4OXOm7SXpK+WZaau6zQ3syGdC+jiqeM6T6nRtSQBAACALkmlNrA4vk/ONwdKYL78CeuM/6Sddx7YEz+eBcBiSkYXS9qCIIK0rFdnovBfZfapCcXxLZLK9VXZzSTjSSag66rM/Y4yvjYAAACgB0Rx3ztVLnvLV4aUtfe6X2PGdPur2iwAFklm6WPbSX4mSQTKlbl48D7/KHi582Z/R6ZPlnW2Zmdp/sThdDKgyxemvVTTcBw5AAAAYK3UNBzvZmzDVHo+pYXvXtzdP5QFwGKJ8zdI6kMQQZq9+aANbi54qQsygyRlKiDfKrnfRDcDus4iv1Y1dZuTBAAAAD7SiN1qzPxGgijRcb/sEtXWje7On8kCYBGMX/rwpyQdQhKhnmg6+0Sr7yh4waujKyRtXBEhuw7UvImfo7cBXT53NoosuoYgAAAA8JHz2jh/h6R+JFGykqboZxq+54Du+oEsABZYxqclPY6mkESwfjdu0JgHCl7q3Am7SKqsV/vcp+jFDE/BAl09daQjVdPwWZIAAADAB6pJf1XS3gRR8raLovbruuuHsQBYaEt1qqQRBBGkduUT5xZ+Nu8m042SEhWW9/bqjM6m2wFdZ+a3aNSo/iQBAACA9xk6po+ZriSI8uCmE5RKf7o7fhYLgAV0+bJHB8ttHEkE69rM4L1fKHip8yYepUr97YzpYs2ftA1dD+j60C7q7MMXtQEAAPB+/ZafJWlomR5dLGnJe/95WdIiSUtkypf3tFlTlEpVre/PSXJ2FE57RzxZ0kCSCNLr8j5XFbzU2VcNkFZfUcm3J8XxlZL4MhXQRS4/T6mGqco1PkcaAAAA0E4NG5v8whI/itckbzTZ7Ng0R4rb1GlvKp/4h9pmvPOh/2romD4asHwL5e0TsnjLSEq52yhJn5S0dYkP/IfL+54hab32AmcBsEAmLHlkl9j9WyQRJpN9d9zGu71T8IKTqy+TtEWFx/81zZ14h3a4dDo9EejaFcRcd7i0h9b8NhQAAACVLIpPlWxAidV6mUl/it1/L08+ptlPvyRJ3tWf8tL0VZLmv/ef9w+OR6S3UuwHRK793ewzKsEHs8zsQt955+/r2WeXrnP34AwpjNh9iipvj7dS8dS46n1+VvBS503cQdJpxC/J/BZNy/ALCaDLfLRq608gBwAAgAq35e59TXZqidQ2lvRnd/uSty8ZHLdkD1dr00/+ufjX7WZlF6il6Udxa9MRvqL/5m5+mGS/LbFXh6ujjl7nrM8PYAGwADKLHzlC0j4kEeaFJ4p1hsy84CW73yipN00gSUppq+gkYgC6zsyu0vBdtiAJAACACjag4yuSNgm8lp3mutstP9xbsp9Wa+Ov1da2uqA1eGn6KuWa7veWxkM90o5mulWmlaXQxO46QzvvPHBd/z0LgD0s81pTP8mvIIlg/fCyTcZkC15q28RDJX2G+N9nguZePpgYgK6OBLRRlExeRxAAAACVyyI7LvAq/tXzPiJuzR6r3N/agqjR89n5cS57isfx9ua6W+vw5nGBDVBH1Ynr+o9ZAOxpfZZdpFLfcLJ8vaNOv6zgpc69qbfkVxP//6iWdU4iBqDr3PU1jWj4HEkAAABUoJpdtpEH+9bhcnc73luyB2hO05wga9ja/I+4NXusK95dUi7kpjb309f1i8AsAPagzOLHt5bsLJII9MQxuywzZOzrhS/47fMk7UALfKDjNX9SAzEA63BpiXWLRo3qTxIAAACVNhBMfkWSBVixNo/j3dXa+EOF/3Sd1NI8w1f0rzfppoDru4XU95B1+YcsAPYk75wiqR9BBKl1s4H9by14qW2TtpL5+cT/EdekOJ4idyMKoMs3nW2ijt6XkgMAAEBlMdmh4Q1Nfaa3d+yh2c3Pl1SYL01fFbdkz3Czb0haHWR7ux2/bpNt9IjM0kf2k+mLJBHoBdLjs060+o7CFxxfLxdP6Hy03TVv4lHEAKzDOMt0jlLpnUkCAACgQgzfc4DkuwVWqxbP+6fU9sybJZtrrvFnHvmnJS0NsHYHaMfdP9HVf8QCYA+Y6lMTin0KSYQ6Q9avx228358LXm7bxP3k+goNsFau1rwrNyIGoMuS5rpDOixBFAAAABWgV8e+kpIB1WiZR4mv6IXmt0o+21lN0938IMneDaxmkRKdh3T9H6HbtS4dcrKkkSQRpNWJpBX+FdxpmaSkG4h/rW0qb7+EGIB10qCal04kBgAAgPIXxb5nSPVx6XjNerq1bALONTW6x1+S1B5Stcz0+S73FU6X7pV5+8lB7hpHEoFyu+bSjfadW/Byt06cIvkoGqBLztCLmZ2IAVinAcEV6/JaAAAABb5jVZEBsJ5TXKk+nFNaD6olO7XsQm5tetDNzwmsVvutef177bEA2N3yHZMlbUwQQXq1f8eqKwtealtmiNwzxN9lvZSPbiYGYJ1sGCU7rycGAEDgBhMBsN52DaQe7rGfXbYp55puMem+gGrUW73aD+jKP2ABsBtNWPRwSvLjSSJMJp177mYHLS98wYnLJQ2kBdbJ/mqbeCgxAOswApMOVyr9eZIAAARsEyIA1sOwXQZLGhRIbf6k1qZZ5Rx3nOh9oqSFodQnirv2GjALgN3ZGSy6RWFtvol/sSfGVe/7i4IX2zahTu7fJP/14TfqtUw/cgDW4crnukWp1AYkAQAITs0u2yichQugNCV7DQtm1hbpB2Wf9/OPL3HpgmAyl43tyt9nAbCbZBY9crikMSQRpFhRfKbMvLBno5vkt3CerbettSJxDjEA63b+ROp/GTEAAMLTa38yANaTxdsEUpNV8hV/qYjMW7I/lqk5jMr4NtqpYa23oGNhohtcv+DJvjK/iiSCvSremRk4tqngxc6fcKxku5F/t1zYLtSLmaHkAKzD2eN+lmrrdyEJAEBQI/TIv0oKwPqeSDYkjHpohnK5dytmeC2/Ipw+4Gs9zmcBsBu806/9AklDSSJIS5SMLy14qXMzG8ptMvF3m76Ko2uIAVgnSZPdIR2WIAoAQBBqRu8m1wEEAayfyDyIBUBzn1lRweeafi3phTAqY2v9ERgWANfTpEWPbCXTd0kiTGYal9lw7FtFuBJnJG1OC3Qj11c0d+KBBAGsk7RSL36HGAAARTdsWG+z+CaCALpjjmQDQqhGbJpTYcnH7vbDECoSRTwBWDCdkV8viQ8UhKlls4Eb3F7wUl+YWCO3U4m/B5jfoKY7ehEEsC6nj03WqNFbkgQAoJi3o6iq+jZJaaIAuuWU6h1GPaIlFRd9wn8uKS52Ndy11k8A8sXa9ZBZPG0vub5MEoFyO+tEq+8o/LXPb5DEIlXPqFX1wpMl3UgUQJdtaJ3xFJe+QhRAhUulqhRV9w+iLis78mqb8Q759qDnH387hEmqUqkNIu/3Q5cO5yQEum3SWxVIPZZVXPSzsgtUk35apj2KWg/T9hozJqnp0zs/7q+yALiOpvrURMsSu0WSkUaAzP5fZtC+hf8K0bzxX5brIBqgJ+8tPkEvTZ6qoRf/gzCALvuyUvWHKNf0O6IAKlhU3d/yq5+TtFXR61Kl2FOj91duxrSyGYV6/18rv/rgMGqjR1zar6h1qKvrpVWJI8x1icuHcQIC3XqSt0te/GrEVpF7TVvk09ytuAuAroTeePsTkv7+sbd/Tph107JkyImSPkkSQVqZMJ1b8FIXXN9XbtcSf4/bUB35ScQArONAxe1mpVIbkARQwZ5/fInHOkohPBUmRebxPUrtPqgssq1Jny75wYHUZolbodv5sIRGjN5UqdG1qqn/WlRbf5utjNrM/cdi8Q/oAR7Il3fjAZWYfhzrkTBqktxmrf4WJ0zXXbH0serVcX48SYR6DdQ1lw7c98WCl7tq2fkyG0oDFIDpWL0w4U7teNkMwgC6bOvI+46PpXOIogwuh7Xpov7a392+qNbG35R90DX1R5nZPUWswTJvyW7YrT9xdvYRq03f4GFcC7Y0z9/h0mEl3U9So2tN8RUhPIyzZkjs39SspgVr/Q+G77KFJZKvrl+pL/17udEslCg+YCgZPa3asLYh9JYsb5ahy2LZu0GcaWaVuc90R2KGqgL4XZpps7X5azwBuA5Wx50TJW1CEkF6pX/H6qsLXuq8zNYyO5f4CyZSpO/JM1zDgHWZZJidoZq6XUkCqPCJY/uSiyU9E8iV6SuqqT+qZMMcNqy3eXyvXH1DqI7Jb1dL02/p5UC5D+ri5WFMzrRjRea/Zg/b14vfD7TxWrYTuiKz6NFayU4kiWBnteecu9lBhb8IejRFfA260Oo0344hBpTSXDuca6USpugO6bAEzQJUsLa21R4ljpS0IoTqmEW3qmb0DqUYZdR70ERJOwdykW+N+zpPeQMVwYJ4BdilhgpuhLkB1GGtFgB5BbjL51d8A7kF6/HMoH3uK3ip88Z/Sq4vEn8x7jR2pV7M/FrbZpYSBkpAs6S8pN3CuJ+pXjUvnapWvqoNVLRZT7d6TfpcM30vgBv7BmZ+r9fV7anm5o6SybC2YW+Xnx1IbVa7dKSam1fQuYFKYMsVxsv2NUrVba1c88sVNyWNosNkcXG//B4n12o+zEJWF4xf9PCXXTqQJIKUjyw+VWaFvfpNyyTXPP3ntEBxDFFnNE7SWUSBEhigxR7ZiRbHTZJ6BVEj00QfNfr/aeaMV2gfoIK1Zm9VbfogSYcEUJu0VtpFkkpjv+2ddx5o7f5TuYJ4otrNL1Su6Rk6NVAhIr0RyFTUFNtXJV1TcW0wa8YbpdNdsFauX/BkX7foGpII1h2XVe/3XMFL3SpxhuQjiL+ot5pTNW/CSIJAiQwQZpr85oBqNMDy+dtpGADe3nm8pH+EcWu3S7RTw+4lMZlanbxV0taBjIkeVK5pCr0ZqKS5UBTME3dmdpaGjulDowR8zyKCtfPOBu3nStqWJIK0REkfV/BS50/eVPJLib/oknIx2EXJiPv6pTK9GEyF3D6rmoZDaRmgwrU986ZH0bEK47WGpCX8Xg0bvWHQmdWmv+FmXw9j5q03PY6PEa+lAJWld8ffAzrvN1e/d9mjPWAsAK6FzKJpW8p1HkkE65LMhmPfKvwsPr5K0kbEH4T9NG/8l4kBJaG5eYW7nxJSlcz8Vm1Xx/UMqHSzZvzFTDcFURfXtlGv+KZgsxo1ekuTQqmfu/x4tTb/g04MVN64UrJwngKUXayRe1XTMGFiAXDtevG1kvoTRJByqvY7C17qvEn1kh9F/AFxu0HPXcN5itLQ0vSASVMDqtHmUd8oQ8MAiFcvOV/ScyHUxU3HKFX/9QBjiqwzf4+kICa55rpVuabf0XuBCp4Th2Mr61z9A5okTCwAfowJix/eU7LDSSJQ5qdmbGxnYUejmUhx/nucP8HZSv1W8qQuSmeSbTpD0pJQ6uOu01UzejdaBqhwbW1rviJrWhnGUM9uVc0u2wSVUSp9nmRjA6lNS7wseS4dF6jgKbH8ucAq9CWl6k+hZcLDAsZHyLhHsUdTJBlpBGlqpnrs9IKXOs+Ok1kD8Qd59ztPsyeyVydKQy77ussvDGlMYMrfoTFjkjQOUOFasjl3XRBIbQaaJX8iHRbEV3ZVW7+LeTBfKF7tZkfoladW0mmByhWbPx3etMxuVG36m7ROWFgA/KhOu+TRE2SqJ4kgrZT5+QUv9e9XVEs2mfiD1UdJv44YUDqT7KbvS/Z4ODc+G6U33z2NhgGgluzNcv0hkNrsrdqXiv+U/9AxfczsbklVIYTi0nnKNT5HZwUqXIc/qdA+AORKmPQD1TQcTwOFgwXAD3HF0seqXT6RJMJkZldlqse+VPiLa/t4SYNpgaB9UW0TP00MKBGx5+PjJa0O5vrqNknDG3iSFoB7r17HSXo9iGuTNEG1daOLOnHqu/xauUYG0j5/Vkv2ZropAL3Q/JbC2gfwX5dNM78zqk3fqGHDetNQATQIEXyw1fl8Riz0hGqBr+x/TcFLnTshJdlJxF8Sc5br1XRHL3JASZjTNMdM1wRUo36W8O/RMAA088mFbvqmwniyJGmK7tXwPQcUpfQRow9008lBtIvpTTcdq9Ce+AFQvMuC2QOhVs2l062q+knt1LAjLVVcLAB+gIlvPVIj03dIIlDuZ2e2qF9RhMHWzZJYVCoNNRq48HRiQKmIVy+ZJGl2QFX6jEakv0TLAFAu+ycz3RZIbbaPku3XF7zUHes2sTj+scLYF9zd7FvKZV+ncwL411gy7/8XeBV3tcifi2obJiuV2oAWKw4WAD9APtINYqEnVNMyG4+9v+Clzp1wuKSxxF9KfJxemrw5OaAktLWt9lgnKaCnOSzWLdp554E0DoB4ef9zZHo+iLu763jVpg8v6PUwmbhNUhBjCpNu1qzGP9ArAbzP7Oxjkv098Fr2cflF5v3mqLb+W6qrY82lwFgA/C+ZJdMOlfwgkghSXorOLHipC67vK9PVxF9yBqgzvoIYUEIDt0fMdU9ANdo8ak9OoGEA6KXpqzz2IyStCqE6Jt2uVN3WBSkslT5B8q8E0hK5+J3kBXRIAB8gdunHJVLXLUz2Q1sZvazahgy/cC4cFgD/Q8ZzVYqNhZ5g2W2ZQfvMLHixq5ddLGkb8i9FfrTmT9ibHFA6Izc7R9LCYM4g2SnaqWF3WgaAWptmuXRJILWpNkX39PhcZmR6O3NdF8gxr/IoOkKvPLWSzgjggwduHXdJikuoxpuZfJy195of1aZvVCq9M43Ys1gA/A+25K1zZdqBJIK0uCrZkSl4qS9ktpPsHOIv3dNasU2RT00QBUrC7MZF7nZuSOMEs/h2XtEAIElqyV4vKYyN5l37qjZ9do/9/DFjkpbXvZIGBHG45t/VrBkz6YQAPlTrM3+X+0MlWPNql0431zNWm35GNekzNGr0ljRoDwzsiWCNSW/99RMu55H6YPnFF224/6LCnyHRDZL6kH9J951dNa/1W+SA0hm8Nd4j04PB1MdslFZGZ9AwACS55zuPl/RWEJcnaZJq63fpkR++cMUlknYLJPc/Kdd0K90PwMdepBXdVuKHsLOZplhn/LLVpp9STf25Su06jJbtHiwAvqczSlwtia/RhGmWqvWDgpc6f/wBkg4h/nJgV6j18o3JAaUzeMufLFMwr3mZNF7DG7alZQBozjOvudsJgdSmt0n3qq6uX7f+1FQ6bfKLAjnGhW76pgL6SBSAgLU2/layGeUwgZO0m5ldbZ6Ya7Xp16La9FSl0t/W8F22oKHXDQuAkiYsmr67pK+TRKCd1OJTMza2s6CF5jJViu1m0i8bG6tXxzhiQMnI/a3N3ScFVKN+lvDv0TAA3ptg/sakOwOZI9ZEq6Jruu3HjRrV31z3Sgph6wN3t28pl32dTgdg7a8b8aVleFybu3SYue6wRHKBpdJNUU36StWk99fQMbyxt5YqfgEw4x7FkW7UmhVmhOcXl1Xv90jBS+0dnSlpOPGXEztZ8yd8khxQMoZscLWk5wKq0WdU23AYDQNAkuK+8VmSZocx29XJStV3y1sbUWefm6Qw9gQ3tylqbfw/ehuALmltelDSw2V8hJFcdW4630wPWv/li622/uGoNj1eNfUHKJXizc4PDa7SLZ7+LbnSdIUgrUxavvD7Mr6Y2UzSxcRfdhKK/Ra5s9iP0jB9eqcrPlEBfc3N5Ddp550H0jgA1Ny8wj0+UlJ7GNcn+4Fq6jZfrx9S03Coy0PZN3hWvLLfRXQ0AOvCzS9UaX0ReD0OVn0lG+vSZWb2F/N+S6wmnY1S6Rs0Iv0ljdpjCD1ijYpeAMwsenpDmU2kGwTK/PJLqj/194KXG0fXSNqQBijLTrWX5k04nBxQMlqaZ5j8zoBqtFm0utckGgaAJKm1+W9uCmOLDddgk/1Y6/pWz6g9hpj5HYEku8rj+Ai9NH0VnQzAOsk1NZp0fYUefVKmenedabH+n3V2vGG16XlRquEepdLfVm06pQp9A7SynwCMVmUkbcbVIUgva+WAwl+w2ibtIdeRxF/O7Fo9d01/ckCpiNsT58v0aij1cdN3NCK9By0DYM0kM3u1QnnVzOxA1aZPW6d/2dl5l6QgnhJx2Vma3fw8nQvA+o0hl1wi95kkIUnazt2PMtcdJs2y2vRrVpP+vVIN5ytVt5fq6npVQgjJSm39zFvTdpLrVM6DMJnpzHFb1K8o7GgrE2lePEXsB1nutlT/FRdKuoQoUBLaZrzjqfozTXZfIDWKzHW719XVqbm5gwYCmGN6Z/JoS3Y+J2njoo8hpat9xOjpmjVj7Se9tenTJD84kFHwH9XSWJwnEfNV71oUX1WAkjZw0ynFnWvYTxT7ayGdSHzmGd0/hmxb7an0MeaaIamKQN5nM5k+Z+6fkyJpld5WbcMTbnpUcf5BtTY/U46nZcUuACqy6xXG173wv3e/h8cNGvPrgpc7P/q2xH6QlcHO1bzMPdo+8wJZoCTkmu5Xbfp3kg4Joj6ukVqROEvS1TQOAL3w1Ks+Iv1ti/X/AqhNb4vjn/mWu6f1ylMrP/Zvj9itxjx/ZSDTvDc8sm8VbdLZNuOdWOr5/bdr6jY3RUVdAIw9/z21Ns/g5EX5jyGzz3pt+iKTriWMjxzbbiT5weY6WBZdqdr0QpMejN3/rMgeLJevsVfkK8DjF0//vKTP0MuD1BmZnVnwUv9+RbVc7AdZOaqkiJsgSmtcYvFpkr0bSn3MfJxGprejZQBIkmZlf2XSXYHUJhVt1Hn5x/6turpeFufvXrOBfNHF7vqGZs14g84EoFu1ZK8z1/cIokuGuHSkmd1jrn9YbXpeVJu+Q6n05zV0TJ9SPaiKWwDMeK7KjdXvcGe4/r3LBu1b+D1POjsmSdqEBqikvqbPa97EgwkCJSPX/LJbfFlANepned1KwwD4pzi5+jRJQTxd764zVNPw2Y+cCK1KTFYgb3+YdL1asw/RiwD0yPV50/5nSvZHklhn27n0bXP9zvotfyuqTU9VbfpwpVIblNJBVN4TgEsWni3XjvTfIC2u6pUv/FN4bZkRcn2b+CuQ+42ae1NvgkDJyG17k0zNAdXoINWkv0rDAJAkzZy53CM7UlII+4Oamf9II0Zv+oF/Wtuwt8vPDiS5v8W24mI6EIAeM316p9vyr0r6G2Gst/4uHWbSL039Floq/SvVpL9aCk8GVtQC4OQ3HtpUsgvpr6GyCy/acP9FRTgNblEl74dZ2YbJlp5BDCgd9+Vddlwgk+v3ZtiaopF7VdM2ACRJsxqb3DUhkNoMsTi+S//9gbft6jYy6SdyJQKo4wpPxEcql2un8wDoUbncu57ovb9MTxFGN3H1leuLZvqF9V/++prXhOv2CrW6FbUA2NEreY2kDemlQXqmtvqNHxa81HkTjpC0L/FXtEs1Z9IniAGlM3hrfM7kNwdUo82i/KrLaRgA/9KavVyu6YHU5jOqbTjxfROg3nab5NsEMXc0nannm2fTaQAUxPOPL3GtOFDSXwmjuy/o2mjNa8LRY1abfl619Seqrq5fSFWsmAXAzKJpu0n6Br0y0FPF7MzD7fB8QUt9LdNPriuIv+JtoMivIgaUkrivXyrTiwFdxL+tVP2etAyAf16mvFd0lKQlIVTG5Ddop7qRkqTa9JFu9nWFUbFfK5f9Pt0FQEHlcu+6rThYsvsJo8eMMNnttip6LapN36hU3dYhVKoiFgAz7pEiu1H//fg/QvHzTPW+jxa81OXRpZK2Jn7I/Ai9MGkfgkDJaG5e4e6nBFSjyNxuV11dLxoHgCRp5oxX3DyUPZb7WBTdrZHp7UwK4wlq06uetxPoKACKIpdr95ZtvmauiZJiAukha54KPN08aotS9T9QzS5Fffq8IhYAbekjx8jVQO8L0gopWfh9GedO3F6ms4gf/xqGR/EU+dQEUaBktDQ9YNJ9AdVohFZG36VhAPx7gtl0v5n9JJDa7GKx/iYphD1LY5cdrdmNi+gkAIrnvnzcmr3MzQ6Q9AZ59Khe7nacWXJuVJu+Q8N32aIYlSj7BcCr3nx8gLsm09+CNTkzaK+XC16q+Y2S+Por3jcx0PzZ/CYeJSU2na5AXrGTJDNdqhF129MyAP51ndLykyXNDaIyro2CuFZKVyvX+DC9A0AQco0Pe6S0XE8SRo/r5dK3LZGcG9WkJxT6y8FlvwC4MpG/TNLm9LMgzdfbfn3BS5038XOSPkv8+IBZymTNyWxCECidAVv2dZddFEx9XH0tb7fSMAD+fZ3KveuRjpXUSRiSTM2xrRhHEACCMiu7wFuze7npREnLCKTH9XPTpdZveU6p9KcLVWhZLwBm3p42TPLT6FuBjn8sPjuz7dhVhR2EZqrkfh3p40MG5YMU2QSCQElpabxTsscDurgfqFTDETQMgP+YWD7pMt7IkZZ7px+pXK6dKAAEyJXL3ukWj5D5/xFHQWxnrgeiVPoXGjF6054urLyfAMwbr3kGe2mxv46r3u+3BS+3KvqupB1pAHwosxM1b1I9QaCExJ6Pj5e0OpjTyP16jdyrmqYB8C9D+k2S6anKnln76ZrTNIfOACBoueaXPdf0OY/0ZZm4ZhXi/uD6qsXxM0qNHtuT5ZTtAuD4RdMPkHQwXSlInbL4zIKXOmfSJ2S6kPjxsddFj6fIna+Go3TMaZpj5tcGVKNNo87VV9EwAP5l+vRO77QjJb1TmbM7/UotTT+iIwAoGbOyv/JcttbdjpH0GoH0uM3N479GNekrpcN65OOUZbkAmPFclZtupv8EynRzZtDYWQUvNxFfK2kDGgBrYU/Nn/h1YkApiVcvnShpdjBzXdPxPf1bTAAlZk7ji+5WidvzvOJRkg+NASjJIaZaG+/xvvEO7na+pNeJpEeZm8632pf+0hNv05TnE4CLF54uaTh9J0CuhZIXfo+1eZP2kvRVGgBd6KvXaW5mQ4JAyWhrW+2xTpLkoQxgTPFtGjaMrTgA/Ftr4z3m/vNKmjy72THKPbWYxgdQspqbV6i18Wq3FduseSLQWwmlR+1n+dWPa9ToLbvzh5bdAuDkNx7aVGaX0F/CZLKLMtVjlxa0UJ+aUBzfIolXOtEVm0kRr4yjtMzOPmLmPwmmPq7h6jXouzQMgP8Ur/bvSPb3ihj7ml+hXOPDtDqAspDLtau18R5vaRrhbl+U+18kxQTTI2qt0x/X8Ppue7it7BYAO5LJKyVtRF8J0t980D53FbzUtjknyfRJ4kfXR+06W/Mn8jQxSmtinY/OlrQwoMnvpd05cAFQBuY3v+2W/4ZM+bI+TldT3MfH0+AAynHIqdbG33hr00Ge0A4mXSHpH8TS7TeSbSxpjynV0C3rGWW1ADhh6cN1Mh1NJwmz50bSmRmzwv52YEFmkIyBF9ZZldxvIgaUlNmNi9zt3IBq1Nsiu108hQ3gP+WaHze3cv5Y0HJ3O1LNzR00NoCy9nx2ftySvcj7xtt4ZJ836WeSlhNMN3ENNvc/KlW39fr+qPJZAHS3OI6mqIy/bFzifnrZoDGPFbzU1dEVkjYmfqzHBfdAzZv4OYJASWltvEfSQ8HUxzRGtekjaRgA/yke0m+cpKfLcvhgdopmN75AKwOoGM3NHZrV+Ie4JXukJ1dv6uZHSPqdTCsJZ71tYR49sL4fBimbxbLM0kePkrQX/SJI7yqfvKDgpc6dsIuk44gf6z+K9yl6MdOHIFBak8/8d0IacJl0g3as24SWAfAv06d3ehR/Q9Ky8jowu1+5xrtpYAAVa+bM5co1/dxbsl/wt5Mbu+kQk+6U6VXCWWe1ll/9m/X5wF5ZLABmFk7bQO5X0B+CnYZOzgze67XCFukm042SEuSPbrC9OqOziQElJfe3No9tckA12iTqZVfSMADeZ1bzPHc7q4yO6BW3xIk0LAD886r41Erlsr+PW7Inei67pUsj3OwCSU+ID4h01T5R7+p1Hk+XxxOASV0iaQv6QpDmDapeeUPBS22b8A1JexM/uo3pYs2ftA1BoKRs2u8qSc+FUh13+5ZSDfvRMADep7Xxh2b6ZRkcSeyRH6XcU4tpVAD4EC3ZnHKNV3lLdi/3eEt3O8GkqQroI3Yhc9cZqknvvy7/tuQXACcu/ev2kp1JNwiTSWedbgevLmihs68aIOMpE3S7fopj+hVKy/Tpna74RIXz21Uz99s0dAyv1AN4n7hXx0mSXi7xce8kzWqaTmsCwFpqbf6HWht/ELdkv+ot2U09oe3ddKJJ90nilykfNp6O9GOldh/U1X9Y8guA+Thxg6Te9IEgR0EPjRs05vcFLze5+jLxRCh6xtc0d+IYYkBJaWmeYfI7A6rRjuq//DwaBsD7PPvsUncdJVO+RI8gG/eNJ9GQALAens/OVy57Z9ySPdxbhg5xU4O7nS/pz+LLwv/m+kTknTd39Z+V9AJg5q1p+0v6PK0fpA7l/bSClzpv4g6STiN+9BjzWzQtkyQIlJK4PXF+SJsum+sijazbiZYB8D6t2UdNfl0JDg7edY+OVHNzB40IAN3lvrxy2axaG6/2luynfUj/gR5H9e/tH/iQpFWVnI5LR2in9L5d+TcluwCY8WlJRXYDJ0Wo4yC/KbPJ2NmFPwv8RvFEKHpWSltFJxEDSkrbjHcC22S/t8XR7ZKMxgHwn+I+fomkxtKahPl31DpjLq0HAD1o+vROzZ7R/N7+gQf4O8lBbvHe/7Eg2F5pkVhkXXryvGQXAG2xnSZpBGdBkKOghX28c2LBy507/guSPkMDoAAmaO7lg4kBJaWl8T5JvwvoXrGvUg1H0zAA3qe5ucMtf6Rk75bEnES6Ty3Zn9JwAFBgrzy1Urnmx/+1IJiv2sTlh5rsDpX4nrJdGFDvpZqGz67t3y7JBcDMsieGuOkyenygA6FIF1ww6IC3C1ro3Jt6y+wa0keBVMs62ecHpTdEsPi0kCbV5n6dhu3CYjqA98v9rc0Vf7cEarogTvQ+kQYDgADMeWKZWpp+G7c0nuQt2W3++UERuf4gaXW5HrZFfoXWcm2vNJ8A7Gy/XNJAeniQ3a/ZB+57d+GLffs8STuQPwroeM2f1EAMKK1JdfPLbhoXUI02jqqSV9MwAP5HS9Md730FMtgZiUf6mp5/fAmNBQABeu+DIt6a/bznqwa72xdN9iOV29eFXSNVW79W38YouQXACUse2UVu36Q3B9r1PD41YxYXtNS2SVvJ/HziR4FFiuMpcmcPM5SW3DY3ytQczo1Dx6g2/SkaBsB/izvjkyX9I9BB7yTNyj5JKwFACZjzxDK1Nv4mbmk8zvvGm7n7Z838HknvlMPhmdkpazeBLSXuFq/5yENEDw6yfe7JbDz26cL3dr9Orv40AIpgd82beBQxoLTcl3fZcZI6gxmzSLdp6Jg+tA2A93mh+S13P0aSB1azJ9SyLVuBAEApam7uUGvTH+Nc0zGeXL2Fy4+T9HRJH5Nrf6V2HfZxf62kFtLGL3n0CEl702ODtExxr4sKXur8CXvL/SvEjyK6WvOu3IgYUFJyjc+Z280B1WgH9VtxAQ0D4H+0Nj1oblOCqY/pbY8T35Duy9M4AFDiZs5crpamH3lLdnePok++91RgRwkeiUmJIz7uL5XMAmDmtaZ+Lr+cHhpsb5uYGbzXawUtdFomqdhuWVM8UDSbytsvIQaUmrhf/hKZXgznPuIXasRuNbQMgA+4QPQKpi5uCZn3olEAoMzMmjEzzjUd43FiR3N9T9Kq0rpVqnwWANXn3YslbU2vDFJbdfWKmwpe6taJUyQfRfwIwBl6MbMTMaCkNDevcPdTAqpRlcX528UvdQD8pxGjD3SFdK3yDczie1VXxyIgAJSj2U+/FLdmT/VIO5rZT0qm3q7hGl4//KP+SkksAGaWPradpLPpiaGyM063gwv7We22zBC5Z8gegeilfHQzMaDktDQ9ENhXNvdRbfpYGgaAJGnHuk0sjn+s8H4xkNaq6EIaCADK2KzsgjjXeLS7HyhpXknUOamDP+qPS+MJwDh/nSQ2Bw/TXzKD9v1jwUu1xOWSBhI/ArK/2iYeSgwoNbHpdElLQqmPSddq1B5DaBkAlox+KGnzIOvmulQ7NexOKwFAmWttetDbo11Nmhr8fdPtoI/68+AXADNLH9lPEpPqMLUn8vHpBS+1bUKd3L9J/AiP36jXMv3IASUll33dZRcFVKNBUb79GhoGqHC19SdKOiTgGiYt8p9q+J4DaCwAKHNtM96JW7JfddcpMoX7ESjTbtJhiQ/746AXADM+LanYp9DbgjXl0sH7zSloie4m+S0qsS9Yo2JsrRWJc4gBJael8U5JT4RSHXc7WjXp/WkYoEKldh1miq4tgZpuFyU6mKsAQKVozd7qriMU6peCXRsp9fcRH/bHYS+iLLWTJY2klwXI9EYfdRT+q8zzJxwr2W40AMLlF+rFzFByQImJXTpRUnswtxnTrRo6hu0/gEozZkzSPPlTyTcoibu+/FuqTR9OwwFAhWjJTnXzI4J9EtDjug/7o2AXADNvPzlIrsvoXWEy2fkXDDrg7YIWOvuqAXKbTPoIXF/FiauJASU4mMmZLKQnbnaI+i6/iIYBKku0cMV4yUeX1rhYt2tEeitaDwAqRK7pfnebFOR9VEp9xJ8FKt9+haSN6VlBDnOafeA+hf8cdq9V4xXoRtDA+7gfprkTDyQIlJq4ffEESbODOZVM5ys1upaWASpEqn5PNz+/BGteba4fKryvFQMAekrLNhNleiS4qajZh75Fmwwxx8ySaTvLdRw9Ksz5YRTnT7nMLC5oqS9MrJH7qcSPkmF+g5ru2Fn1J3YQBkpGW9tq3yl9kkWaFshEtso8vt2lfSU5DQSUse3qNjK3n0pKlGT9XQeopv4MtTZNoTEBdLstd+9rG3b+ruiXOvOMck1P0CCSdF/e87sda1H+BUm9ArofbfdhfxTkAqA8miJ5gg4VINOPL9tkvxkFLzfyG4I6qYCPV6vqhSdLupEoUFJmZx+xVP1P3O3oQGq0t2oajlNr4w9oHKB8RX2i77k0tKSHyWZXeqphmnKNz9GiALrVK0+tUm16jIq/hvNbBfThuOKPm59+yWobfuLybwVUq6205m3f/3loK7hXgDOLp31N8n3pSUFa1qszuqTgpc4b/2VJBxE/So77BL00mdfWUXLifHS2TG+GM6n2qzRqjyG0DIomMj5I05NS9V9x6cgyOJLe5v4zbbl7XxoVQHfPLGRaUvTbYRxtR1P817jZ7crAPghSpeG7bPaB7RdScNcveLKvZFfShcJkbuMvHrzPPwpa6ILr+8qD2pQe6IoNlY8nEgNKzuzGRS47N6AaDYo6O66nYVDE0X1/Qugho0ZvaW53lNER1UYbdV5OwwLodl78BUC3eFsa4r+0zpgr6eGg6pTsNfiD/u+gFgDf6dd+oaRt6EFBaqsetPyWgpe6atn5KvHXQVDpN2r/pl6YMJogUHJyjXdLeiicMa+OVE39ATQMisLUjxB6RGSd+XskDSqvW7/OUG39Z2heAN08GHotgBviKBrig5rGfxdWjewD76vBLABOWvTIVjKdQ9cJddyr00+3g1cXtNB5ma1lQT2BAqzT5EaRvifPRESB0pvERifLtDKYe5HZnRo1iiexghJXxKuxkUUDaesekEqfJ9nYchw6m+wH2qlhYxoZQLddWCJbEEA1ttOwXQbTGv89aA5sX0SLqz94YhqIzkg3SPx2NVC/HzdozAOFP4miKfQJlIk6zbdjiAElp3XGXI9tckA1Ghp19rmIhglpgFkZ92l38cpTd6up29Vc48v4CLewKObjRQC68WakBUHUo08v3m76bys2aA2qPvEHj8+CWAAcv2T6WLl/mV4TpHblE98teKnzxn9K0heJH+Vzw7Yr9WJmIEGg5ETLr5GUC2fs69+VtAMNE4hKeTXWfSiN3Y2GjuljFt0tqarMT5BDVVv/LRocQHeIXS8GMTSMfQ9a47+8NH2VpGUBDVw+8P5a9AXAqT414a4p9JhgBy7XZwbv/UJBi5yWSb739B9QToYotsuIASUnl2t3xcdJigOpUZWk7WmYMESyTStjOCS+etid/ab/8usljaiMrmM3aaeGHWl1AOt/8YyDeMrMpc/TGB/ozYA6S5gLgK1LNj1JEhtJhul1ee8rCl7qltHpko8gfpQdt9M0b8JIgkDJaWmeYbLvEwQ+4MK2ddkf4sj0diqzj1QUVSr9aXedVEFH3N/M71VdXS8aH6ggiWQP/OK0VyivmY54796I/2TF/0rzxynqAuAVSx+rdnmGnhLsoP7czMa7vVPQIudP3lQmnpJCuUqKJ55RouJ2O0+mV0kC7xspyLYp/85vu9HS3WTYLoPNdZckq7BJYX20MrqEDgBUkHbv/o+o5Z5aLOkfYdwb/Qs08v8MivoGVJkP/IBrURcAV8f5SZI2oacE6alM9Zh7C38hia+StBHxo4ztp3nj2fMUpadtxjvuOpsgAmPKF7kGteUeceTOZufd1FutKvlDSZtV5rxQl2in9L50A6BCVK1a1UMXk+YgLuhux6vSfpnz8WOycNYxzD+w/xVtAXDCoodTkr5NLwlSrDg6U2Ze0FLnTaqX/CjiR/nPAuwGPXdNf4JAyWnJTpX0O4II6nqysrjla7B22m1oeUesg+ho3aAm/R1V9r5RkSV0l4aN3pDOAFSAmcN7ZAHQIzUGcoS1qm3Yi4b+9zVeQW0XYu9+WCWLIrboFklJ+kmATD/KbLJPYS8snokU57+nQL5MDfSwrdRvxbnEgFLkFp/2YYMKFKVFVhR/yBunyzbe1OhauYbTz9bTiN1qzHQNp6u2jariG+kQQNlrl+7rqSf0s6EcZGR+Mk39npHpoUG9Apy3tz6wzYpRl/GLph8maQy9JEjvqMMvLXipbdG3ZNZA/KgYZudp9sRtCQIlJ9f8spvGEUQo1xItL/oEQPF+ZZuvx+xxtL7q6npZnL9bUj/CkFw6VjXpr5IEUNZW9dhP7qx6QlJHINezwzRitxqaW1Lew/rQYzK/8IPHbAV2/YIn+7rpanpIoPMIVyYzZOzrBS3071dUy3Q56aPC9FXSryMGlKTcNjfKwtiDhtUErSh+FewQlec+QGbS0XSy9ROtiCZKCuUp0ScC6Vi3atToLSu2U/TI11GBoPTc9hxznlgmBTIGcyUiz/NLYUmR2+5BjQ6jjg9c0yn4AuCyDTrOkzSULhKk1s0GbXBLwUvtaB8vaTDxowJ9UW0TP00MKD335V12nKROsii65QHUYQuNaKgru2RHjD5A0k50sfVQ27C3R/puCFUx6S5vX/IpSc8GUJ1B1hnfq0rd+maVVnJyoMz16AM1Jns4lAN11+Gqqdu10hvczQ8Jqv/NnPmB48OC3nQyi6Zt6e7sexVsr/WzT7T6wj5OPHdCSrKTCB8VfOJdr6Y7epEDSk6u8Tkz3UIQ5T3JWFtRrGPKLVjLx6fRvdbDzjsPNOknciUCqM28OF91htraVnuUOEIq/pOzkvZRbfqsiuwbbVsv5wRBmXutJ394bPkHQrpdmqI7NGZM5X7fYWTdTpIF9Cq0zfvQ8VqBu8Z1kvjyZZh+k9l47J8K3zd1syQWP1DJajRw4enEgFIU94kvlulFkijiEE96KYR6uPlRGjWqfMZ4qXRaps/Sw9ZdtDp5q+TbBFCVTvfoG++9NifNerrVPZinEicrld658nrHfXlJqzlLULb3ZvMeXQBUbrunJC0MaDBSr4XLK/ZBryiOgvqFobm3fmhdC1WJCYsf3lPSYVwOgtSeSNh5BS917oTDJY0lfsDH6aXJm5MDSk5z8wp3P4Ugiic2fymMy5g2Umefo8pm8ua6UuW5r2Fh1Ka/4WZfD6Jrmi5V64yn3/d/tmZvk+y3AVSvt7nu1Za7963AXrKCEwU9cfkOpB49/HT+fXkz/31gwY+ryF9o7NSwsbuODWtsaH/7sD8ryAJgxj2KlbiRgVSwiw/XXLrRvnMLWuSC6/uKj8EA/zRAnfEVxICS1NL0gGT3E0SxRnnRS+EM/v0iDR3Tp+QzrWn4rKT96FzraER6K5NuCqQ2jyo39JoPHP0mqr4paUEAdayNNuy8sgJ7yjJOFnT/jcgHBnFrju3VHi9D0X2Bpd/b3H6jYbtU1N7+UcInKLiv3Oef+dD6FqT8JdO/LXmdEKJX1anCDzpWL7tY0jbED/xrKnK05k/YmxxQkr3X/DRJS0miGJOd+KWAarOV+r/7nZLOc7u6jcz8NjrWus+FLK97JFUHUJclbvFR771u+r+ef3yJxzpKUtG/SOvSae8tPFeSBZwu6PZzyaMw3qiJ9EqPl5FrfFCmVwNrgW2sKvlrDRvWuyI6XKq+waUTA6vVCrW//eyHd80edsXSx6olm8jlKNiZw3mZIWPfLWiRL2S2k+wcsgfefzIqtinyTEQUKDm57OvuuoggiiDfu02mfDAXMrfLtOPunyjVOKM+0RRJW9Gx1lFNw4UyjQliGiqdpFzzyx/5l2ZnH7E1e5QX/dQx8x9pxOhNK2fQU+T9Y6PkRpyw5eawhOQNYdybE88XoJTYXD8PsCH2tF7VP1NdXXnv8z9yr2pz+2kgH7r6j5ufP662tg/dY7XHJ5qr4/x4SZtwQQrSk5nqfQp/0YiiGyT1IX7gf67Yu6ot+hY5oCS1Zu+Q9ARBFNicJ5bJ1RpQjQZaovP2ksyypv4oV1j7+JSUnUbXmfllIVTFpDvVkp26VjPoPvmLJTUGUO0hFvsdlTPkKfICoMdDOWnL7Rr00l4KY93hHc1++u+FKChOxD+U5MG1helLttKmKpWqKsu+NmZM0uLVv5S0Q3iX1uivH/XnPboAmFn0aK2kk7gaBSmOYp0ps8JeMOaPP0DSIcQPfOgN80q1Xr4xQaAU7yvufpKkdqIo8GXDfEZg17HPqSZdWq8C79Swu5ndSW9aR6NG9bdEfK+kACZ71hbbirV/06S5ucMtf6SC2JPOv6BU+oSKuGEU+Qvy5v4ZTtwyuxdGuiCQqjyvQi3KPd88W6aHAm2RQ837/VY77zywrDpaXV2v6M3lP5XrgCDrl4g+8uMwPfsEoMU3SCrvRz9L1w8u22RMtqAl5jJViu1mogc+0sbq1TGOGFCSWptmmexagijwRFo2I7Q6melG1aT3KYkAh9cPt8h/Ld5OWGdRR+8b5BoeQFU63OIjlct1bXub3N/a3O3sIM4d1w0aXj+8/HuNtRW5/IM1Mr0dZ2+ZqK3/jKRPB9Gz5c8XsjyXQp5ff9raezWqNp0qi342alR/WxH9yl1fDbOC3qpZT3/kWyE9tgA4ftHDB0k6kKtRkJZU9YouKXipvaMzJQ0nfuBjhw4na/6ET5IDSlHcvniCTHNIopCXjGhGgLXqZZHuD37QX1M/whI2XdKmdKR1nnh/wU1BPLXm0oXKNa3b67ytjT8w0y8DOIz+lrR7y/bVuX9KrvqbpM4i1qDK8rpBknESl7jUrsNM9tNgxkFuMwtaYC77f5K3BtxCO5j0lGoaji/p823EbjXW2XuGTJ8Ldjjodv/H/Z0eWwB0K8ICE9ayZyhz0YB93ixomfMnbyrpYsIH1kpCsd8idwalKD1tbavd/CSFuCdNuZq1dU7S4uDq5Rps0sPaqW5kkLmtee13mqTN6ETraNQeQ0wWxr51pgfVkr1hvSbuvTpOkuzvAZw7dZH6XVrWfWfmzOUyPVfkWhwS1aSv4EQuYamGT5onHpQ0KJxRfFTo/ZBjl10eeEsNMPPvW236IY2o276k+tiYMUnVpM+wOJ+VFPIvNT1O6scf95d6ZAEws+iRAyXtxRUpSC2bD9zgtsJ3x/y1kjYkfmCtZzJ7qW3iYeSAkjSrabpZOL+NL3/35c38D4FWbohF0cNKjR4bVK1qG06yyKeLD9Wt143K8u0/UhhPT77lnZ3HSorX66c8++xSl44K4cva7rpIO6X3LesO5P5k0XM2nR/V1P9Mqd0HcUqXkGHDequm/sz3+tDQgGr2hmbNeL7gpQ7p/4viv1a/VvYzj56Pauuv06g9hgRf2xGjD7SFy58x0xRJ/QOv7cN6Pjv/4/5SzzwBaH4mV6VAxX7GiVbfUdAy2ybtIdeRhA909Vqq6/TcNf0JAiV5u8nrLJneJIkC5R1Hvw64epuYx39Rqv4sFfv1nx3rNolq0/ea/DYF8cGKElbbcKrcPhtCVdz8OM155rVu+WEtjY+Z21UBHFZkkX6ikXtVl++0RE+G0X/s66bO+VFN+krV1o3Wlrv35QQP0NAxfZRKp6Pa9Hirqn7BzG6Q1C+sobseUjHegJg+vdM9Lo2nhl19XXa2dXbOi2rSV2pEequwKnhYQiPSX7LadKPF8Z8ljSiJWN2+t5Z9tHtdsfSx6tVx/nUGVUGebL/KbDzmy4UtMxNpXvS0pDQNAKzTSTRZw8axpcL6DMZq0wskbRlATWZ4S+NuFRV+Kn2sue4q4971rrc0DgiiKnV1/Wxl9GZok6EP8LB7dJJaZ8wt+Lws1XC0uV+r0nzqb5m3ZMN5kyI1utYUN8lV9IUSc30vbs2e2q0/dMyYpC1c/pikol+zzewnca7x6DK9R2xmrlfV0x+mXMdzTgXeo9BbsoV/CnHE6FEWx78ugd6ykaSNgx+1m76pXPbHRbtc1KafltRQWkMp5SX/k7u+L1v5gHK59uJcjxo+Gbkf5dLXJW1RYlfTud6S3Ulr8RR8srtLbs/HX5Kx+BegVYmEfbfgpc6Pvi0W/4D1uSueq3mZe7R95gWyQMnJZX+s2vSRkvYnjB7W3LxCtfV/kezQwGu6n0Xxc1abnhJ3xtfrhea3enxqUdNwqJlfJved6SjdYNiw3ubxvZJCeEqqJV6WPLfbf+r06Z0+Mn2k5fWMiryFjbsfpVT9A8o1/bwM7xGvqyb9qExjAqzdgIo4nz3uLYmvIXeXRPRQUS8XFp9jHj2qUvrYhish2WdN+qy83zKl0g95bH9UlP+Lcs0v91i5o0ZvqXx+tyi2A910kNy3LtXNq910jdZyC4xkDxT+ec78IHvFtZcO3PfFgpa5IDNIqzWR8IH1UiVF10o6hChQkrcfj042i2dK6kMaPT4AvNdch5bAYL+vSxdaMnGa1abviKPEDzXr6e79guGI0Zsqn/+6mR0n+Qh6R/eJqqonu7RzAFVZ7WZH6JWnVvbIT38+O99TDaeb+4+LfaDmdqvX7PKkWp/5e7n1J5emmoJcAAS66mnNnPFKUWuQa37catN3u3RsiWY4QK4vmvkX5ZFUm14oqdlMzXHsL8iil5TXK0ouf3UtnhSMNGqPTRTHG0u+lfLx9pFpe5fVSF6nznhTyVQGn1ycqz7xWt+nkt1fvtdz7gfnzb5x4uqCl9pu3xWbawPdMTr+vOZN2kvbX/I4YaDktM6Y6zXpyWb8QqjHDd7gN1q4/BUF8cr7Wl3cNnDpHIvz56gm3eSR3S/PT9eQAc2aPr2rr95FSqVHST7W3A5UHO8vsySdopvVpPdx6awwbo06T7nGnv2KbK7xbqtNH+jSEUU+3IFmyZ+4Dhsr3Zcvqz7V0Xm/qpI39cy8FCjkNcnuDqEecWd8riWjz6sEXpleC0MkfcZdnzGzNVf+hCTvJ9Wm39Ga1/SXytQhV1KSydRbrn6SqtX5H58+sH9uzujl1e9cl6q5ea2/8dCtF9rL33lo4/ZOfYLTPyxmmnj+4L2WFXbCd/nG8s5TSR/orqt7fImkTxMESlK04mp5v69JShFGD5o+vdNr0neU5GKrqd7c66VIWrh8mWrTM02aG8vnyuwtuZbKbbksTsqi/pJvoFhDImmYm4ZL2kmugaX01lPJ2XnngdaunyiM/dr+rJbszQWZTK+KT7Y+0R4q/pdG91bN389Rq64uq37V9sybqk3/VdJBnGQoYauUqPplEDV5ofmt955evrfMM//n9gyD3rem5xXV7x5Ta3Zql4bk3Vl6Rz45inM/OIt8qX+/4KUmO05TpeydARTGQZqb2ZUYUJJyuXZXfJzWcn8SrM9grPMOSatL/CgGSNrTpWNNNtlcd5j0SzP/g8l+Y+73musOM0100zFa86GGgTR+z4o6et0uaesAqrLQTccWbJo3v/ltN//Gmo3qi8vMJymVLru9tV1+I2cYSplJv9Pzjy8JZ9zV+DMz/YKWKWudHkWndvVe2K0LgB7bYNohOD/MbDt2VRFGKEcQPdDd51X0dUJAyWppnmGy7xNED2t75k0zm0oQ6Fap9LHu+moANXGP7Djlsq8XdjLd9IS5Jgdw/L3M/W7V1fUrq/7V0vSApGc50VCqYrMfBVenqPfJkhbQOmU6LTS/SrNmzOzqv+vWBUCLvD9NEZbI43sKXuiap5R2IH2g231V7rzfhtIdILfbeTK9ShI9nHOnxqn0nwJEKIY3bGuuIJ7QMtONmtX4h6KcV0P6T5TryQBSqIlWRFeXWzdz9+s52VCinlGu8S/B1er5x5e44sMYD5Rnn4u1csK6/MPu3sNjA9oipDup5l628X65wo9Lov0JH+gRW+nFSTsSA0pW24x33HU2QfSwOY0vmvxOgkA3iCzpd+nfey0V06z47eRFRSt9+vROT+hrkor+mp+bTtaIhs+VVU/r57+Q9BKnHEpvyu3jFerOcy3NM9z8HFqprCz3KHHkWnwF+YNv6t3a+d1YXQ6JeZF+E2HsUwb0lNh3IQSUtJbsVEm/J4gevlR0+gSZ3iYJrJdU+hK59g2gJqs8jo/QK0+tLGotZmUXuOzEEEb55v4jpdKblU1fa27u8EgsVKDUPKeWpt8FXcNc0/fM9AOaqjy4+Qma9XTruv777n0C0OKFNEk4zGxGkbolH4MBeuz00icJAaU/eIlPlexdkuhBLzS/5bFdQxDdNqqqvP46oqHeXJcEcc1wna3Zzc8HkUtL431m9pMAxgODzXWXyunT17Oyv5Lsj1xvUDLjmUgTVALfnY0H9/+O3P9Ci5X4SMQ0Rbmmn6/Pz+jWBcDI/U2aJaALkkfPFWlAsinpAz0k4mNLKAO55pddniGIHtax+Fq5zySI9dZu7jdU1BGPGtXfYr9XUq8AavOAWrO3BzWZ1vKTJc0NoCqfVm3DieXU9dw6z5C0SkD4Htas7K9LoqbTp3d6R+IwSX+j2UqV/TbODf3uek8lu/Vm2GnzaJhw9M1HLxanb7IXJNBzI2MfQAgoCy1Dp8jUTBA9qK1ttUfR0ZLaCWM9hjVmN8byuZV0zFFnn5skhbDn7BseRd9UaE/Y5HLvuulISR1F75/y6zSybqey6Xy5v7W5fCJXHgRuhUfxt1UCT//9e0ww4x3vjA+SlKP5Sm0goqf8ncTXpfvy631/7856ZYaMfV1s3hqKZecP3mtZwUtd84XSJPEDPaaKCFAe7st7PjpRpjxZ9ORkuvG59zYox7pZEK+2SRV1xDUNh7r8WwHUJHbXNzRrxhthnlvZrLsmBFCTfpaP7lUqVT7jg5amKyU9wOUHoXKzSzWrufQefnqh+S037S9pNq1YMrLeq+Pg7toDN+qB02EGbRTCVUnF2STZzCUtpgGAHjvJ2GoB5WP2jGaTbiaInp5Mb3uVXE8SRNdHU+5+nNpmvFMxRzx8ly3MPIjN4s3sOrVmHwo6r9bs5ZJPC6Amu0beL1NGPTH2RO8jZXpRQHieVm6bG0u29rns657sta94HbgERiFq8kTvg/Tss0u760d2+wKguf2Vlgph1KTOIpbOx2CAnhsTc36hvHp0n/hiJnk97b68x52HSVpAFl0YSpluU2vTgxV1yInkDyRtHEBd/hZr+SUlkFnsycTRCuCX3y6dr9TosWXTG59/fInLvyb2A0RYXvdkdFh3vIpZVDOfXOir4v0kPUqTBuuvHlftp+cfX9KdP7TbFwCrEon7Ja2mvYqumPvwzSF+oKdG+MYj+ygvzc0r3P0UgujpO/Mzr7n0GZneJoy1YTPi1UvOrqhDTtWfKekzAdRkuSfiI5XLlcbelTNnvOLm3w6gJpF5fI9G7lVdNn0y19ToZocyt0Qg2l12uGbOeKUsjmZ+89vevuRAM7+Hpg1sBCL9zG3FwZrzRLdv6dbtC4AXDtx7iWR/otmKbsAd3lScL7eZ8Ro40HPDe84vlJ+Wpgck/T+C6OmcszmP7Uj2XfxYb3jSvqK2tspZdKhNp0w2OYSquNuZer65tH7ZlWv6fybdFUBNtrR8+51l1TdzjX92t69JRX27CZC7naKWxsfK6qDa2lbHuaZjXH6xpJhWLrrYpYviluw3euqXYFFP/FCT30HbFZ39462V2xbn6miPET/QM5NSbXdJGzGgLAfWplMlLSWJHtba+H8ufYeB/oda5nH02bJ5wmNtDBvW26R75epb/NGrfq3Wxh+UYoxxcvVpshDegvGvKNVwRJldt37jZseIRUAU6aRy6bulem1aKy1Nl7vrILGVVzEtdLdD1JK9Qj34dekeWQAcN2jMAxJPqRR9DJXIDy9Kwdtf/JT4GjTQE3753od2gPKTy77urosIoiBZf9/NvyGpgzDep92j6CuaPaO5kg466l19paRPFn/gqlc9byeUbJAzZy73fHSkpPbiR+m3qmaXbcrrutX4M3c/WNISAYXjLjtDLdnryv5IW7MPeb5zl0A+bFRp3ew3nuw1Uq2N/9fj9/wevPGMpyGL3I2k3Yoz6jCX+y9pAaCbxfoZIaDMB593SHqCIAoxmW76uZu+LDbY/6flbvqCZs34S0UddU39Ae46I4Q7nMuO1uzGRSWd5+wZzW4aF8AkYCOzXj+VDkuU1z2i6UG3fIPkrVyy0PNzWuXd9C21NN5cMcc855nXvKXpU246UdJyOkGPe8dNJ3pL0xc188mCPH3ZYwuAa54C1O9p06Lap2glR36r2LAX6E5PacfLeLIa5S5295PEk2mFkcv+3qPoC3wYRItd8aeUy1bWHtYj96o2sx9KsuLPs+1K5RofLpPz6mpJfy1+RXwvpV46t/yuW39r80SfPZlnooctdIsOVi774wo8dlcue6fHtitPA/Zkyv4Xt3ikctmC7tsa9eQP75WPTpS0mNYtmj0yC6dtVpSSt8+8LNMPaQKgu67WPo4QUBFam2aZdC1BFMisGX/xuPOTkhor8vhNczxK7KWW5or7BUuUX327pK0CmGo2xba8nN4cir0zeYykoj/NaK6JStU3lF3nff7xJd6SPcRlh0t6iws5uvmiNM093rningj/b7MbX/CWpv3cdIikBfSL7kvWZYd7a9NByjW/XPB7f0/+8IsH7/MPk06ljYs3trOkfbF4pccT5SwAA93gz9pu3IPEgEoRty8ZH8Zm+hWi9Zm/+4r++5rr+5V14Ha/a0W9Zj1dea8T1jQc59LhAdRkubsd2VNfOyyaF5561d2OD6AmSfPoXqVSG5RlP25pvM+jaIRk93Mhx/rfErTS3S7xlqb91dr8DwJ5Ty77e0+urnGzCyS9QyDr7C13nelD+o9US+N9xapE1NMFjBs05ueSLqe9i8OlU4pW+LaZ1xX56bQCsF7elqITiAEVpa1ttZufpB78Chr+y0vTV8Wt2W+72ZEyvVnmR/uOS9/ylsbDlMu9W3FtPTK9nZnfEMQ41ewUzW58oSxzbm38jUl3BpDysMj7XlO2/XnWjDe8pfEwj7SnpIcFrNuk+Q/eaSm1Nk6WFBPIf5k5c7lyjVe5abjJbhH7B3fFW266zJOrh6o1e6OmTy/q18yjQhSSqd73Ekk/p+2LIpVZ+sh+RSt9+3H3yvlwAbDOwxH3EzTsEh67R+WZ1TTdzH5KEAWWa/yZR72Hm+m2spwEmf+fWzxSLdm7KrJ9x4xJWl73ShoQQGPcr1zj3eUcd9w3PiuED1a47CSl6g8p73tG9klvyX7Ko+ggVeqWBliXk6PJY43x1uznNafxRQL5uDFC9vW4pfE0N2373nYtywjlw25xet7dTvAV/bdSLjtRM2cG8VGVqDAHb65qP1rm7AlXlAubXyH34m3w3B5/U/xGDliXG8dF2mHcfQSBShXndVYFPI0WnucfXxLnsid7ZKPLaCL9grt/1nNNnyvGnjuhiBYuv1TSbgFUZYFb4sSyD7y5eYW7DlcAT8uY7AdKpTcr+8xnzfiLt2RHexzVr3kC094V8F/DC7n+4K4DvDWb1uzsI0TSRbns63FL9lzPV33ivS8GtxDKe31LeshNh3gu+0m1Nv5AL00P6mnJqFAFZWxsZ2bgmBMkY2PvQnM1jF/8yFeKVn4q067e8WGSsjQGsNYn7nXa/rIryQEVbXbjIpfOI4hiTaQbm7wlO9ot3luuP5TkMZhedNeZ3r5klFqb/ljR7TkivYdLF4UwQfLIj1buqcrYJ7q1aZZLlwQwHxhsrh8rgK8+F+b+MaM5bsme6KvyW7rrFMkelynPhb2CmV406VpPaAdvzX5erdmHCGU9zXlimXLZO70lO9LdDzTpp5JWVGASWZfOdYu39ZbsAcplf69At7Epyg0gs+SRo+V+k6SNOGsK5h991FFzwaAD3i5aDZ67pr/6rfyFTJ+jOYCPGKKbXajtL72KKLrpRlebXiBpywBqMsNbGnejRboenNWmH5T0qQCr9q63NA6omJYYkd7DYl0g6bMq4C+R19Gj7rpVrUPvl+5b/0l/Tf1RZnZPEY9nmbdkN1yfHxDVpK+UabtiN0zsmq7W7K2Vdh2LUunr5fpE0fOPo6s0e0ZzRd5NUrsPUtxxYBRFB7v803INDmoA2JIt/Nw8lU6bl+0r0y7pOZf9Vua/US77LEOqAhi+5wBFHV808y/LdIBcfcv0SP/mZlPVqaml9Pp40X4DlFn8+Nbyzrtk2o+zpGCtfV+mekxxv/g2LZPU1tFFcl0iqReNArzPq3I/TjuM+zNRdOOljwXA0lczegezeKakPoH1rspaAPynEemtFOurJn1d0q4B1exlk98fy36klmyue/tg6S8AAvjvhYqGbZWM6yK3Xd29TmYjJW1erOqwALjeXpPU7K5GRZZVVNWo5x9fQkcvolGj+itf9ekotoPcdICkoSU8o/i7uU+PI01XPjFds59+qSSPoqilu1tm6fQvyG28pFGcIQVocNPp46rH3Fz0iszN7CrZbTJroFUA5eV2j6qS52ibCxmodLMolf65uzYp/g3XZsctjafRIus6Sak/xdwODaxWK70le0hFt8vw+uFK6GumaH/J05J6F7D0WK6/memh2KPfqnXGDPXUKzc16f3NdD59DShzw4b1Vp+NtlRntKXMt5a0WSQbIKlKkTaUKyGpukcuaC3Zwj+oMbx+uCXslqDbxLXKTCslvSupQ+ZLY49WSvHLci1QrJe1vNfLeuWplXTg0Mdyuw6TR/tEpj3cbXdJOynMNwraJbWa9ExsNl356JFSXfD73/lIADLukRZP/5IsOl7y/SUlODt6bqHBLP7yuOr9fhtEbeZN/Jzkl8g1mqZBBWqXaarMJmm7S+cQB4CSNnRMH/VbkZbivU22l0w7Sdr6vQlzd3hNsmfNvTk2b5b1eqxi9pEDAKDcDBu9oXrnR8qjkZHiT7psmExbvTd2KMCrw/au5C9L1uJSThbPUuSztPGANk2f3lmOkQe3CezkNx7atKNX4jDJPiUpLRV/r4wytMoUf2XcoP3+L5gavZjZSZ32NZk+K9knxevBKF9LJc2Q6371iX+lrTJMXgGUr1SqSvEG2yiKt5d8+8htiMz6yn0jSf3d1VemDSWtMGm1TLFivRWbvynTW4qj1xRpvhKr2jRz5nICBQCgAgzbZbCSVVvLfCuZbx1Jm8utt8z7S+onqbdLG0pKyjRQrljS2zK5uZa+91P++WbV4tj1uuRvyKJXFesNVa16tRLHFcF/BWrym49u3tHLa5TXJmaqljSQs2H9uXuHVm9we2aL+vC+0pPLVKlPcpRiHyrzQTKrpsVQsmLvkGmx3JfIPKftx82TmRMMAAAAAAAAAAAAAAAAAAAAAAAAAAAAAAAAAAAAAAAAAAAAAAAAAAAAAAAAAAAAAAAAAAAAAAAAAAAAAAAAAAAAAAAAAAAAAAAAAAAAAAAAAAAAAAAAAAAAAAAAAAAAAAAAAAAAAAAAAAAAAAAAAAAAAAAAAAAAAAAAAAAAAAAAAAAAAAAAAAAAAAAAAAAAAAAAAAAAAAAAAAAAAAAAAAAAAAAAAAAAAAAAAAAAAAAAAAAAAAAAAAAAAAAAAAAAAAAAAAAAAAAAAAAAAAAAAAAAAAAAAAAAAAAAAAAAAAAAAAAAAAAAAAAAAAAAAAAAAAAAAAAAAAAAAAAAAAAAAAAAAAAAAAAAAAAAAAAAAAAAAAAAAAAAAAAAAAAAAAAAAAAAAAAAAAAAAAAAAAAAAAAAAAAAAAAAAAAAAAAAAAAAAAAAAAAAAAAAAAAAAAAAAAAAAAAAAAAAAAAAAAAAAAAAAAAAAAAAAAAAAAAAAAAAAAAAAAAAAAAAAAAAAAAAAAAAAAAAAAAAAAAAAAAAAAAAAAAAAAAAAAAAAAAAAAAAAAAAAAAAAAAAAAAAAAAAAAAAAAAAAAAAAAAAAAAAAAAAAAAAAAAAAAAAAAAAAAAAAAAAAAAAAAAAAAAAAAAAAAAAAAAAAAAAAAAAAAAAAAAAAAAAAAAAAAAAAAAAAAAAAAAAAAAAAAAAAAAAAAAAAAAAAAAAAAAAAAAAAAAAAAAAAAAAAAAAAAAAAAAAsK7+Pw5sKBwL82oFAAAAJXRFWHRkYXRlOmNyZWF0ZQAyMDIyLTAyLTExVDEyOjU3OjQ0KzAwOjAwYWs6vgAAACV0RVh0ZGF0ZTptb2RpZnkAMjAyMi0wMi0xMVQxMjo1Nzo0NCswMDowMBA2ggIAAAAASUVORK5CYII=;" parent="9" vertex="1">
                    <mxGeometry x="30.670000000000005" y="85.25" width="168.5" height="49.5" as="geometry"/>
                </mxCell>
                <mxCell id="89" value="" style="endArrow=classic;startArrow=classic;html=1;exitX=0.5;exitY=0;exitDx=0;exitDy=0;" parent="9" source="68" target="69" edge="1">
                    <mxGeometry width="50" height="50" relative="1" as="geometry">
                        <mxPoint x="200" y="210" as="sourcePoint"/>
                        <mxPoint x="250" y="160" as="targetPoint"/>
                    </mxGeometry>
                </mxCell>
                <mxCell id="108" value="" style="endArrow=classic;html=1;" parent="9" target="62" edge="1">
                    <mxGeometry width="50" height="50" relative="1" as="geometry">
                        <mxPoint x="220" y="310" as="sourcePoint"/>
                        <mxPoint x="460" y="282.25880342371323" as="targetPoint"/>
                        <Array as="points">
                            <mxPoint x="525" y="310"/>
                        </Array>
                    </mxGeometry>
                </mxCell>
                <mxCell id="110" value="" style="endArrow=classic;html=1;" parent="9" target="12" edge="1">
                    <mxGeometry width="50" height="50" relative="1" as="geometry">
                        <mxPoint x="392" y="310" as="sourcePoint"/>
                        <mxPoint x="430" y="260" as="targetPoint"/>
                    </mxGeometry>
                </mxCell>
                <mxCell id="115" value="Nuxt.js(SSR)" style="text;html=1;align=center;verticalAlign=middle;resizable=0;points=[];autosize=1;strokeColor=none;fillColor=none;fontSize=22;" parent="9" vertex="1">
                    <mxGeometry x="44.92000000000007" y="150" width="140" height="30" as="geometry"/>
                </mxCell>
                <mxCell id="116" value="Ruby on Rails(API)" style="text;html=1;align=center;verticalAlign=middle;resizable=0;points=[];autosize=1;strokeColor=none;fillColor=none;fontSize=22;" parent="9" vertex="1">
                    <mxGeometry x="14.920000000000073" y="325.00000000000006" width="200" height="30" as="geometry"/>
                </mxCell>
                <mxCell id="127" value="RDS" style="text;html=1;align=center;verticalAlign=middle;resizable=0;points=[];autosize=1;strokeColor=none;fillColor=none;fontSize=15;" parent="9" vertex="1">
                    <mxGeometry x="345" y="265.13" width="50" height="20" as="geometry"/>
                </mxCell>
                <mxCell id="102" value="" style="endArrow=classic;html=1;" parent="7" source="26" target="69" edge="1">
                    <mxGeometry width="50" height="50" relative="1" as="geometry">
                        <mxPoint x="300" y="110" as="sourcePoint"/>
                        <mxPoint x="350" y="60" as="targetPoint"/>
                    </mxGeometry>
                </mxCell>
                <mxCell id="99" value="" style="endArrow=classic;html=1;" parent="7" source="69" target="45" edge="1">
                    <mxGeometry width="50" height="50" relative="1" as="geometry">
                        <mxPoint x="300" y="190" as="sourcePoint"/>
                        <mxPoint x="350" y="140" as="targetPoint"/>
                    </mxGeometry>
                </mxCell>
                <mxCell id="27" value="" style="sketch=0;points=[[0,0,0],[0.25,0,0],[0.5,0,0],[0.75,0,0],[1,0,0],[0,1,0],[0.25,1,0],[0.5,1,0],[0.75,1,0],[1,1,0],[0,0.25,0],[0,0.5,0],[0,0.75,0],[1,0.25,0],[1,0.5,0],[1,0.75,0]];outlineConnect=0;fontColor=#232F3E;gradientColor=#F78E04;gradientDirection=north;fillColor=#D05C17;strokeColor=#ffffff;dashed=0;verticalLabelPosition=bottom;verticalAlign=top;align=center;html=1;fontSize=12;fontStyle=0;aspect=fixed;shape=mxgraph.aws4.resourceIcon;resIcon=mxgraph.aws4.ecr;" parent="5" vertex="1">
                    <mxGeometry x="810" y="40" width="78" height="78" as="geometry"/>
                </mxCell>
                <mxCell id="38" value="" style="sketch=0;points=[[0,0,0],[0.25,0,0],[0.5,0,0],[0.75,0,0],[1,0,0],[0,1,0],[0.25,1,0],[0.5,1,0],[0.75,1,0],[1,1,0],[0,0.25,0],[0,0.5,0],[0,0.75,0],[1,0.25,0],[1,0.5,0],[1,0.75,0]];outlineConnect=0;fontColor=#232F3E;gradientColor=#945DF2;gradientDirection=north;fillColor=#5A30B5;strokeColor=#ffffff;dashed=0;verticalLabelPosition=bottom;verticalAlign=top;align=center;html=1;fontSize=12;fontStyle=0;aspect=fixed;shape=mxgraph.aws4.resourceIcon;resIcon=mxgraph.aws4.route_53;" parent="5" vertex="1">
                    <mxGeometry x="60" y="271" width="78" height="78" as="geometry"/>
                </mxCell>
                <mxCell id="39" value="" style="sketch=0;points=[[0,0,0],[0.25,0,0],[0.5,0,0],[0.75,0,0],[1,0,0],[0,1,0],[0.25,1,0],[0.5,1,0],[0.75,1,0],[1,1,0],[0,0.25,0],[0,0.5,0],[0,0.75,0],[1,0.25,0],[1,0.5,0],[1,0.75,0]];outlineConnect=0;fontColor=#232F3E;gradientColor=#F54749;gradientDirection=north;fillColor=#C7131F;strokeColor=#ffffff;dashed=0;verticalLabelPosition=bottom;verticalAlign=top;align=center;html=1;fontSize=12;fontStyle=0;aspect=fixed;shape=mxgraph.aws4.resourceIcon;resIcon=mxgraph.aws4.certificate_manager_3;" parent="5" vertex="1">
                    <mxGeometry x="60" y="370" width="78" height="78" as="geometry"/>
                </mxCell>
                <mxCell id="67" value="" style="sketch=0;points=[[0,0,0],[0.25,0,0],[0.5,0,0],[0.75,0,0],[1,0,0],[0,1,0],[0.25,1,0],[0.5,1,0],[0.75,1,0],[1,1,0],[0,0.25,0],[0,0.5,0],[0,0.75,0],[1,0.25,0],[1,0.5,0],[1,0.75,0]];outlineConnect=0;fontColor=#232F3E;gradientColor=#F54749;gradientDirection=north;fillColor=#C7131F;strokeColor=#ffffff;dashed=0;verticalLabelPosition=bottom;verticalAlign=top;align=center;html=1;fontSize=12;fontStyle=0;aspect=fixed;shape=mxgraph.aws4.resourceIcon;resIcon=mxgraph.aws4.key_management_service;" parent="5" vertex="1">
                    <mxGeometry x="536" y="40" width="78" height="78" as="geometry"/>
                </mxCell>
                <mxCell id="46" value="Internet&#10;gateway" style="sketch=0;outlineConnect=0;fontColor=#232F3E;gradientColor=none;strokeColor=#232F3E;fillColor=#ffffff;dashed=0;verticalLabelPosition=bottom;verticalAlign=top;align=center;html=1;fontSize=12;fontStyle=0;aspect=fixed;shape=mxgraph.aws4.resourceIcon;resIcon=mxgraph.aws4.internet_gateway;" parent="5" vertex="1">
                    <mxGeometry x="220" y="319" width="60" height="60" as="geometry"/>
                </mxCell>
                <mxCell id="72" value="" style="shape=image;verticalLabelPosition=bottom;labelBackgroundColor=#ffffff;verticalAlign=top;aspect=fixed;imageAspect=0;image=data:image/png,iVBORw0KGgoAAAANSUhEUgAAAeAAAADwCAMAAADvq0eIAAADAFBMVEVHcEw+PrM/P7EAAABVKtUAAAAAAAAAAABaTuZcTuVaTOUAAAAAAAAAAAAAAAAAAAAAAAAAAAAAAAAAAAAAAAAAAAAAAAAAAAAAAAAAAAAAAAAAAAAAAAAAAAAAAAAAAAAAAAAAAAAAAAAAAAAAAABbTeUAAAAAAAAAAAAAAAAAAAAAAAAAAAAAAAAAAAAAAAAAAAAAAABcTuZaS+UAAP8AAABbTeUAAKpcTuRbT+VcTeUAAAAAAAB/f/8AAAAAAAAAAAAAAAAAAAAAAAAAAAAAAAAAAAAAAAAAAAAAAAAAAAAAAABcT+VFRegAAAAAAABcTuYAAAAAAABcR+EAAAAAAAAAAAAAAAAAAAAAAAAAAAA+PrIAAABJSdsAAABbTOUAAAAAAAAAAAAAAAAAAAAAAABbTuYAAABdTOVbTuZcTeVdTuQAAABcTeY/P7MAAAAAAABaS+FcTuYAAABLS+FbSeNcTuVcTOVcTeYAAABQQ+UAAAA/P98AAABcTeZcTeYAAAAAAAAAAABcTuUAAABbTuVcTuYAAAAAAABaSucAAAAAAAAAAAAAAAAAAABbTucAAABAQLIzM5kAAABcTeYAAAAAAAAAAAAAAAAAAAAAAABBQbNcTeU/P7EAAAAAAAAAAAA4OKpXSuVbTedcTudAQLJBQa8AAABcTuZcTuYAAABcTuZaS+NdSec+PrFRRehAQLI9PbNbTOY/P7EAAAAAAABbTeVbSedAQLNYS+ZdTOQ1Na8/P7JYSeVcTuZaTuVYS+VcTec7O7MAAAAAAAA+PrJcTOY9PbJaS+YAAABbSeQ/P7NcTOdYT+VXS+NbTuY4OLQ8PLA/P7I/P7I/P7I/P7IAAABdUec+PrAAAAA/P6o/P7M+PrI+PrMAAAA+PrNcTuY7O7MAAAA/P7MAAAA/P7E/P68/P7JAQLM/P7RBQbJcTuc/P7BERLFbTeZcTuVaUOZFRa5AQLNZTOY/P7JCQrA/P7I7O7FAQLRdTeZJSbZcS+ZbTeZcTuUAAABAQLL/k7UPAAAA/XRSTlMASkHvBt3Ud9+kfyfBOhBbHIno+Kd/KGVOkVDWAo/iuar+A1X9/oYJMyG7AZ8tvQ6ZE2+RAV6AA16i9ATLAiT2ovSH7G+D8lZE5rRBiAsLWPyUxhnaY/t8Zyma/jYOckNHGEXkFTz4ME2qzVVqs/ecwCL5zhEt7JlmtxMGCMTud6WxbNiV4uhheh8SBysWSeXq7wXRxcmLgB5mUV7CgPANdAkm8NuiI6/e8unVNjRvFrOZtTSpTLgqqz1KE+IxvLs6+h6BXPm/kUdAONXJHUDRGyqI0NrArik91xjfd8Wt6ccvjU14VRDM++Zm0kQabdMzFrso8jq4DUdjDnqOtm4r4gAADbZJREFUeNrsnXlcFdcVxyfBB6ayiKCieewPeIAIuLMoEFAQEEVF1ioCxqi4RNsoolFcqnE37iYxJnVp3KpJbNOapmnUGpO0NU2aZmnTNkmbdPv0036693PflOG9d+fOPvMWmBnP7w993Jl377zznblz55x7z1AUCAQCgUAgEAgEAoFAIBAIBAKBQCAQCAQCgUAgEAgEAoFAIBAIBAKBQCAQCAQCgUAgEAgEAoFAoF7WRDCBufW/1WvBCGbWl9Cjo8aDGcwMGKHzr4MdTA0YoaUPgyVMDRitHP1lsIWZASO0dw0MqE0NGKHFr4I5TA0YJS16DAxiZsAI5Y5bByYxM2CEtk4Am5gaMEI//CpYxdSAUVLON8EuZgaM0KMb+oFlzAwYoc3fBdOYGjBC3/82GMfUgNEPwHtpbsAIPQKBRHMDRmjxd8BCpgaM0FLwXpobMMqtnAZWMjNghPZOGAN2MjNghN56AwxlasAoKWcWmMrMgJlAIngvTQ0YoVNLwFqmBozQKxBINDdg9GAlTMwzNWCE4EYMgEGGB+z/ftoKYPoS8EE/u7bOXL4HwPQl4P5+dW3999ZNGgD3MWD/Tcyz/uH3NA2A+xywv1xb739O0wBYF4D94dp67aVGGgDrBrCvXVvPPLWMpgGwngCjGb7L8DHmiZdpGgDrDDDyWYaP3/yMpgGwDgEjtNkHGT4+PN1IA2CdAvY+w0e/X+ynaQCsX8BeZvj49F2aBsC6BuxNho+3/0bTAFj3gD3N8HHtyhc0ADYEYE8yfIy/tJ+mAbBBAGvP8PHvN2kaABsIsLYMH2cu0zQANhhg9Rk+/nXrJg2ADQhYXSDRGRQEwEYErCbDxz8+p2kAbFjAShk+cFAQABsVsFyGDyIoCICNC1gywwcZFATABgYsnuGDGxQEwL2g/yT5C7Aww8dfTzfSALi39fNv+Q0wN5AoDAoC4N7RQ9/wG2CUW+m+Fd/zLk0D4L5Rv1HP+QswQqfmMV+59hJNmxawNaPseOLxioWpebo9xFmrk/wFGN3HfOVe2qyA8xLLAxwuReRnHUvX6XFePAiAPdGeGAdH+3R7pGOWbNUnYHuIKqX2idWOxHP5Ombq+GScNu5BPQLmXSJSiu4Lkw0VHMZGXfc3P8oBwFq0u0BwGJN1fkv58U8AsHpNFh7GWL0PGiZO+BoAViuRQ1ug/3HhVypXAmBVOsq2bgs+HD5sY9o5x0AjDP2ffR4Aq1EibjzA7irKTqcMoXnnAbCySnDjtYbzXj4+6usAWEmDceMVBnRQrx09Qx+ABw8jVYiNWswpHza89030CT6WDEPGIL73pA5dlQOwUQP73EDR+FgmUcbUQ/0BsKkBU+s25AJgMwOmqFk5SQDYzIAp6sKvDQJ4YGnyiI60tLTyLSdbsrmbUkKdqsL71t5g/st0lbsj9daKwlD3LlVNN+ZGb4zrrjBuxJZNIVVygO2hbpHbMyvmVpenMRWE19l5kwE6XftnugvaSkqY/552Fqewe6aW1lZ3zbQcWs4ZqudlbLu+vDx//XtB3p9cYwjvpW4BZ85dRT402VZMTyC2BnGDeQu6bI5q5oOF40FO2WRxDojTd7VHzrZxH8Ns+UHzcX2xUg9rU9kD2hTMqWFKXBSZYjXMVRzj/HNh5BzHWeZDsLN4hbN4UlBsMVtFmttNZg+fyYY54rMyvUbMBhJ1Crgz6ITA1oEhQsDFzB+31zMfu0jATAwoJWgf83GPeBChZ8LG5DwlwAdcO+zcPkW4cfZwIWAbc63aO5iwcj4BeE53V3B0ciCvglYm6F1/2MIrPpTifT/98CI9A24LFjP2nG0CwI4dVEaH89MqEnAcZa1pdX481l08VopfcKgCYNeVVx8ovjkykw+4u8dIjYxnr373Lym1d1/TAh2yVpTHC4sLfeK9/KNuAc//QNyc8WMFgFuybOTcGjfgA/YDZEC3SdJfNjNPHvDHzi40QGp7/g4+4LBwN0hbJwFYogaL+A+1+4Lw+DWP6BNwQrCUOQuG8AEXsUZJIQDPicDlI5iRTrwk4e3ygBt6Trip0h7VWCsPMHtEjqMEYG1a7qNA4ugZegRcImNOPmBCkwjAhNLk/d8BmbKAH2CGaCPlWJzkASYU4jHgqb4KYl0crz/AO/fJ/PKF0oBviwOeLQvQ4aiR3c7gq5BlMaVKEnCpx4Advp1yqC/A09mfWZx8OzU1tWUY+wxxWBrwDXHABa4n3KL8wvCgutLmsrLE7R1sD+54safTyGKE79uO5CCXmBPqRaK2mMLPjrXXRpJ9dp0k4LmeA95jYsDs1RTsHsHswhd1a7oE4IDBmaKA868y+2c0p3I6vdSZ3CvcqXBcSM7jaGPPhuJS18N4Zzt7zq2SAFwUni0GOGDFlupVgp1tH5z9pIE4+qE+BfykvwEve0E94AQ8SjnHuq+28UzPBzyoxNlR8gGPlJpStQM/1sZnKgA+zrIZwJYOx+O2+FAxwAFBT1MUH7AttmQXc6JZG7idTGRYW49jJphz8ftOChPzvAXceOVDSj3gXbjgCOGaxDyaRQAXTHZ7FLmAA6OkxypsHHqIAuBkcauX4+IWIeA50btduxGAp7Kus6PkUdbgUyzKb1NK1MyR9xTwL1+Qa1kAeLrohEbcpZYIAReyLkcScPFYubc1sTU0KQDuwJfqDrKCUrxzkABwOTtGwoCLSgj/lBU7PVpLiaPMwDUM9nkI4tlF/gH80W/l38kkANwuauX3uBPRCcCBpM/eQnh0s2XbZdcwlCkAzhe5WzO3ce7AjwAcc5XYDQO+n/NtfF+PJEuH+BEwRc37i+8BL3vqGYVWBYC34wKSUCR3qhYLuIHjt8WAC1oU2mW9l1cVAFvElylVcb0SLOA4TqxAR4Cdri1fAm48fUexUQHgZFHAG7k+HhYwd+oWhjGIUg04SgHwIDxi41SQwH3QCpMYAOsC8AXCteVDwO+8r6JtGcABhCJIz6POAMfpHnB/NiGligwfKgH/6glVb6SUASwqAOyRo4NISKmY4UMV4GU//Z26tnsNcFVi+Mh8yyB3l1B0dwEmE1IqZfhQA/jyGbVt9xLg0IYiqRrvEsBkQkr5DB/KgN/8k/q2ewdwhsxyirsGMJmQUi7DhxLg/Zcep3QGeKBMQPduAkwkpJTJ8CEP+Itb1zS13SuAlzsAsCAhpaT3UhbwP9/W2LYM4CkBItriAeDdEQBYLCGlRIYPGcAffaq5bRnAA9R4ktUAJufc2aZaenTurgWM0FL8Oh3RDB+SgP9+yYNXTPcG4C1sBz8pTzCtQAlwK2+GpUud3EQ8RgKMciunyQQSJQA3XvmzJ20LALPsdvkK8ArcBOt7UQ84kBvZx/MA8M7VhgOM0N4J7hiQMMOHOGD5oKAGwHVq8p9oA7yKM0dSK+D1eExArq2gFuCdrxsQMEJvvYEDic8rA35ZISioATAbZ233FWCLSNIr9YALObMksY5wMy0ZDjBKypmFA4nn5QErBwU1AK5np2T5CvBskbQQ6gFvwqUdxASRNnaUVm9MwMyb7dyDJk6GDwHg06950bYAsPWEZBIy68KFHgHGIfuzuCi9VjVgYllENF5SuBt33I4TVqMCRujUEvcuRIYPHuB37vWqbblZlbZqdiA9v7m2qxhnjtQGGE+fKqh3eabrAtU/B1uJeUCB7fXdV/HOkGRijWAWZVzACL2CA4k4wwcHsMqgoBbANaQXIiY2Li4uNtgSwZ01ow3wddZ3knXyWG3DoQgtjg7qM+66oQDeOsMMQwNGM1av5QUSCcA31QYFtQCuGiTtdYoP9QRws8MbTxbVdkLu667VNIYFjNCj2Hu5bsNzHMDqg4JaAHMvYZ5aPAGcEOMVYJEkw8T09gGGB4zQ5tdxIDEnCQPWEhTUBDj9Y4fCYkCtwYbB3gGmRkh3KWGUCQCTr9O5cNAJWFtQUBNgKkV6rViXR4BTLN4BziuU+G4EXpNucMBoJQ4kjr/I/Hvnjo/aFl3h3xltk7DobI8AU/Zi/lqgES0aAHffNkQXcAeyC7WNDhihvWsmUn6QRBIWe5cI4tasPTs9A0xlHODcOAsz2DXDqgBT2eH8c8Rx/1Ai047xASO0+FU/AM5+wK0S7ob5dWfZeRjxreurw4g1s03u5Z28pEN17uJN/HYSata7TpmYyG0968KOC2rISHRLLAtKyp7qfMwlIO2InbPwqT6IXHFKgHcX13CK57qLozjGwJWE9AVglLToMapXlT0kpDkxsaxpyE5f1LY7JCqxuWmgN1VYBy4o65Y9mzKU1K8Pzh23jgIZTloWgG+dMAYMZmbACFWCwcwN+D4wGAAGAWAQAAYBYBAABgFgAAyAATAIAIMAMAgAgwAwCAADYAAMgEEAGASAQQAYBIBBABgAA2AADIABMOj/7d2xaUJhFIbhxsJFXEAERXAKB0irWAkhiggukdLOSrC2c4TEFewFEWwt5MJt9CpYpMnH84zwv9354RyBEZg/dFoJnK26kFLgMI8LKQWOc7+QUuA8dwspBU40e+eyncD/2W4pcLhBXeBs80VX4GzFQkqBo20OAmdrPTmnI3CUl5ftBE4xHgoc7uMocLb29EvgbJ/V6aXAWS5bgcOV53QEjlVrrgXO1p80BM52/hY4W2tUFzhbOb0UONdP8ZEocLLfvcDZep2rRwhP7AkAAAAAAAAAAAAAAAAAAACAQDddnvwQJOQj9gAAAABJRU5ErkJggg==;" parent="5" vertex="1">
                    <mxGeometry x="250" y="21.5" width="230" height="115" as="geometry"/>
                </mxCell>
                <mxCell id="84" value="" style="endArrow=classic;html=1;" parent="5" target="46" edge="1">
                    <mxGeometry width="50" height="50" relative="1" as="geometry">
                        <mxPoint x="150" y="350" as="sourcePoint"/>
                        <mxPoint x="200" y="300" as="targetPoint"/>
                    </mxGeometry>
                </mxCell>
                <mxCell id="85" value="" style="endArrow=classic;html=1;" parent="5" source="46" target="26" edge="1">
                    <mxGeometry width="50" height="50" relative="1" as="geometry">
                        <mxPoint x="270" y="300" as="sourcePoint"/>
                        <mxPoint x="320" y="260" as="targetPoint"/>
                    </mxGeometry>
                </mxCell>
                <mxCell id="92" value="" style="endArrow=classic;html=1;exitX=0.5;exitY=1;exitDx=0;exitDy=0;exitPerimeter=0;" parent="5" source="27" target="68" edge="1">
                    <mxGeometry width="50" height="50" relative="1" as="geometry">
                        <mxPoint x="840" y="320" as="sourcePoint"/>
                        <mxPoint x="890" y="270" as="targetPoint"/>
                        <Array as="points">
                            <mxPoint x="849" y="440"/>
                            <mxPoint x="760" y="440"/>
                        </Array>
                    </mxGeometry>
                </mxCell>
                <mxCell id="93" value="" style="endArrow=classic;html=1;entryX=1;entryY=0.5;entryDx=0;entryDy=0;" parent="5" target="69" edge="1">
                    <mxGeometry width="50" height="50" relative="1" as="geometry">
                        <mxPoint x="850" y="290" as="sourcePoint"/>
                        <mxPoint x="900" y="240" as="targetPoint"/>
                    </mxGeometry>
                </mxCell>
                <mxCell id="105" value="SSM&lt;br style=&quot;font-size: 15px;&quot;&gt;Parameter Store" style="text;html=1;align=center;verticalAlign=middle;resizable=0;points=[];autosize=1;strokeColor=none;fillColor=none;fontSize=15;" parent="5" vertex="1">
                    <mxGeometry x="620" y="78" width="120" height="40" as="geometry"/>
                </mxCell>
                <mxCell id="107" value="S3&lt;br style=&quot;font-size: 15px;&quot;&gt;" style="text;html=1;align=center;verticalAlign=middle;resizable=0;points=[];autosize=1;strokeColor=none;fillColor=none;fontSize=15;" parent="5" vertex="1">
                    <mxGeometry x="1030" y="450" width="30" height="20" as="geometry"/>
                </mxCell>
                <mxCell id="112" value="ECR&lt;br style=&quot;font-size: 15px;&quot;&gt;" style="text;html=1;align=center;verticalAlign=middle;resizable=0;points=[];autosize=1;strokeColor=none;fillColor=none;fontSize=15;" parent="5" vertex="1">
                    <mxGeometry x="883" y="98" width="50" height="20" as="geometry"/>
                </mxCell>
                <mxCell id="113" value="Route53" style="text;html=1;align=center;verticalAlign=middle;resizable=0;points=[];autosize=1;strokeColor=none;fillColor=none;fontSize=15;" parent="5" vertex="1">
                    <mxGeometry x="63" y="350" width="70" height="20" as="geometry"/>
                </mxCell>
                <mxCell id="114" value="ACM" style="text;html=1;align=center;verticalAlign=middle;resizable=0;points=[];autosize=1;strokeColor=none;fillColor=none;fontSize=15;" parent="5" vertex="1">
                    <mxGeometry x="73" y="450" width="50" height="20" as="geometry"/>
                </mxCell>
                <mxCell id="62" value="" style="sketch=0;points=[[0,0,0],[0.25,0,0],[0.5,0,0],[0.75,0,0],[1,0,0],[0,1,0],[0.25,1,0],[0.5,1,0],[0.75,1,0],[1,1,0],[0,0.25,0],[0,0.5,0],[0,0.75,0],[1,0.25,0],[1,0.5,0],[1,0.75,0]];outlineConnect=0;fontColor=#232F3E;gradientColor=#60A337;gradientDirection=north;fillColor=#277116;strokeColor=#ffffff;dashed=0;verticalLabelPosition=bottom;verticalAlign=top;align=center;html=1;fontSize=12;fontStyle=0;aspect=fixed;shape=mxgraph.aws4.resourceIcon;resIcon=mxgraph.aws4.s3;" parent="5" vertex="1">
                    <mxGeometry x="1026" y="360" width="78" height="78" as="geometry"/>
                </mxCell>
                <mxCell id="28" value="" style="shape=image;verticalLabelPosition=bottom;labelBackgroundColor=#ffffff;verticalAlign=top;aspect=fixed;imageAspect=0;image=data:image/png,iVBORw0KGgoAAAANSUhEUgAAAMgAAADICAMAAACahl6sAAAABGdBTUEAALGPC/xhBQAAACBjSFJNAAB6JgAAgIQAAPoAAACA6AAAdTAAAOpgAAA6mAAAF3CculE8AAACBFBMVEUAAAAIIj8QRH8QRH8giP8giP8giP8giP8giP8giP8giP8giP8QRH8QRH8QRH8YZr8giP8giP8giP8QRH8QRH8YZr8giP8giP8giP8QRH8IIj8QRH8giP8giP8YZr8IIj8YZr8QRH8giP8giP8YZr8IIj8giP8QRH8YZr8YZr8YZr8QRH8QRH8QRH8giP8giP8giP8IIj8giP8giP8QRH8QRH8YZr8IIj8QRH8YZr8YZr8YZr8QRH8YZr8YZr8QRH8IIj8YZr8QRH8IIj8giP8YZr8IIj8YZr8YZr8QRH8giP8QRH8QRH8IIj8giP8YZr8QRH8QRH8QRH8QRH8QRH8QRH8YZr8YZr8YZr8YZr8QRH8QRH8eLj88XH88XH88XH88XH88XH88XH88XH88XH95uP95uP95uP95uP95uP8eLj88XH9air95uP95uP8eLj88XH95uP95uP9air8eLj8eLj95uP95uP9air8eLj9air9air8eLj95uP88XH95uP95uP95uP88XH88XH88XH88XH9air95uP95uP95uP88XH9air95uP88XH9air9air88XH8eLj9air95uP88XH9air88XH88XH88XH9air95uP9air95uP9air88XH9air88XH9air8QRH95uP88XH88XH95uP8eLj9air8giP95uP////8/fWunAAAAqXRSTlMADDtrk7PT3+vbv5t3SxSDx/ufVzOP4/evUwRby+d/GF9H1+97CKs/U5OXf19jl7fPI/OnKE9HJy+LZzscY28rEHc3FMNzHFuHQ7skICCjS28sQCcYMFc/a5tnNAwsQFdfTyAob6/f+8+XFBx727sIL6PnfxAYn+9rBF9vJ9c3v/P3SxQ0W4/Tw8skg7c/k1crHDuzRz8nGFOL43enW39na4dzq0NjmyNLrzsRdwAAAAFiS0dEq8kBZygAAAAHdElNRQfkDBAADwkqrO3BAAAPdklEQVR42u1d60MTxxbfYHkXIWAIBJBHAKVGSQNUqBVToIqgiFRtrVRR64Va66PWqm1VqPVtq632Ze3b9t7NX3mXkHnuPNfZbD709y27s2fmtztz5sw5ZyaWJUGoaNULxSWl9jLKyisqX6xaLXukAFFUXRO2XSitrQsF3TIdrInU2zxEGxpjQbdPDbGmZluMlrWtQTdSgUZbuS1HNFLoVNo7FGgsI97ZFXRbBWjtVqSxjI51QTeXi/VxDR4Oegrzo3S9xOhANbUbViUSiY0bNvUyFFny5aAbzUArratSfYl+osTqgR5aEcRfCbrZLmwmX3i4e4DZbwaHyshyrwbdcApbiPZFI69xS3ZtJT/LcNBNJ3mk8LfcI54kYltbCpXJZvx71GyTlk/3FCaTVmx8hF9XsqTW4UNqfdAEcujC9FXLiOJDo72YfhsMmsIKsPkjqW5CxbDuVZoOmsMy1qMGjWktNt5AD3YHTcLB9rhHHpY1jJjsCJqGZSE7Mam9+BuHz5aNBs2jHY1zYny0dtbE7ZaGJrEO64NPVwbMIwbXH2FCXw2DGbJ8p+jxUAlkErDmaoMNeR2/HMFmiVpRr9kWBcUmAuURg3ZTDd6HMH203P/bBBJQUdUZyBc0wY6F2yWtUZtExST/VcDO1RAkETin9+BXq20a0U7uoF8H38Wu4HisgQ0lNFbSdqOD23OKQZHx4IjAMR0hLjNcjA5eSkveRn1wRIAJGybXUaBlzSSjFo6VOwYKFAXFo4hjKoHLicEa8qMU72aJqWN/1zwCDuoBDhErNpwimKSGGYO+C06eQREB7ztF+RkQEcembCA/SvMat5wpcDMgvRUCQ6CPuoETccx8yr8y5LItG8G9pmCIFJEN5hFxVujkoC/dQ5VPBzxIVoH6+6kbLoIjJQQTu5taSIKJpyIYIi/kqo/TN9xfKvY6abWUbSEeqAQKOhgiYEqukROxrN0TpPoifEbT4HIwcTnQX2pViFjWDsIZ2Yzr4SpwdVJWpy8ozdW+QY2Ila7FmTRid/aCizOBEAG1r1Ik4li6WDwLtwZ2gYvtgRJJKN+wuqqhJsYHdoz/RIESsaw3oSZWfaIwiYTGwScJFx6RjepE9gAFYdsl2OV9LA2QPwB1qqq1SAMSN0cmg9Va5bnaN6kRIU16wlsxA67uD4RIRa72XiUiI2SwlPBWbARXg0kfAhaSa63NIEJbwGPEEmYodzUVCA/rRd57dBM5QEQNbbuSNKqAHZYMhgi0kKiVrovI7l6SBu0PjoHBMxUMkdXM/u4iEuskTfhoNR2Bhyu06WCIQKuRdhoQRIqofKGKN11yoBMjGKWFRjsdEsCIjNaSNMpYoSmgx+NKtfoA6JAa4hFpIxM27Mo0Q8wIuNunUqkfCIHOX0b2etCw8TGSRgnblQg/WkBOFAfQ5NjKJEIiykklgEGIaHAJqI1QoRJtZKaY9u7mCIGe8MB6lqNZW5ifZMpNo56bpoGiQjvlFfqGtaARLWnsajtNIxxJc0XAEVIiq8xPoNdJTIqk64fp7wWAASu7LUgiWPgWzxltxU2r+LAg1h6CK63yYPOzW2ECRz0ehd6Nom/d20XP1xbIB7GsTqSW8FcaG15RXWNiB89W1P0C5mF1IVOKsh331yWq9okffgstUgKNsmeBRqv9huaja1K8lxAIehATvezENUgllBfCrpIuLKyuEyp/C32P8BqN5/zDy1hKfJ/yq92KLeLfDppCDq9gbSqRJ8suI4SvUw4GTQDiVaxV0TcUZrZ1pdgTvQW0VQnLTnQ+imxjSCuxbNTNhMwjE7tBNHhbI9HC5UEzscfqOJtcRmpJn0pvgfGwrPVksoadmmpMU0ViRdXlZCH7YAGND4DBUptGsnK6au8up637Jmc2Dk2k6PvhQtG7JNI6W8Wy8zl7KO1rHCruyLpf6pv7Onc+T9/zKmpHmQ6PHpbc/moqS8KOTmxMe2LxPKJGK1VZ2M0se3dgjFk2Wqk2zZoUNThhq6C8jfFse5L/wJReLoEJUSMNYVuCkjaGstpeLHxGkKjqm6hd4/UiMX1Mv88B6W5M5V2LBkVZRZFypoR4XxNTdeDbYrhI7VGp2qCo3HdpIvtpKjk1zYsbhHoVKnfmHYWVm0FRENA2XNs4s18U5wzRGibZtyGRSKwab6BCdvI1qEFRDCLviMvFKvAKwr1NmGepv7NDp3qDolhEJPn7uK84XOtSjjvxxoX35EsUi0g0LSqGG86MwJyDA5gWTL2cH1FMIsKvOIimHe4IHMUmhmQsH6I4RFr4W/BjSLel3uLLwrZyrM2DKB4Rge/ubVgmLtxmhXpNdNJ/UVwicZ4rOw1n4egWsTT0Ivt8F8UnYk9wuiMMFcnd8ahzb/NblICIXc0s0gWnKXn6xihUOJU+ixISYWsuGKqPK2wNPQC7TtpfUWIiTCYTQprWcqClt6MbxOfhdLbRX1ESIgyXyShQ/Dz9HMpWCI642AlHnLukQVFSInaS1oqwO7BHEDQBo7lNXMBYYuQWGBQlJ2KHXyI3XGwCN9j6HJmy0ysXYKDPvTYzKEqBiPMCpnDPMJiK2TF2zCTPZbL2g9+drsIGRSkRcVDWN90+uSsL0K8jksrtutw1oGLdRxIYFMUlUhGxJYB5QXtnVrMqrwcDuEEmSV+UQjwZEsEmXTYOrTyQ3cKUC3rhlaegD2zclkFblMKGVETE2iN2bKzs25tccQ5nAw1E5ch0WmXLoC9Ki4jE1USWd6rnVG4lpET0RekRIddm7NrhknpsH6dyZSI6onSJWF3DXCorwxL5nKOcyhWI6IvSJuJYO40cd+rKTsZNjDtk5dYGKRFtUQq5rS4iDkJ1m5JuMlXZe9tbZJVj54/woC2qwxuR7Ifpn2lKZAEqyc2um1sklcP5uzlBw7OoYu9EEEC0DpigVPWuykfBnSE/RXkgAmZXaIIS1bsqR6d+NPopygMRuLcV7tDAqndXbkEH9T4/RXkgAk1QZPDA6hmVTwI1UeKrKA9EYH4/ltuZq75lM18gc/FkUJQHIp3u92htXt6N1cGo/E2ot/v9FeWByGtQIJ47cKjuEKswdBiM+SzKAxEUB0hJXWXI0zngtygPRJADvUPiBUApqUnfRXkggq2HxQlP21AmS7v/ojwQaVU7jG8LKlacB1EeiGCHptkd3M7dhqzx+PZ8iPJABHcopNh5T6N4aPBAfkR5IBLCg63N7oTIrmF8wd+TJ1EeiFCGanOC6N+T1cRdSUqqQVEeiFgjZG5ddKKzqt9Zsr52qClCpVxJUzkNivJAxBpxL+iYUKjcoCgPRKzNSgfnT6l0BoOiPBCxQnJnqGoejEFRHog4+l2SZZVUPyTUoCgPRKzWWkHqXfxtnb5gUJQHIo7ZN8Wpv2xtWrNug6I8EHHUZGe5u0NPNHn5EwaDojwQcdA/3YByusPJTXXezzQ2JcobkWWE9s7UJRIDMwaOCTQhyjuRAsO/RAoN/xIpNPxLpNBQEPPI7LuHj8zNHT18LO9EDM7sx9878Z8MwPzC+0dO5o0I20Cq82IgfXDqwwyN+dNHzngQBU5tVT5ZmWuytmibrGfPzWeY+Oj8x9pEwEliYTX73+Ai4sInHBrLuHjpsiYRmNS2V6W0wWXdpxczQiyc1SOyH7ThHXlZgwvt2RMZGeY/0yISA15Web6zQdfH51ekPByc0+peIC6UkmkdVWdUhdwZdfUjFR6ZzLVZDSIw30wSy+a4B3d5cA9eXSSau3T61BfHr1vWsS9v3LxFMrmtwQSeZSaeSQw6bD8nvsedOaKxd+8Rd+9r9C6Y1yTSOAZd6LP4+Ljzlev+mc9wffa1OhG4v0GU72wwqIHpq8VLzBInz2FMHigTgfmwNn9jlsEw06eojVcecgstoanxG2Um8G3XpzklDAb+LqB+IxrJ36Jij5SJDMLqeXOJaih2UB6K/URRI51Fmu2xMhM0ANjzssHg+FloX12RaNbvYMkFZSKTsHOHmefpGUxXgMN48aFM1GfwkxxVZoKSsFlM2AkkHIgTSD6Ar/mSXNQ12AmViWCbA8NbXXdZKT1ciFN6TsH5Q0HU95D1cWUmWMKE+7+Ny8Edpf9vFiZZwfXgVyqioGK4p0zE2oHNZknyBJF+nQ8iTns7rvNBHHMFfJJb6kSIfxoj9/S4ExHFECQivgeIzKmJug/K/6DB5CDGxI5GUA93pYZKIEgNBdbJkqJRewMQ+VGDSIxKoB4bznGhk3VlECTrAr/PaUVRJwGRnzSIkH+QmEVZceRFV/q0gzOP5x4THpsLR+beRb9Y6dPXvzx8+DB8wadUm7SgbaZk8arwsJQqUOzqE0f0k6vouZ+XTbxHsLu4E9ovwM6+gi9UW/QUmAF6RKyiUgERMGpyZt/FC+CpX6i35tpiMEuv0JXnhV+BCaxJhPpnGxJgW9c9WrmDyQH0Ltemj58pHpnrqu2ZA0/oEnE+CvdAH1DiNDViL9M61UXkEU1EuTXPQcSKtZWLiQAdegJcANPWkcIi4mCglzXqQfjgt5zs36hPtAQGjWurmqtrKYcPfn8+Io7BOzxB/zkq2DxoXb69YpJC/0ZuDfQz+O3aPOga7F+qtuOP3ANPvBJx0LXuz9qxUowO3M45e3Mxs3gTm5zPnp7PfPgL/Onezkmr3xuqjQDdWM02k0C4wZYF1gbb63ePHTv2MRhNN1VFAR/XXyaIiLc8uyHY8gwmalVrFlrLyqaACJJN6C4INqG/Dxp2V00UXIc9M0FEdiwADcGxAEdAwxRXSkBJqFrLYkgPaiCxE/BmWMsnwSD5SClK+AzwVrWWJZAenUFAeHQGsAoySkEc6H342wwRuFJ6/sNMoCF/USEI/QAUXtIPjTJh8HiZMzBmcE4q6uQTUPYfMzyMHvhzHk6Kn8pEIQvtoSkiBo9g+hg6p5e+FYu6B3k8NcXD6KFYl2D7Lp4ViUIO0yXFSUcFBo8pu7wAW7j4HV8U+h6Z8+Z4GD04Dvnj+ZH0k9gKZkE3BUIMg0f5oU6TyVz7nlXiwRNUYvG/RnkYPVwRjxDOf+IaAc+u4ff/Z5iHyeMuL+Mtzczfv4FNjsdPkYswvTQOJRg8gHT2NrViXHj669zc3O9/nKAzInzgYfRI2FlqxciBZlqNMgwe0nv5awUei8bHB4TBY5MfXJTxWDCtr3DIDrJeq55C980jIY2l82bnDxdER4v36Z1S/niBz+OpQbuEB4Pnxh+9zf4a/zz0n8YyDJ7kf/zeLZrF6b8NraOUkP1DhOzQr2/ufr7/Vvjhx58eXckO/Sd3/jr1jO1n+D/jRdk2SJmh+QAAAAh0RVh0Y29tbWVudAAPuvTpAAAAJXRFWHRkYXRlOmNyZWF0ZQAyMDIwLTEyLTE1VDE1OjE1OjA5KzA5OjAwr6cBqAAAACV0RVh0ZGF0ZTptb2RpZnkAMjAyMC0xMi0xNVQxNToxNTowOSswOTowMN76uRQAAAAASUVORK5CYII=;" parent="1" vertex="1">
                    <mxGeometry x="870" y="48.32" width="82.5" height="82.5" as="geometry"/>
                </mxCell>
                <mxCell id="35" value="" style="shape=image;verticalLabelPosition=bottom;labelBackgroundColor=#ffffff;verticalAlign=top;aspect=fixed;imageAspect=0;image=data:image/png,iVBORw0KGgoAAAANSUhEUgAAAQAAAAEACAYAAABccqhmAAAAAXNSR0IArs4c6QAAIABJREFUeF7tfWuwXcV15rd6HyGwy0yFgYqxMcPwGAYwCo8IAkmIMGBdgV6GEQl2wTAFP+CHlangqeAaDBWZKdlVKDWRKyX/sKYmpBB2VAJ8L+bcI4QtC8wz4hXZWEY8grExIUCN6t5zr3T27jW1rvchR1fn3N37de7e3b2rVFLp9O7dvXqtr9davdZqgn9qTYE1a9YEBw4cOJaZT2Tm32Hm4+UPgOOI6FQAR/dMUP49+/96578fwD4A8nf32c/M8n/vEdE78kcp9V6n03mt2Wz2tqs1HV0dPLk68brNe9myZQtFsBuNxn/SWp9HRKcDkD9nzRLyYU5NAOCnAPYy814ieiGKIvn7nWazeWCYA/HfykYBDwDZ6FbqW/Gu/rthGIqgXwDgjwGcN4+Cnna+AgzPM/MTAJ5RSr0wMTHx7s6dO8O0Hfn25VLAA0C59DXqXQR+amrq0yLozHw5EV3EzCcBWGjUQfUbHSCiN5n5KQCPEdGuiYmJX3tAmP+F8wAwT2vw+c9//uONRuOzAEaIaBkA+ffH52k4w/7sJIA9zNwEMB6G4Z7t27fL//lnyBTwADBEgovQB0FwjlLqCwBE6E+xaJfPSknRDvbFYPBgp9N5yYNBVlKmf88DQHqapXpDnHda67Majca1AFZ4oZ+TfAfEmQjgAa31g0S01zsTU7Fb6sYeAFKTzOyFZcuWHaeUWgngBgDnO6TemxEouZU4EsVncL/W+pFms/le8iu+RVoKeABIS7E52vfs9l8EIGr+iQAaBX7Cxa4iAK8z8/e01lu9VlAsC3gAKICesUPvfCKS3V52/eMK6NZ3cTgFRAt4IIqizUT0sjcP8rOIB4AcNFy2bNnRSqklAG4CIH/3Rt3l6Nm/mkCBD5j5USL6e6314z4iMTu/eADIQDsv+BmIVs4r4idoRVG0kYie8xpBeiJ7AEhBM7HxG43GIq217PhXV1DVl/Db3zDzO3Hs/j4iEiE5oLWeieMnojlDdJl5JuRYKSX5BPLvo5lZ8gckt0D+75MVPLr0pkEKPu5t6gHAgHBxpN7JRHQ9M9/IzJ8xeK2sJjNCHiftvCJOMQmqUUq9sn///vfLjq7rJh9prc9g5rOZWfIRJIjpDCL69wCCsiae1C8z/xLA3yml7p2YmHijbFokjacOv3sASFilpUuXHrNgwYLlAG5hZonHH3Z4rmTjvUBETxDRMxJjX8W4+m7+gtCImS/UWv8xEZ07D34RCSx6AcCmTqfzcKvV+qAOgjhfY/QAMIDyou4HQbCYmdcCWDpERp4JkyWica11s85hsnI6smDBgv8M4FIJeQaweIh0FEfhw1rrbxPR894/0J/RPQD0ocvSpUuPX7BgwXXMfDOA00o+y4+I6FfM/CMieliCX6q4w+fdoboagtb6YmZezsyfI6JPlWwySAzBLwBsDsNwS6vVEt+If3oo4AGghxjCpO12+xwAtwG4quTdShxXLaXUtoMHD+5yTVUV0+qII464RGv9XwB8vmSHqpgBDzHzt9rt9h7vG/g3pvcAENNCGLLRaKwG8OXYqVVGBJ+o95Inf59SqulTYoFuKrTWehkRfSkOm/5YCdu0aAMvMvMGZv6Bjx34LYU9AEha3rJlJxDRTUqpm0rw8HdV/HER/DAMd/tst/7i3RNR+SVmFkAo3ESITwo2M/PmZrP5dglAU6sunQaAklV+Efw3ANyntd7Sbrdf96qnmWx0j10BCBBIXsXJBfsKvEkQL4WzABDX2Luo0WjcxszipS6qGIektL5MRP9XnHpVUfMlerHRaJwqgT1ziaEEDoVhuK8KKnLXPCAicRpK/MWiAo9hJ5l5B4D17XZ7t6vg7CQAiKq5cOHCy7XWX41tziLs/Urv+KtWrTozDEOZryQrDQIBiRoc1VqvbzabPzPbr8tvVaJGEDHzbmZeH0XRoy6aZs4BQEnCL7bk3zHzvVVV9esMAF2I6QGCG0QjAHBCAfDjNAg4BQAlCP+H8dn9piiKKh1sYgMAdIU9Nt/OazQaEp0pUZrH5AQCZ0HAGQCIA1H+MIqirwO4OGdwT+3CTW0CgB4gkHTspUS0lpklyjBPmLaAwE8AfK3dbj/pik/AGQAwFACTjUSiybZIdNnk5OSrdWEUw/lX0gcw16IIsE9PT5+mtZaoTTkxkIzFrE/t5p91ot33nACAOH9/JRHdzsxyk06WR5x8LxHRPWEY1i6QxFYAmKUNXAngKwAkmjNTViIz/4yI1mutR6twEpKFUdO84wQAGDL/XHSTneERiSJrt9sv1mXX752QIQ1qvQP2xHUICAgYZKnQVGsapBF+JyIB46y+y7TWd8fpqWlp9DYRbY6i6Dt1jhxzAQC6C3v11VefcPDgwZuZWQq3pD4pkPRrpdQdURQ9ZnsWofUagJTnJqLrxFEU1+Q3BQBR+aXgxqYwDLfWvSy1SwAgCxyv+7VEdIsUK0ljEjDzawA2MvP9dV/3JGa3HgAy7gaSOLJbAmJsCRBxDQCE8eNj3yt6Ar5M/QJWaH1Jwu+ECbB69epTOp3OnwP4M8OUU+uEXxbaRQDIAQIS37FNKXXP6OiolFyz9rFeA1ixYsVZ8Q4g13KZOIUkUWRbFEUbxsfHK7v4PZWJ16Swc2X+UuBzrlDgfQDEEWbySATkVq31zip7zEdGRk4PgkBqPFxjGDTkjCPQegDIoAEgLrS5odPpbKtqoY6CjjZNhHxgmzocmcU1HUXwJelLCpiaPFKs5bthGG5stVoCiNY+1gNARh+ARPrtZOZ1k5OTz1bx2M8DQLJM5oj+9D6AZPLWo0UOQXmHmeXmmU3j4+NvVm22OeZV2FSqrgGMjIycpJS6Vcq5p4kQrPq8CltAVyoCrVy58twoiu4GcFmaePEqM4IHgLnFIAd9pJ7DD4MguGNsbOz5IoWtin1ZbwII0TOaAfKqXMLxmDDD6Oio1JqvzJODwQubQ1UBMo4IvJCZ7yKiP0kD+gCcUf+FEZwAgB5bULQAyQQ0PQ8WGlWSITwADMaxHIAvR8BPMvMdrmQEOgEAwioZvcEzXCZXUWut14VhOF6VqjEeAPoDQFxYVC4huZOIpISY8VOH0x/jyRg2dAYAhB5yHhzXADQ9D+6SsXLnwh4A+nP4yMjIokajcSczCwikqfPoTPBPL+WcAgBJDFJKLZHdAcCFKU2Bf5b75sIwvLcKN8z4QKDDASC+0UkucL0VwEmGm6A0c07179LGKQCITQG59isrkzxDRH8VRdGP65YlZnsocFwmbEkQBALuF6Ss+FQpcE8BXLmbOgcAQrEM4cGVNQVMOcB2ADCcXz9yVc68M13TIto5CQB5agTU1VFkKCC1FIYcKd9wKfe/H2A4CQBCiDxHRXUsHmkrAOQI963sEW8RO7tpH84CQHwqsCgIgrviu+vTXEhZu2QRWwEgQ6ZfVzYmiWhcKbVudHT0ZVOBsa2d0wCQ5yitqlFwgxjURgDIs35VjO2YD3BxGgBiLSBTwoiECVc9Y7CXoWwDgJzhvpVO9BomEDgPAK4wkm0AkDXTLwbuH0dRtG5qauqZKqZ6ewAYJgV+W0BSbpjJdG9AXVRJmwAgz3rVzXQrWxSc1wC6BM4RJlwLZ5JNAODDfYuDBQ8AMS1tzBi00QeQ5/jWtUw/E5jwANBDpRwBJRJLXukwYVGbG43Gqcw8Z2FUItofhuG+Khb5dDGAy0SI87TxADCLei6GCedhoGG+a2jG+HDfFIviAWAWsWzKGEzBB5VvmjPT7xkA6+Ly5VLlyT8xBTwA9GGFPMxWxzDhqkuDz/Qrb4U8AAygrXiaM4YJ1+JikfJYqviefbhv8TTt9ugBYABtfWmp8pguTc+2lXJLM/dhtPUAMAeV8xw5eVMgP/v6TL/8NEzqwQPAHBRyJUw4iUnm6/c84b4u1fbPsz4eABKolyM2QIpN/IyI1mutR6t4rp6Hccp+N2e472sANjLz/c1mU1K3/TOAAh4A5mCN+H75y3vul2+k5KTKXiySch5DbZ5T85Kx1ipTc6jEnfUxDwADqF8AE3Z7ruTFIvPJdEnfzuF76e16kpl3AFjfbrd3u571N4jmHgD6UEaEv9PpnB+G4VeZ+YqU9eUP67EuGYNJgjmM3/OcvvQZnweBhEXzADCLQEULf9x9LTIGhyHgSd/Ikek3qGsflzEH0T0AzCLO6tWrTwnDcC0zXwfguCSGNf2dmX8JYKtSaqck3Ji+51K7OFFJLm5Zw8yfKXDu7xHR/VEUbWw2m+Ig9E9MAQ8APayQ49jJM1T1KeB9MX3WyANATJQ8x33V530/QqGAP5Y9nA88AAAo4LjPS1g9KBD5CM1DF8p5ACjJ6VcPcXBzlLW8/aispXIeALzdXxZrVbpf7w/wTkAgT6ZZpdnbDy6RAnW94zFxYikbOKsB5Mw0S0lm37yCFPD+AADOAoCc93c6nT8H8GdFnvdXkNH9kAZTwPkbgpwEgDyZZl6a7KKA60eDTgLAypUrz42i6G4AlwFYaBdL+9mkpIDTYdrOAUBBmWYpecw3rzgF/hnApjAM7221Wu9UfKyFDs8pAMhzsUShVPedVY0CzjoEnQIA7/irmtxVajxSOei7YRhubLVa+yo1shIH4wwA+N2/cC6aBPAvABbEpyi196Uw8wtKqTuiKHqs2Ww6cYGIMwDgd/9CAWCm0Eaj0fhbAJ/SWv8PZj6r0C/MT2fOaQFOAIA/9itUmg6psnPkkUeeoJS6lYiuB3B8oV+ah85c0wKcAAC5WabRaNzGzNcAOGYe+MqWTx5WYksiKg8ePPj7Uj4NgJRP+1jNJ+uUFmA9AHjbvzBxHFhfryesWmIrLgYQFPbVeejIJS3AegDw2X6FSJCk0D7CzBva7faL/SrsxjUVrugpoV5nEHAmW9BqAPAJP4UIv7FKbBEIOBMXYDUA5LjmuxDJsaCT1BFytoAAMztxu5DVAOBj/jNDUARgDxH9TafT+X6r1ZLS2saPJSDgROUgawGg4AsmjJnfgobi7HucmTdGUbRr+/btEvCT+rEBBFxwBloLAN75l1pm5QVJhNkCYPPk5OSrea/TikHgEq31WgCX1PCI0HpnoLUA4NX/VACQS+Wf60vxHYvnAPgKgCsBHJ1qZPPb2PrLXa0EAB/5l0pqEo/4UvU2oHFdQ7Ftv9fRSgCoK7MVIWgp+oiI6BUikjz4rc1mU477Sn3iy1euJaJbAJxRk4Ah42PQUolXUudWAoBX/xO5pVBbP/FrPQ1i5+ylRHQbgItqUJHJajPAOgDwob9ziqOo+48xs+z6T2b18KcR+H5t48tYzo4vYV1V9fwMm08DrAMAH/zTVzwPMPPL4t1n5geGoe6bgISsVaPR+CKAmwGcVlWTwOagIOsAwGf+HSJ6lRT83hHW5KjQWj+AjQCwuNFofIOZ5dy5YbITWdim8oI/m+YVL9ZqrR/AKgDw0X+oneD3AkF8fLuUiNYy8+IqOQht9QNYBQDxMdN1wkAATrFwZx80JXHuPUFE93Y6nUfTxu5XiU7iIJyenj5Nay1+AfEPVKLKkK1+AKsAwMHwX7FNH4iiaLMErNhUyDLWBi4HcGtcZGS+Kw1ZeY2YVQCwYsWKs+KCFCtqFnKaZhOW5Jznmfk+pVRzYmLi13lj9tN8fNhtK+QbsDI70CoAWL58+UVa678moj8YNqOW/D1xQr3GzA9HUfQ9pdRPbdrtk2gXx3YsZmYx7ZbOE7hb6Qi0BgAsDACaEXoATa31g1EUvThfgTtJAjqs3ysQSvyUUuovxsbGnh7WnMv+jk0AcLRSaiUR3V7jGvWi3v+cmSVab9QL/eHsP59OQhtvErYJAI4jorqdAEhCzrsAntJaj2utHyeiN11S77PucPGR78VEJE5CueW59DRjItoLYEOn09lW55OWXppbAwAVchYl8fT++Ex5h9b60TAM97iu2icRbK7fly5desyCBQuWy2kBM59bcuyAdQVCrAGAiqYAix3/NoCXAEiZrSfCMHzFC3weke//brwB3MjMNwA4uaS8gg+JaJtS6p7R0VHRBmr/WAMAFTgC7Ar7HgC7Ra0PguCf9u/f/77Nx3RVkoC4+pDUGRCzYE18aWmRQ7TuKNADQHr2ECb4BYDXiegXWuvXlFJ7oyiSozn5zT/zTAE5EWo0GoviaMIvFAgEHgDmeW0Hfn5kZKSIJCDZxX/DzFIw4z0i2kdE8u+35I9S6nW/o1eVAw4fVwmOQg8AVV3+DEFAcunFfUT0wzAMXxNB9973qq5uvnHFYcVLANwEQP7OemIwSUTjSql1o6OjUl+h9o81JkBaALDxTLf23FjyBGIgkDJk18UVio/L8EmrgoE8AGg96m33DGJQ41dy+gg8AFRx7b0GUMVVqfaYMpaP9wBQxWX1AFDFVan2mDwAAN4E8CZAtaW0xNF5APAAsF57AChRxKrdtQcADwAeAKoto6WOzgOARQAwMjKyKAiCuwCMmNxC648BS5WtWnTuAcAiAEibC2BjamctpK5Cg8yQQeoDgSq0focMJS0ASJYeEW2Ooug7zWZTMvb84xgFMgCADwWuKo94AKjqylR3XB4ALDIBMtQDsA7Nqytq1RxZhk3DutLg1sQBeDSvppBVeVTiOG40GncysziOP24wVuvMRmsAIC4NdQ2A25j5dIPFjADsUkr95djY2HMG7X0TyyiQNnrURsexNQCQ5V5AW+97s0xOS5lORn75GRFZFTtiDQAIl6RFdB8LUIps1aLTLDEANm4YVgHAypUrz42i6O64TPRCA060zqYzmLNvAiCDz8hKk9EqAMjg1bWuyquXbjMKjIyMnN5oNMRfJH6jYwzesvLUyCoA8KhuwMa+yQwF0pqLtgaOWQUA8d1xqW4Hkmu1tdbrwjAc9/X63UCHLPa/jScAstq2AcDCIAgu01rfTURyS4zJI8VBN4VheG+r1ZIKwP6xnAIZNEXY6AC0DgBkQhkcgd4PYLnAz55eBl/RAWb+YRAEd4yNjT1vE7ms0gBkYUZGRk5SSt1KRNcDON5wsayq82Y4Z2ebZbD/3wPw3TAMN7ZarX02Ec46AMgQEQhb7TubGLWouWTxEzHzawA2MvP9zWZTwMCaxzoAiO+Hu4SZv0lEiw1XypsBhoSqe7MMx3+yQTwXRdHtU1NTu2y759E6AIjNgFTVgWacIRYvct2Ftqjxy30AGZzE1hUB6aWnrQCQ2g9gs5pXlADVvZ+lS5cev2DBguuZWW4PPslwPtalAFsPAFkSPQBYGellyORONMuQ/iuaodVxIlZqADnMAKsX2wkpHzDJjJuC1er/jOlrK1NkVPesPe6xdZ1N55WhYpR0bX2QmLUAkPE0wNqIL1NBsbFdRuefE7xgLQDEZkDajC95zacIW4YCGXd/J3xCVgNAlqAPABEz/wTA19rt9pO2nftaJtuJ0xFN8MCBA38YRdHXAVwMoJH4EiC7v7XBP9afAvROcMWKFYu11t8EcAmAwGTxAVh99GNIAyuaZUn8AWBt7P/sRbVaA5DJZmQAJ+w/KyR8jklktf1dMgOtB4AeFVBKhYkKaKoF+BOBmiOEhP0GQXAbANOqPzJjKf31JDPf4YIJaD0AyIpmdAKJFmBdFdiay7Tx8LMU/Yg7dwr4nQCAHKqg9YEgxhJVs4ZZov5kirYW/hi0fE4AQB4twCV7sGYyPnC4Wf0+AJza/YWAzgCAaAFKqSUA7gRwYQpfgNiEzxDRX0VR9ONms3nAFkGxcR4ZQ36ds/27a+8MAOQ5EQDgTYGaoEVW1d9VTc8pAMhxIiDs72MDKg4CGcvBObv7O2UCdHk3Y5LQzOv+VKC6CJClFFzPbKxP+nHeCdhLAFETgyC4S2qIAvhYCrb2YcIpiDWspuLfYeYlQRCIf+cC03DfeHxOxPx7AOihQA5HkfQyycw7AKxvt9u7fa7AsMS8/3fErOt0OueHYfhVZr4CwMfTjMj2gh9JtHDKB9BLjBxHRdLNBwC2RVG0YXx8fG8Skf3v5VFAgrzCMFzLzNcBOC7ll5zP/HQWAOJ6ARcy811E9CcATG4T7uUv7xRMKW1FN88p/AeI6MdRFK2bmpp6xlVNzlkAEGbMaQo4kzJatOAW0V8eZ+6M99vyWn+mNHYaAIRIeRnJlbxxU4YaRruMdR56h+a86t8lhvMAIITIcFfcIXzuQWAYYv/bbxQg/E57/WevlAcAADkDhGZo6kGgfBAoQPidSvU1WREPAACuvPLK/0BEclnEDSkuFO1HX+8YNOG6DG2WLVt2AhHdpJS6iZk/k6GL7itvEtGmTqfz9/46eIeSgQYxTE5Pcr9u3yOi+6Mo2thsNqWunH9yUsCvUU4CzvG60xpACYzVJbXYmY8w84Z2u/2iq0dMedk2b5BPwvc9ULuUDjybGUoU/u6n5Jz5Ka31hjAMf7R9+/bJvALh0vvxEe2lRCQlvS7KEKdhQi7nQcBJDWAIwt/LfN7mNBHFnjZ5j2ZTfs5pEHAOAIYs/F1elNDhh5j5W+12e483CfqLqKj8k5OTZwNYS0SrAByTUpizNvfZgFkpV6f3hryzzCaNHEH9ExFt7HQ632+1WgIK/okpIOm8jUZjNYAvA/hsyoy+3HR09RjXGQ0gR5XYXuaSCyP+EcAPiOh0OUHMkIDitYEeisYFWxcz81oJzARwdEppljp+jxDRPmYWADknRbm3Qz5FRJLYtaHT6WxzBaCdAABxKC1cuPByrfVXAZyfcXc5JA34yCOPPEEpdSsRXZ8hdkC0gdeZ+T6l1JaJiYk3XDQL5GxfKfVf4/iLkzOsy0dxF5/4xCd+efDgwd+XtGAAkhacps5DFwicq/9oPQAUdJTUt1psAZFpUmD0JQCbtdYPNptN+Y71j9BNKfUFIrqZmRdl8fD3U9njtT47Tg/O6kNwqv6j9QCQo05cVxDnLBUdmxZiCnwlh/opR4S7AdyrtR61FQjisl3LAdzCzOdlEXy5uYeIXiKie8Iw/EGz2ZSYi0OerBfB9HTiTESn1QCQs06c8INRnfi4toDYngICAgZp7dgu71mnEQhtpqamPq2Uukpr/d+y7vgxgYwDrPKCgCv+AGsBIOu10D27gJHw9249OasMHeJsjJ1aTQAPdjqdl+oWSBTX6TtdKbWGiK4FkMXG76VJ6hTenCDgRP1HawEg48WQRmr/XEZ6bBIsJSIpU7U4o5rb+wkxD14koq3MPDY5OflWVR2G3d2emaXY6pdih2uqGn19aDtz8kJEf6O1bvVT+edaj5wgkHoTqJsDx0oAyHnkl9sJJIIwPT19mtb6ZgBfzHBKMIiPPmDmJ5VSO5j5iU6n8/P51gxkpwdwShAEl2qtR4hIbmAuKoDnHQBbxEk6OTn5ahbgk7XIczpgeyl4KwFg5cqV50ZRJNeBX5ZyBy60TlwJ2kAvMMiR1btylTWA8SiKniCiN8u+uiyO0T+NiOQ49Y+I6CJmPiklnZM2yly7/uzOc9Z/zL0hJE12Pn+3DgDy2OFl1YmLx3QjM0u9AbGFg5IWfT8zSzDL6wBekT9BELwRhuHeNKpz7D85lplPZOZPMrMEPcm4JULv93I4OZOmLaD2quz4YRjeV2S+fhwLckVPLEiaNbA2VNgqAMjp+Ct1kUs0C5KEavbv4knfB+Cw47NYsE8tUcDnGmtudT+JEDlCwa11CFoFADl2/w+JaJtS6p7R0dFS6/znuKU4ib/r+vtM9B2AdVrrnWWbMOIcbjQatzHzNSl9FalPIeqwINYAQI7df+h14vKWI68DYxmOUWi/W2u9PoqiR4fh0MxR/1FiNB4LguCO0dHRFwznV/lm1gBAVvVuvrLACggjrjxzJQ2wbrSfr/Em0THP79YAQEbP/7yWiC4gTDnP2s/3u/MabpuxFLx1WoAVAJA15Lcsr38aycphk6b5TNXaDs3nMmjiWc0w20KErQCAjEJUiSgvg0CVmdTh2FF2bHz9dVGBNkUDw4fxOP8VwIUA/mOfFN/K3K6cMUpw3sGryEWrPQDEQR6XMPM3iUhCb40eZn5BKXVHFEWPle15ThqQwRn1R6YKgLeVUhfIVdhx1J2k02ZNPkoaWtLvMq6XJTqRiB7VWj97xBFHnBDn5K/sM66hevyTBh8XI7lMa303EZ2b1L77OxE9F0XR7VNTU7uyRCeafmcY7WoPABmdafNq+/dbWIPw5b42czcyD8DZSqkztdbnxdWKPllgdJ7Yvr+RICOl1PPM/FNm3hOG4au9nvskn0YVw2qzaAE2OQNrDwBZ1P8qMqKAQhKYpWG83mg+rfXxRDQ7wCdg5qOYmYhoiojCHmCSiMJ9Sql3iOit/fv3v5+00xU59mHsfN1vGABvv+FYYwbUHgCWL19+kdb6r4noDwwZp9Kx3Uk7UhUcl7PpbOBQq4S/ZRB/jIyMLAqC4C4AksVoVErMFjOg1gCQ0ftfasivIQjN2SyBIStVty7O+18SBMGdsYOyMWtylTO3ZhM/SwyJLacBtQaAJJuzn5RVyfk3CAUMstcq4Uk3qLdYaHZlEeA6wP+yMAiCtM7AeY1jKIoWtQaADMEclVb/exfV4GQg8402a9as+XcTExMXKqVmzCat9dOdTueZHTt2/L80jJVwycrQw3zTjH122wxmQOU1GxN61BoAMtj/tUroMDBxUs9n1apVn4miSK7YvgnACTGTvA3g/3Q6ne9s3779lyaMk5R4VTcVOYs2CeAppdRfjI2NPW1Csyq2qS0AGDieDqN33ZhSJpAkaGlOBuJMxMuJ6OvMfMi5t5hGRPQ1rfWOpLiIJI8/gMr7WWYzR5bTgCo6ZNOCTG0BwIAJD6NFHez/fguYcDIgueq7mTkxo27FihXHaq2lQOd/B3DarG9JIY7/rZT6h7GxMYnk6/sYXLJSaY9/gt8lVUBZHTeU2fOvLQAk7Yx9Flps0l1Kqb8cGxt7Li1Szmd7g3BhcbbtZOZ1k5OTzw46sxfbf3p6eqXW+nYAZ86a0ytE9I3zrm3tAAAKSElEQVTp6envD/IF1MU5mXWtMiSUpTbBso6trPdqCwAZbLZaO20M8tiNHJzi7Go0GnfGlXu7FXvzvNvlzaHXVShaKDI4lWt/ElBbAMiwWLVHawO/R+LJwJo1a46anp6+IIoiuddQLuMEM7eCINh05JFHPrt169apQWZIfOXWdX0uRK2Vx38QcGTQKmu9qQgdPAAUvY2U3J+B78PIAbdkyZLGUUcdNRP1NjU11Z4r1DcpUCaNI7Jk8uTq3gNALvIN9+UBquxcg6i9BtCdXJL5U2Sug4F3vPZqcJeuBnOdzV9eAxiu2P/b19LGANjgse2ldUISlPHJwFzrZ+DxtyYpRuiQAQDktVrHAtTWBEgLAEXuivMFer3fNTgZyBUubBDmm6v/KtBw9hg8AFRxVQaMyXUAELIYhAtnVlFXrVp1Zl0KexTFth4AiqLkEPpZsWLFYq31NwFcYnLTjm0mQAq7NbWNPkwfwxBYxfgTSc7OPh3VNrakO5famgAuHgMO4uSkk4E0Xvoi+zKWvIo09KcAFVkIk2FkAIBahqia0ELaFFFIxCTOAMB3wzDc2Gq15Hoxq54kGvaZbGYTqyqEq60GkKSm9iGwdTXdZ88xTyERGwp75BWqkZGRxY1G4xvMLGbl7MIm/bpPbV7lHWPR79cWADLYaxLxVplKwEUvpPSXNVbfwONfi8IeeWhqoP30694o6CrPuMp+t7YAkHHBao/YSQxhcDJwWLiwTYU9kugz6PcMGiV8OnBWahf0XtqjQAC199qakC5NIZGjjjoKBw8evHlWgZCPPmPr6UkvHTNeLGsFL9VWA5AFzFgS/DUAG5n5/mazKY5BK58kj3Z8MnC/UkpMI0nwOaUPIWqv4posbtLJx4A+rIiCrDUAZFw4CZP9CYCvtdvtJ5Pq3ZswUFXbJBUSkTwgSQYEcFQfp5fVpybdNTPwm/Rd3jRHq1XlDxlXrQHAIEd+EO2tSQyai7kMwoUHvW5dmG+Rtr9NpmStAUAWNcPZ7Qwv2ODAMdlZMoBk7Qt7mNBF2mR0JMur1jiTaw8AWS94BGBURsuUmarcLgWjW1HYw2QtDI4+B3Zj03Fy7QEgjxYAILGCjgkz1aGNib/EFrvWZD0Sjj7n6qL20X+9k7MCADJmcXXp4ISnWyabcNZtjVqbBABZgsi6fdpmOloBADFzn95oNG5j5msAHJPEBL2/u7TzDTg6teJIy2TNTTShOfqx7mTEGgCIL71YAkAuqbzQJEX4EFWIaC+ADZ1OZ1ur1frAhJnq2KbPyQAz8w4A69vt9m6bj0UNAqTmWtKZS1kBrNNa70y6PKUuvGENAAjB86h28r4rmkAPWP7PmFH/l01M3U/4ZOdXSq0BcAuAMwyTfXq7svLo2CoAiE2B1He9u2gOiN+k0WicKnMPw3Bfs9kU55aVT061X2hilePPOidg74QMkmESmZyZ5YLMzcy8udlsysWZ/qkpBfJqhXHQj3Wq/0dOzZqu65zDLgDxpX/xAzzEzN9qt9t7bLaNbeQB8XVMTk6eDWAtEa1K6xju0sR2s9A6E6C7cFkjBGcJg4TE7hIQiKJo1/bt2ydtFBbb5hRrgXLR55fj4h7dK9DSTtU6r/9sAlgLAEX4A2Jiiff3F2IShGG4pdVqvZOWi3z74VEgVvmvY+ab4xuQTSr79BugE0ejVgNAjmSYfgwhjqBWFEUbieg5W46Bhiea5X4pDglfzMxr5UAIwNE5vuhMMpTVACAMUDAIeG0gh1SV9WqBu74M0fryZ73rYD0AyGTzBgn1YVzxBTwJ4Nta6x02H6GVJbRF9BuHgEvw100A5O88u74MyZmd3+pTgH7MVbAm0P2ENwuKkOSUfRSs7ne/7pzwy8Sd0AC6K1wSCEj34i3eyszfbrfbr/gjw5QSbdhcBL/RaCzSWsuOfzWA4wxfTWrmpPA7BwBdn0C73T4HwFcAXFmA2tjLXAIED0RRtFmyxryjMEnuzH4vUfBlAB8y80NSJ9LFeA+nNIBedstSBtqMXWdaCRCMMvO9YRju9vEDKSjX07QEG3/2QKyM709DbWcBIHYOHkdE1xJRN0EkSEM8g7biLNzNzFuUUs2JiYlfe/MgmWpx4s4XiEjKlS8CsDD5rVQtIiJ6hYg2hWG41ebq0ElUcRoAhDhxuaxLieg2ABeVwGzyGTk+/BWApoCB1woOZ8urrrrqdyRqj4hWA/gcgE9lyNhL4nf5Xez9x5l5o4/udMwJOIg7xDk4PT19mtZaose+COB4E07K2EbOmfcxcxPAg51O5yVXTYQYfM8nIqH5shKFvrtUEsW5RaI6JycnX/XamAeAQ2Q4tjmXEtFaZl5ckjbQ+00BgzcBPK61HldKPT0xMfGurYwZVyj+3TAMFxPR5fFOLxeSFK3iz8ZmofMLADZ1Op2HbS74knZTct4EmE2wIWsDsz8vcQXPM/POIAh2hmH4Qt2DjARUgyCQEN2ROFhHinFkTc5Jy9/S3u/6c1DNA8AA4sTagOxStwK4GMDHsnBfznfEifhzAE8B+EdmfikMw1erajLERUbO1FqfBeCzAM4H8HsFH7WaktRHaxpQygNAApHi2gJXK6VuKskjbbBMhzQRxn4dwF5m3gNgj1zg2el03hgGMMRq/LHMfCIzf1KEnYi6An/akHf3frTzHv4UHOUBwJBY8WWbNzLzDQBOTlt01PAzeZsJOLwF4H0paMLM++JyVpFS6l/lNyIaWNOAmRcy8/Hyp8cuF3X9RCL6NIATYgdp2TZ7FjqI4L8B4D6t9ZZ2u/26rb6ULMQZ9I4HgBTUlN1vampKhP8GZr4xFogUPfimJVHAh2JnJKwHgAyEk9DUBQsWnK61XsPMf1phjSDD7GrzysyOz8zfi6LoH8QM8qHX6dfOA0B6mn30RqwRfJqIlotGUBEfQY4Z1eLVA3GFJkm++p5X9fOtmQeAfPT76O0hxK0XNNLadrOfmZ8GcD8z/8Dl8N0iV9ADQJHUjIuPiGc8CII/Fc0AwDACXQqeRWW6kxDqt5j5wSiK7lNK/dSr+cWujQeAYul5SG8S6hoEwTlEtIaIVoo3vaKnByVSIXXXYtv/ipl/pJR66ODBg7t85F5qGhq/4AHAmFT5Gsq9dEccccQlWuvVzPw5IpJkl6KzD/MNcv7e9kI/T7T3ADAPhI/DY8+T0Fit9RIiOneeouXmYfYffVLiESSIaVxr3QzDcM8wApnmc8JV/LYHgAqsSqwdXBxF0eVE9Efx5ZXzEXpcJjUkz+FlZn5WKfVUFEWSnPO2t+nLJHly3x4Akmk01BbdUFuttcTSX8DMvWG2dQEFOaqTOxUlVHk3ET0eRdHzdU9sGiojDOljHgCGROi8n4nNhrN6Em3OICJxKsqf+QIGEfTfMPNepdTzWmv5e28UReKtt/a24bxrWaX3PQBUaTUyjqV71bfWWmL4BRBm4vZnxfSDiMTpeOwA0BBH3Ptaa8kl+ChfQHIHmPktpdS7zPyuHMsppf6FiN7av3//+z7ePuOiVeS1/w9Kvk4O+zbDpgAAAABJRU5ErkJggg==;" parent="1" vertex="1">
                    <mxGeometry x="80" y="48.32" width="100.87" height="100.87" as="geometry"/>
                </mxCell>
                <mxCell id="37" value="" style="dashed=0;outlineConnect=0;html=1;align=center;labelPosition=center;verticalLabelPosition=bottom;verticalAlign=top;shape=mxgraph.weblogos.github" parent="1" vertex="1">
                    <mxGeometry x="770" y="52.07" width="75" height="75" as="geometry"/>
                </mxCell>
                <mxCell id="51" value="外部APIサービス" style="points=[[0,0],[0.25,0],[0.5,0],[0.75,0],[1,0],[1,0.25],[1,0.5],[1,0.75],[1,1],[0.75,1],[0.5,1],[0.25,1],[0,1],[0,0.75],[0,0.5],[0,0.25]];outlineConnect=0;gradientColor=none;html=1;whiteSpace=wrap;fontSize=12;fontStyle=0;container=1;pointerEvents=0;collapsible=0;recursiveResize=0;shape=mxgraph.aws4.group;grIcon=mxgraph.aws4.group_on_premise;strokeColor=#5A6C86;fillColor=none;verticalAlign=top;align=left;spacingLeft=30;fontColor=#5A6C86;dashed=0;" parent="1" vertex="1">
                    <mxGeometry x="260" y="48.32" width="170" height="160" as="geometry"/>
                </mxCell>
                <mxCell id="52" value="" style="shape=image;verticalLabelPosition=bottom;labelBackgroundColor=#ffffff;verticalAlign=top;aspect=fixed;imageAspect=0;image=data:image/png,iVBORw0KGgoAAAANSUhEUgAABLAAAAKjCAYAAAANs/bAAAAABGdBTUEAALGPC/xhBQAAACBjSFJNAAB6JgAAgIQAAPoAAACA6AAAdTAAAOpgAAA6mAAAF3CculE8AAAACXBIWXMAABYlAAAWJQFJUiTwAAAABmJLR0QA/wD/AP+gvaeTAAAAJXRFWHRkYXRlOmNyZWF0ZQAyMDIwLTAzLTI5VDAzOjEyOjM5KzAwOjAwxStfQQAAACV0RVh0ZGF0ZTptb2RpZnkAMjAyMC0wMy0yOVQwMzoxMjozOSswMDowMLR25/0AALfLSURBVHhe7N0FgBzl+cfx36yde5JLSAKEhARCEpzgLVDc3V2Lu7ZAoTgUakBxlwqF4k6R4g7BA4QQl8v5rcz895286Z9C7m4vud2b3ft+6DY3z1xk1m7mt+/7vI6XJgAAAAAAACCgQvZXAAAAAAAAIJAIsAAAAAAAABBoBFgAAAAAAAAINAIsAAAAAAAABBoBFgAAAAAAAAKNAAsAAAAAAACBRoAFAAAAAACAQCPAAgAAAAAAQKARYAEAAAAAACDQCLAAAAAAAAAQaARYAAAAAAAACDQCLAAAAAAAAAQaARYAAAAAAAACjQALAAAAAAAAgUaABQAAAAAAgEAjwAIAAAAAAECgEWABAAAAAAAg0AiwAAAAAAAAEGgEWAAAAAAAAAg0AiwAAAAAAAAEGgEWAAAAAAAAAo0ACwAAAAAAAIFGgAUAAAAAAIBAI8ACAAAAAABAoBFgAQAAAAAAINAIsAAAAAAAABBoBFgAAAAAAAAINAIsAAAAAAAABBoBFgAAAAAAAAKNAAsAAAAAAACBRoAFAAAAAACAQCPAAgAAAAAAQKARYAEAAAAAACDQCLAAAAAAAAAQaARYAAAAAAAACDQCLAAAAAAAAAQaARYAAAAAAAACjQALAAAAAAAAgUaABQAAAAAAgEAjwAIAAAAAAECgEWABAAAAAAAg0AiwAAAAAAAAEGgEWAAAAAAAAAg0AiwAAAAAAAAEGgEWAAAAAAAAAo0ACwAAAAAAAIFGgAUAAAAAAIBAI8ACAAAAAABAoBFgAQAAAAAAINAIsAAAAAAAABBoBFgAAAAAAAAINAIsAAAAAAAABBoBFgAAAAAAAAKNAAsAAAAAAACBRoAFAAAAAACAQCPAAgAAAAAAQKARYAEAAAAAACDQCLAAAAAAAAAQaARYAAAAAAAACDQCLAAAAAAAAAQaARYAAAAAAAACjQALAAAAAAAAgUaABQAAAAAAgEAjwAIAAAAAAECgEWABAAAAAAAg0AiwAAAAAAAAEGgEWAAAAAAAAAg0AiwAAAAAAAAEGgEWAAAAAAAAAo0ACwAAAAAAAIFGgAUAAAAAAIBAI8ACAAAAAABAoBFgAQAAAAAAINAIsAAAAAAAABBoBFgAAAAAAAAINAIsAAAAAAAABBoBFgAAAAAAAAKNAAsAAAAAAACBRoAFAAAAAACAQCPAAgAAAAAAQKARYAEAAAAAACDQHC/Nfg0AAIC0afNT+s7c5qU0u9nV7CZXc9K/mltjm6fmDldN7elf07ekK7XFXTmOY3/3QuYUqyQWUjQkVZQ4Ki9yVFYUUk2powHlYdWVp3+tCGlIVVhDq80t/XX6VwAAAPwUARYAAOiXPpuR1DvfxvXxtJQ+nZHQJ+lfP0n/6rlSOJy+hZz0Lf2rI6W/VCj9f/6v6ZvJqhb9mv7fT8KrRcxpljnRMmdbbvq26Ff/lv4/82sq/ff5t/TOVEqKRhyNro9oxfqwxi4T0YShUa0yNKJx6V8BAAD6KwIsAABQ8N78Jq6Xv0jolS879MbkhL6bm1IkIkXDjiJhKRJa9GvnYVSuuCbIcqVkKn1zPSXMrylPyYQ0bEBY664Q1dojYlpnRDT9dUzF0b799wIAAOQCARYAACgoJux5/KMOPf1xh55I376YnlA06igWSd/CjqJ2dFUf51RLxA+0klIifYzxlBRPeP40xM1XKdKmKxVps5VjGjEgYr8bAACgcBBgAQCAvPfS53E9+mG7Hn6/XZO+S6qoyFFRVCqKOP7oqnwMqzKVcj11JKV40lN7YuFp3RarFGm3NUu18+pFqi1nzR4AAJD/CLAAAEBeuvPVVj3wTrseTN+iEflT6czNTAvsz8ypnQm0TJjV2uGpviqkfdct1Ym/KNPwWprEAwCA/ESABQAA8sYtr7Tqtpdb9dKnHSopDtnQqu/7VgWZmVLZmnC1ztBKzW2Udlgjol3WiWq15QizAABA/iDAAgAAgfbgu+268slmvfJZh0pKQiq1/azIrLpnzvISrqsxdWUqcsJy5akjIbXGPb8fmAmydl8nopH1hFkAACDYCLAAAEDgTJ6T0gX/atQd/2nzw6ryIkKrJRFPuVquslS1xVGlfnTK57qmZ5bU0uH5fbKO3CSmvTeI2r0AAADBQoAFAAAC49ZXWnXpY836fEZSVaUhlcSkEKnVEkm6rupKijS8othfvbArphF8a4fUnL5tOSGsQ34W0/jhjMoCAADBQYAFAAD6lAlPzvlnk654otkfZVVRTCP2pWXu09JoWKNrypToJrz6IXNaaBrAN7d7GlgR0olbx7Td6ozKAgAAfY8ACwAA9IlZja6OvLNBD77ZropyR2VFDqOteoGbPrULOyGtUleu5FKc5pnm7y0dJgyTfrl5TEdsErN7AAAAco8ACwAA5NSkaQkdf2+jnv24XTXlYVYR7EXmtM4MuBo3oEK9dYJnAjEzvdA0ft9zYkxn7RhTOMTjBQAAcosACwAA5MTk2UkdfGuDXvw0rtqKkIpoyt6rzCmdmS64cl25YqFQrwVYi5g/vy0uNbRKe6wb1fm7xAgeAQBAzhBgAQCArJrd5GrPv8zT85MWBlfFUUKP3mZO5pIpVyOqSlVZFPFHYWWLH2QlpMZWT/tvFNOZ2xfZPQAAANlDgAUAALLChCiH3tag215sVW0lwVU2JVxXg8uKNaS0aKn6XvWEOYVsjS9s+H74pjGdsCVBFgAAyB4CLAAA0OsueqRJv3qgSZVljspiZqog4VW2mBUHK6IRjawp7dGKg73FnEqaZu+JlHThbkXallULAQBAFhBgAQCAXvPoB+3a76YGdSQ8VZcSXGWbabAeDTkaW1fRJ+HVD7npv7+h1VN9ZUjXH1ai5QeE7B4AAIClR4AFAACWWiLlaaPL5uiNyQkNqgyxSl0OmFM4cxI3bkClH2QFRTL9XJjd5GnTsRH96aASWwUAAFg6BFgAAGCp/PaRJv36H42qrQzT5ypHzOmb6XU1trZCkZDT6ysO9oa2uKfGNk/n7lzsr1oIAACwNAiwAADAEpm+IKX1Lp6jGQtc1ZYxXTBXzLgrM+JtVE2ZyqPhrK44uLTMaWZDqzS01tFdvyxVVSnPEQAAsGRoTgAAAHrsrH80aZkTZqo17qmuPER4lUNmit6wimK/cXuQwyvDPC9qyhwtaPG07nnNuuG5uN0DAADQM4zAAgAAGWtodbXqb2ZrVqOrGpq055xZcbCqKKIRVX2z4uDSMKecC9qk+kpHfz+hVKVFPHcAAEDmGIEFAAAycu3zLao5erpaOzzVljHqKtdMo/aiSEgjqsryLrwyzPPFrEzZ3O5pzV816x9vJOweAACA7jECCwAAdOvnl8/Vy192aFAFwVVfMOGV+dRxlQEVShXAmZs5/Zzb7GntFSK66XBWKgQAAN0jwAIAAJ36clZK48+bpaKIVFbEwO2+YE7Vkq6ncQMr/RCrkE7czEqFKVf62wmlWraO5xcAAOgcZwoAAGCxrn6mRSuePlNVJQ7hVR8xHzOa6YKja8oVNtsLywWjJOakb9KWl7boH28ypRAAAHSOEVgAAOAntv39XD3xUYfqK5ky2JfiKVfLVZaotjimVAGfspnT0TlNnrZcNaor9i62VQAAgP9HgAUAAP7LrHK3/Bmz/NUGK0sYddWXkq6rASVFGlZR7E8h7A9Mg/fqMkePn16mELkpAAD4Ac5MAQCAb/KcpGJHTldbwiO86mNmtFVZNKLh/Si8MsqLHX+Vy9XPbtbXs11bBQAAIMACAABpT37UoZGnzdTAipCKIgx96UtmxcGIE9KomjK//1V/E0s//2rLpK0va9GzHydtFQAA9HdMIQQAoJ+78qlmnXbvAg2pDdPvqo+Z0zKTWY0bUFFwDdt7ytwX0xs8Hb9VTL/crMhWAQBAf0WABQBAP3bAzQ2669VWDa4y4ZUtok+YUzIz4mrl2grFwk6/D7AWmdPkapvVorpkT5q7AwDQnxFgAQDQT2161Vz954u46srpKNDn0mdjcc/V8pWlqimKKMXZ2f9Y0OppteXCuunwElsBAAD9DQEWAAD90Dq/na1J05KqKiW8CoKE62pwabGGlBUpyanZYpkVCpcbENJfjy+1FQAA0J8QYAEA0M+MP3e2vp2XVEUx4VUQpFxP5bGIRlWX9sum7T1hVigcWOXoXyeX2QoAAOgvCLAAAOhHRpw5U/NbXJUVEV4FgVlxMBpyNLaugvAqQ21xTzVljh49jRALAID+hAALAIB+YplTZ/oX/6UxurUHgTkFMydh4wZU+kEWMmeex5XFjp44kxALAID+go9fAQDoB0aeRXgVJCa8Mr2uxtSW+1+jZ0rSz+PGdk/bX9liKwAAoNARYAEAUODG/nq25ja7hFdB4UkJz9PIqjJ/+iDx1ZIxIdacJk+7XtNqKwAAoJARYAEAUMDWuGC2ps5P0vMqQMyKg0PLi1UZi4i2V0untMjR1HmuDrqeEAsAgELH2SwAAAVqw0vn6ouZrDYYJEnXU01JVINLi/wphFh65cWOPvre1cl3tdkKAAAoRJzRAgBQgPa7ab7e/jauyhJ+1AeFadReHAlpRGUpKw72sqoSR89PSunKRzpsBQAAFBrOagEAKDAXPtyke19vU20ZP+aDwjRqdxxpdE0Z4VWW1JY7uvWluB56J2krAACgkHBmCwBAAfnnu+0695+Nqq8M2wr6mr/ioOtpJX/FQVtEVtRXhnT6PW366DvXVgAAQKFw0idVnEoBAFAgnMNaVF/VrDALDgaCOctKuCmNqa1QSTgkYpXsM1M15zR6euPCcn+lQgAAUBgYgQUAQIFo2XsrvbHgKM2MDVJSjMAKArPi4HKVZSqNEF7lSshxVFPuaMtLW2wFAAAUAgIsAAAKQOOFZ6n5y8laZdZb+uK9zdUeiqndidm96AtJ19XA0iLVlUSVYrx7TkXDTvr+l/a/rtVWAABAviPAAgAgz7U++De1/vVuhaqq1RKt0KCO2Zrx5noalJinxnCZ/S7kUsr1VBqNaNmKYr//FXLPTB/8eKqrPz3FyoQAABQCAiwAAPJYcvIXajzreIUG1duK1BEqUlv69sk7m+nnC97Q7EitiFByx/RgCocdja5mxcG+Vl3q6M9Px/Xut0zgBAAg39HEHQCAPDZzrRXlVFTKCf+055XjuRoQn6lfjzhdvx12nIakv6aldXaZ0yqTWY0bUEFoGBAmUJzXLL1/SbmtAACAfMQILAAA8tTcfXaQU1yy2PDK8JyQZscG68JvrtZfPztO02P1SvGjP2tMeGVGXI2uZdpmkJim7hXF0s7X0A8LAIB8xlksAAB5qPlPVyj52SQ5xekr866kL95nxwZox7lP64N3t9WCcIU6nKjdiV7jSQnP04iqUhWHQ4y+CpiiqKMps11d9wz9sAAAyFdMIQQAIM+Y4Gr2TpspsswwP6DKVEmqTfFQTGuu+qDmRapV7jIipbeYFQcHlRZpmbJiJTm1CiTzsExrcPX0mWUaXsdnuAAA5BsCLAAA8szMiSvJKS3rdOpgVyJuQjWpRv183D16rWJV1SUX2D1YUmbFwfJYRCtWlypO0/ZAM49VypVeOpd+WAAA5Bs+fgIAII80nHiEFA4vUXhlJENRzYnU6IUPdtXhM/+qabFBTHdbCqZBeDTsaBThVV4IhxzFk9JvHmAqIQAA+YYACwCAPNHxygtqf/YJhUqXrkn4wubuQ/THr36tm748W9OL6uWyPmGPmUHsJrJaqbbCb96O/FBW5Oi+1+L6fLprKwAAIB8whRAAgDwxc/URcmrq5IR67/OnmkSD3i4fpw3G/1U1qQWKeUm7B10xp0+mafsqdRWKOA6j2PKMmUqYSEmvnMdUQgAA8gUjsAAAyAPzTzhsYd+rXgyvjPnRao1v/Vzfvb2Rol5SLaFuVjXEf1ccHFVVpmiI8CofmamEiaR05WNMJQQAIF8QYAEAEHCJD95Vx7NPyikptZXe1RIuVWmqTVPf3FBj2r/W/HCl3YPFSbiuhpYXqzIWETMH81d5saObn49rdhNTCQEAyAdMIQQAIOBmbTBeisWWuHF7pkJeSnXx2TpwzO9118AdVJ+YQ2esH0m6nqqLIxpRWUrfqwKQSKUfz9KQ/nVKdsJhAADQexiBBQBAgDVfdbG8ZCLr4ZXhOmHNjtXr9s9O0BXfXEZz9x8xKw4WR0KEVwXErCA5ZW5Kj72bsBUAABBUjMACACCgvNYWzVxrRYWGDJXj5DJI8jQgMV/PVa2nzcfdpgHx+YoqZff1T+Z0yUs/BOPqKpg2WGBMMLmgVXrnIhq6AwAQZIzAAgAgoBqOP1ShuoE5Dq8MR3OitVq/6W1NfmtTpUIRtTlFdl//Y8IrM3Vw5Zry9Ne2iIIRSr++omHpsodp6A4AQJARYAEAEECJD99Xx+uvyCnqu+CoOVyu2mSDpr65voYmZmpBeru/MYGVmS44urZcYYcVBwtVWfpldtuLCbUzkxAAgMAiwAIAIIAaTj7SH33V1zpCRWoLlejDd7bQ5g2vaFaktl+FOEnX1XKVJSqNhMVadYXLjHKsK5dOvKPNVgAAQNAQYAEAEDBtD/1d7rw5ciIRW+lbKSesOdFB+uekQ3XO99dreqy+X4RYJryqKy3SgJKYUswdLHhFUUcvfpbU17OJKgEACCKauAMAEDCz1ltZKi7NycqDPZI+ZRiYmKuH6rbQTitfr0Hx2YoU6LiklOupJBrWmJoyVhzsR+JJT0NrQrrvuFJbAQAAQcEILAAAAqT1/jvlJVPBC68Mx9Hs2ABtNf/f+vSdLdQSLlO7E7M7C4dZlS4UdjS6mvCqv4lFHL37dVgz5tsCAAAIDEZgAQAQIDPXWlFOZZWcULA/YypOtZvFCrXaag9rdqRWFW6r3ZPfzGlRKn1mNH5ABQ3b+6H2jpgmrjJdz+oAvb/HC7YKAACCgBFYAAAERMsdN6R/MocCH14Z7eFiJRXRV29voonNH2hOpNruyV8mvDIjrsy0QfQ/8URY45eT3iw6VAtaQ3p48nN2DwAACAJGYAEAEBAz1xgpp7omLwKsRRzP1YD4TJ26wvm6auihGpL+2rH78kr6bCiePpYRlaWqLor4o7DQfyRT0rJVZZq/4l6a2tCmUPo/N/2keG/vB+13AACAvsYILAAAAqD173dL4XBehVeG54Q0OzZYV359oW7/4lRNL6pXKg9PLxKeqyGlRaopjhJe9TMpV6qJlik55kRNaWhUNBRVOBRWU7xZD3/9vP0uAADQ1xiBBQBAAMzacFUpGglm8/YM1SQX6L2ysdpw/H2qSLUo5iXsnmAzKw6WxyIaVV1K0/Z+xj8NTpRr9Hp/0MvzHlZJqMrukZJuSiEnpLf3+oetAACAvsQILAAA+ljH80/La2vO6/DKmB+p0sqtX2jKmxupyO1QS6jE7gkus+JgNOwQXvVD5tHuaCvXWus+qxfn/eN/wisjEgprXnuDXvr+LVsBAAB9iRFYAAD0sdnb/Uxec6OcSNRW8lvUTagy1az1J/xNH5SOUU2q0e4JFnMK5KZ/HT+g0g+y0L+0txdr/dWm6LHEfirxBstxftq9LZ5KaJmyQXp8xxttBQAA9BVGYAEA0IcSn3yo1HffFEx4ZSRCUc2PVOq197bXXnMf1fToQH+0S5CY8MqMuFqptnzhNDL0K/FERONGtOlF5xAVe/WLDa+MWDiqD+d+pu+bZ9oKAADoKwRYAAD0oZa//FGhiv+dulQIXCfsN3e/5bOT9aevf6PpsXq5QVmf0JMfXo2qKVM05CxVuOam/5xkylM86akj4and3szX5pZI15Pp7yEkC45E0tHIuiJ9PegAxdur/D5XXakuqtSV79xitwAAQF9hCiEAAH1oxipDFRq8TKcjQApBbWK+XqlaW5uMu1N16a+jXsru6RuJlKtlKopVX1KkZIanQSaoSqT/2eaWNDe7XVPmqL4ypKpSqaLYUSTsKBxa+D0dSU8L2jzNb/E0o2FhyBUJy++5FUl/TzRi+iylT8YK+LEPGrPi4IBYmbwJR+nL+VMVCxXbPZ0zp8rTW2fr+0NetBUAANAXCLAAAOgjLbdcp+Yb/qBQeYWtFK7yVItmR+q0xmoPKuWEVOp22D25ZVYcrCyKaIWqrpu2m9MjE1C1J8wt/XtKHK0zMqJVlwtr5WVCWnGwo9qyng9k/3aOq4+npvTJ967emJzSR9+5Kop6Koo46V+lcIgwK1vMGW84WaZh616it+a9oOJQ5q+7BR1NOm/isdp3zPa2AgAAco0ACwCAPjJrw/FSNJb3qw9mKuZ2qCR9W3vVB/Vl8XBVp5rtntwwjdpjoZBWritfbHhlzogSKU+t8YXB1Xqjwtp2tYh+MT7ij67Klg+mpPTsx0k9+l5SMxe4KityVBKVQoRZvcY8th3tZZq4wb/05PyrVRqqs3syk3STKouW6uXd7rEVAACQawRYAAD0gfjbb2jeYXspXDfAVvqHsJdSbXy29hj7Fz1Qu7kGJebmpDOWf7qT/ovG1VUo9aMzHzM90IRWje2e1hsV0QEbRvXzsRG7N7dmLHD19zeSuvvluD/yq7zYUSxCkLW02ttLtMEan+mRjsNU2smKg92Z0TJHL+9+j5arWMZWAABALhFgAQDQBxac+kt1vPaKnOLue/AUnPSpx8D4DF267PE6a/nTNLhjZlZXlTGnOsn02c64unKFnP9v2m6mEza3p0+GHOnwn8d00M+igQqL3pqc0jVPxPXuN0lVlzn+NEPaZfVcPB7VuBEter1iR4XiA5e451hLok17rLi1zp94rK0AAIBcIsACAKAPzBi/rEKDOl++v/B5GpiYp0dqN9H2K92oQYk5isi1+3qPOctJuK7G1JSrJBqSmTloRlw1tktFEemUbYu069pR+93BNKvR00UPtuupj5KqK18YZCEziWRII2pLNHX57TW/Oayws+Qj61zPVXOiVZ/t/4StAACAXMrmB54AAGAx2p942B951b9Xn3M0O1qnzee/os/e3Vwt4VK1OzG7r/ckXVfLVpaoNBq2I648LWiXfr1Tkf5zfnngwytjUKWj3x9QopfPLdfo+rDfJ8scC7qWSklDykq0YNShmtukpQqvjJATUjyV0BszP7QVAACQSwRYAADkWOs9t8kpKbVb/VtjpEJD4rM0842JGpCcr8ZQmd2z9Ex4VVca08CSmNoSrmYukPbZIKp3fluundYKfnD1Y2b01S1Hluhvx5f5I8ka27yFvb3wE6Zhf4nKFFrpV5o8/3tFQ0V2z9Ipi5bo7s/+ZbcAAEAuEWABAJBLKVfxt1+TE82/ACVb2kPF6gjF9Nnbm2qDpnc1O1Lz3z5VSyrleSqNRrRcRYlmNqY0sDKk/5xfphO27J0goy+tPDSkF39drkN/HtP0Bk/JH3el7+dMppfsKNfya9ytD5teVVGo3O5ZekXhIj08+Xm7BQAAcokACwCAHGp98H45ZekLarpx/4+UE9Gc6AA98dHeOmnabZoeq1/iEMuMvgmn798VKsv07byUztqhWA+cWKqq0sK6z4/aLKYXzy1XNCx/aiQWineUauKa7+rfTdepxKmx1d5hFgEwq1m+NfMjWwEAALlCgAUAQA51PPpg/1x5MAOeE9Ls2BBd9s0luuezE/0QK9XDUxUzpc5MrxteWqZw2NMbvynXHusW7mi3gRWOnjm7XD8fG/F7Y/X3KYXxeEwTRs3SM4ljVKp6W+1dJZFi/f3LJ+0WAADIFVYhBAAgh2aMG6ZQ/ZB+3sC9e9XJRk0qHaWJE/6h8lSLiryE3dM5c0qTcD0NjJZpywkxXb1f/woKn/wgoRPvbFd9laNwqP89v/wVBwfE9PWwbdTSWqqQE7Z7eherEQIA0DcYgQUAQI50PP+U37yd8Kp7DZFKjWz7VtPeXF/FboeaQyV2Tyc8Ke56KkoV61c7lvS78MrYckJUT51ZpoYWKdHP+mIlU9Kw8hLNWe4ANbUUZS28MsxqhO3JDn3b+L2tAACAXCDAAgAgR9oe+aecIqYPZqotXKKQ52rqmxtqtbbPNDdcZff8VNx15SRievjkKn+lwf5qeF1I71xUrngyfZ8k+0eIZaaMVoTK1DHmVE1tnK9IKGb3ZI+ZRvjot/+2WwAAIBcIsAAAyBEzAkux7F9cF5JEKKo50Rr9+/1ddPCcf2padOBPmrub0UZtbRF9+Ns6rb48pzah9F3w2m/KFU7/2pEo7BDLNMLw4mWqX+0Gfd70nmKhUrsnu4rCMT32DQEWAAC5xFkeAAA5kJz8Rfpi25Vj0gX0iN/cPTpY131+pu6Zdp6mR+uV9BZOw0y5nuY2efr2ioEaXO2XYL3wq3JFwoU9EiveUabVVn9ZrzXdpWInd0+AaCiid2ZNslsAACAXOIsGACAHOl58lumDS8NxNLuoXrtOvk+ffrO3Ospr1ZgIa+Z8V5MvHay6Cvt9+B8mxEokTY+owgux4vEirbrSVD2bOF0lGmiruWH62JVGivXvqW/YCgAAyDYCLAAAcqDjhWfkxIrsFpbUgqIaDf7+AzV8uqk2WNbVmxcM0XIDaIrflRd+XaaGVsk1zaIKRCIZ1oj6hN4pPUCx1OA+WRghFo7p39+/abcAAEC2EWABAJAD8bdfl6L9t7l4b4rHyjR78nQ9MflorTWc8Ko7xVFHD51cqhkLPHmmaVSeS6YcDaso1ozhB6q9vcJfFbAvxMJRvfA9I7AAAMgVAiwAALIs8f7bcmKxPhklUoi8eFxeVY3057/bCrqz/MCQLt6zWHOa8jvAcl2pOlKqlhWP06zmFkWcvguFI05YnzZMtlsAACDbCLAAAMiyjjdflaJMH+wNnuvKa5qvQc8w8qWndl4rqk1XiaqlIz9DLH/0WLJMpav8Tl83f6aoU2L39A2/D1a4WC9Pe9tWAABANhFgAQCQZYm3XpcTY/rg0jL5hTv9e9X98wlbQU9ds3+xouGFqzfmm3hHuVZZ7Sl92PqQipxKW+1b0XBUr898324BAIBsIsACACDL/P5XEQKspWLCqzmNqr7sBEWWX9kWsSTuPrpUM/1+WLaQB+LxYk1Y6Su9ED9fxRpgq30vGorozZkf2S0AAJBNBFgAAGSR2zBPXrxDTogfuUvDbfZUul1IxTucaStYUssOCGn/DWN5M5UwmYxoxOBmvVVyqIrdvllxsDPRUFRvzvrQbgEAgGzibBoAgCyK+9MH6X+1NNz2kKLLfqLKi+62FSyts3cskplF6AZ8KqFZcXBwRZGmDT1IyY5qOX204mBnQo6jRCqp+R2NtgIAALKFAAsAgCxKvPOGFGX64JLyEo7CZY2qvnBkemv1hUX0isv3Ltb81uAGWGbFwbpYqVpHHa45LQmFnYjdEyxF4ajeoA8WAABZR4AFAEAWJT79WA79r5aIlzK3kKpP+UShUU/ZKnrLJmMjGloTUjIVvBDL9OeKpMoUXukiTWmZoqhTbPcETyQU0ftzPrVbAAAgWwiwAADIouQnH6WvcIM5ciTI/BUHm2OqPfU1OYPWTd+H9XYPetNle5VofkuwAizzr0l2lGm5Cf/Qp+3PKOZULNwRUFEnok/mTbZbAAAgWwiwAADIFs+T29xEA/eeMuFVQ5Gqj/5YJrsIj77T7kBvGzc8pJH1YSUCNAor0VGiVVb+WK/Ff6di1dlqcEVCYX0890u7BQAAsoUzagAAsiTx6UdyojG7hUy5TVFV7Py1ois1SEXLSqWj7B5kw5nbF6mxLRgBVjIR1Yih8/VG7EgVe4NtNdhCTkjft8y0WwAAIFsIsAAAyJLkZ5OYPthDbmtYRWvMUcnW38ttSJ+orHiF3YNsmTgqrMoSR6k+XpEwmQppcGVMUwYfJC8xUI7j2D3BZv6dsVBUU5qm2woAAMgGAiwAALIk8eknBFg94MVDigxuU+Xhn8ud78jEF6H6PRbuRFYdvkmRWuN2ow+kXKk2VqIFow7UglYp7ITtnvxgphFOmsc0QgAAsokACwCALElN/VZOmAArE17KkRNxVX3a+3IXhNPbnpxlD7B7kW37bxhVc7vnN8/PNfN3FnllclY6R9NbZiniFNk9+cMEbt82fW+3AABANhBgAQCQJampU9JXtvk1kqQveG761hpWzVnvyetIn5p4jpRM33XLn2G/A7mw3qhIzpu5m/DKrDg4eJU79WX7a4o5ZXZPfgk7IX3byBRCAACyiQALAIAsSX33LQFWN0yA4S6Iqfqkj6TiZPpOC6VrKTmm933Z2IXfhJzYbd2o2nM8jTAZL9XKq7yptxN/UZFqbDX/hENhTWmeZrcAAEA2EGABAJAlXjyeN42o+4oJryr2/0KR5ZqkuA37zPTBZfZb+DVyZusJEbXEczeNMJmIabnhM/V6+EQVe/W2mp8WTiEkwAIAIJsIsAAAyILUtKk0cO+G2xxR6SbTVLLBLHmtP7iv3PQJypCD7AZyaZVhYSVzsBqhv+JgjaOvBx6ocHJQ3ge9ZgrhFKYQAgCQVQRYAABkQer77+SE+THbGbc9pNioRpXv9bXcxh9MszTDf1KSU7uZLSCXfrZyWPGk3cgSs+LgwOISzVt+f7W0FSmUZysOLo4J4FzTzA0AAGQNZ9YAAGSBO2dW+qcs/a8Wx0s6CpclVXn8x/6Kg+nL/4U70vz+V1VD7BZybb1R2Q2wTD5ZqjK1r3iyZrcuUMRvdlYYwqGQ5rTNt1sAAKC3EWABAJAFqTmz0z9l+TH7Y/6Kg/Gwqs9+V15L+v4xKw7+kJk+OHB7u4FcW3NERB2J7Ewh9Bv2d5SpapXr9V3Hh4o6pXZPYQjJ0dyOBrsFAAB6G2fWAABkwcIRWPyY/SE/wGiMqeaM9yTHbCzm/jGzsKo2WPg1+sSAipBSWeiDlYyXaeS4l/RR/B7FVGWrhcNxQprXRoAFAEC2cGYNAEAWuAsaWYHwh0xe1VCkqiM+UXhAm5ToZHpl+vucyol2A31hwrJhJVN2o5ckE0Vaftlv9WboDBV5A221sISckOa2E2ABAJAtBFgAAGSB1zifEVg/4DZHVbbDN4qtOk9eeyerM5ohWibAKhtjC+gLyw90/EbrvSWZDGtwTUKf1x2iWHJwwQa7ofRxMYUQAIDs4cwaAIAs8JoWmDlFdqt/c9vCKlp1rsq2myqvufPG9p5cFVBP77w1YoCZQmg3llLKdTSopFhzlz9A8fZyf5pdofJHYLWlX/cAACArCLAAAMgCt7WdACvNi4cUGdiuyiM+k9vwvysO/oQZgVWyrN1AXxlS0zsBlmmjVa5SNa14jOa2tirsRO2ewuSk/2tNttktAADQ2wiwAADIhvbWfh9gean08Yc9VZ/2ntzGbsIrw0wfLB1pN9BXassduSZMXArmtzvxMsXG/k4zOr5QxCmxewqXeXa3JtsXbgAAgF5HgAUAQBZ4bWYkRv8NsDw3fWuNqPaM9+Ql06cbXgb3hQk9ooPtBvpKbfnC0VNLw6w4OHzsE/oy8S9FVWmrhc309mpLEGABAJAtBFgAAGRDKmGuaO1G/2JG37gLYqo+7iOpPH0/mAArU5FS+wX6SlFk6Z63yUSxRoz4Qu+GLlBMdbbaHzhKuOnnOwAAyAoCLAAAssBN9uIybnnGbYyqYq+vFBnVKHV03rR9sUJl9gv0leKo44eQSyKVjKi+tlkfVx6mWGqITF+o/sIcadIMPQQAAFlBgAUAQDakkvaL/sVtiahkw5kq2WSGvPTXPRZmBFZfW9KBg6mUo7rSIs1a9kC58Rp/Sl1/k3L75+seAIBcIMACACAbwj0ceVQAvI6Qoss1q2K/r+QuWMLjdzvsF+grbR1ej0Ms0zOrKlyqxpGHaUFbUmFnCcLLAuCaRm4AACArCLAAAMiCUCRqv+ofvKQjpzilqpM+tOHVEo6+ceP2C/SVtoTXo0fPTDcMJ8uUGn2BZsenKuIU2z39T8Tpf8E1AAC5QoAFAEA2xGILr+z7AX/FwY6Qas5+R15r+tQikxUHO5Ocb79AX2mL92waYSpepvqVH9B37vOKqtxW+6cwARYAAFlDgAUAQBY4kVj6/ws/wFq04mDNaR+kr97NxlKcWjgmCJtuN9BXpi/wFMowwUrGS7TcCh/qA12lmNefVhz8KfNqD4cIsAAAyBYCLAAAsiEW7Q/5ldyGmKoO/1Thwa1SYikv3k2AFSfA6mvT57sKZXCGmEpGNWjgPH1U/ksVuYNttT/zVBwusl8DAIDeRoAFAEAWOBHTxLqwEyy3KaKybb5TbI258tp6oWm3GfXT8pndQF+Z0eAq3M0ZYioVUm1pVDOGHignMbBfrjj4Y57nqSRCgAUAQLYQYAEAkA3FxQWdX7ltYcXGNqhs5ynymnpn2pSTPi3x2vvBsLWA+2Kmp0gXZ4iuK1VHS9Q48kC1tIcUou+Tz0v/VxLpvw3sAQDINgIsAACyIFRZlb6iTV/pFyAv4Shc16GqYz6RO9+EF700+saM4kmfmXjtU20BfeGj71KKdJJJmZ5nUbdMbaPO1tz4bIUdRhwtYkZglUdL7BYAAOhtBFgAAGSBU1WzcKhKgfFS5v8d1Zz2nlx/5FUvTx0zf9yC1xZ+jT7xvemBtZgpgWZsnBsvU9WY2zXDfV0RlS3cAZ+bvoeqiirsFgAA6G0EWAAAZEGoqsofkVFIzOF4zTHVnPGePNdJX7H3cnhlmBFYDS/bDeTap9NcFUUWDob7sVS8TMNHvqnPnBsV82psFYuY13tljAALAIBsIcACACALQgU2AssPr8yKg8d9qFBlh5TM0ilE+o915zxmN5Br//kiqVjkp+lVKhlT/aDp+rDsRMXcelvFD7npF0k1ARYAAFlDgAUAQBY4VdULU58C4TVGVbb7ZEVHN8rr6IUVBzvhOGF5DV/YLeTaa1+kFPvRw5tKhVVd5um7IQcpnBjEioOdcNP/DShhZBoAANlCgAUAQBaEq6oKZgSW2xpW0cTZKt18uryW7IVXPhOOpP/nNbxkC8il175MKfqDBu7mKVwVLVbjyIPU0VHEioNdcD0TYNXaLQAA0NsIsAAAyIJQ/TIFEWB5HSFFhrao8uAv5DbkKLxI/zXejHvtBnLljS8Xrj64aISVGUBY7JWpZeTJmt/RoLAT8+tYPD/AKq6yWwAAoLcRYAEAkAXhwUPkpfwl+/KWl3SkIlfVp3wod4EJr3I0dSz9V7lTr7cbyJXHP0ioOLrwa7/nWbxMRaOv0xzvQ0VUunAHFss0cDe3SCjLIxQBAOjHCLAAAMiC0MB60zzIbuUfz03f2sOqPevd9K/p0wUvR+FVmuNE5HV4Uiu9sHLpX28nVGQDLDdRpsGj/q2vnXsV9RhV1B0z+mpI2SC7BQAAsoEACwCAbAmH/VEZ+cb8k90FMVWf8oEUS0mpPjhdiKT/Dd9cYTeQbab3lSdHIcdRKlmkgfXfalLJWYp6A+13oCspz9XwiiF2CwAAZAMBFgAAWRIeYvpg5dkoLBteVR78md/7SvEc9b36sXBI7rc32g1k250vx1UaM0/XsKorEppSf4iiycFycjVtNM+lvJSGVwy2WwAAIBsIsAAAyJLw4GXSV7b51cjdbYmodPOpKpo4R15b3/XzcZyQydLk0sw965Lpp+jzk5KKhkOqiBarYcT+SsTL/ccAmTEjsIaVEWABAJBNnJkAAJAlkeVXSF/ZJu1W8LntYcVGL1D57t/Ka+yjkVc/FEnffZ8ebTeQLdc/06GKYkclKlXLyGPU2NGmsGObYSEjKdfV8HICLAAAsokACwCALImMWDFvViL0Eo7ClXFVHTdJ7vwcrjjYBces6NbSIC14zVaQDbf8O65Sp1wadaXmeV8orBK7B5kyUwhHVA6zWwAAIBsIsAAAyJLwCiOlZPBHYKWvvdO3kGrOelduczDCq/+KSakPdrEb6G13v5JIP0crNHDFJ/R96BFFvEq7Bz2RdJMaU7uC3QIAANlAgAUAQJaElx8V+BFY/oqDTTHVnv6ePNdJbwSrabcZheU2Tpfb8G9bQW+66uGQVlj+C31afIFiXp2toifMSqOuPFXFym0FAABkAwEWAABZEhk2XErE7VYAmfCqoUjVx3ysUF27lAzoaYEZhfXO5nYDveWm5zxVVzXr60GHKZYakq6w4uCSMNMHR1WlX+sAACCrCLAAAMiiUHWtPDeYKxG6TVGV7/K1omMb5LX33YqD3fF7YXUk5E65xlbQG2593lF8pQOlRI0cwqsllnRTGlPD9EEAALKNAAsAgCyKjV9VSiTsVnC4rWEVrTFHpVt9L685uOHVf0VDcj88yW5gaV14n5Ra+TC1xpMKOXnw+AdY0ktpdM0IuwUAALKFAAsAgCwKjx0vL2CN3L14SJHB7ao87HO5DaZpe/A5TkheVEq9Os5WsKS++k766/wL1BGZqrCKbRVLyjRwX6VmlN0CAADZQoAFAEAWRVcen77CDc4ILC/lyIm4qj7tPbmNAVtxsBtOOCJ3/sdyv7/OVrAkTnj2b1Lt84p4NB3vDfFUQmsNIlgFACDbCLAAAMii6Nhx8gISYHlu+tYaUc1Z78nrSJ8CePnX98iJhZV692gpscBW0BOXvPCKPo38XsWqtRUsDbMCoeM4qiupthUAAJAtBFgAAGRReBmzEmHSv9DtS+avdxfEVH3yB1JxUkrl6SmA40hF6bv0BQKDnnp16lf601dnqTpan96iaXtvSLhJrTpgZbsFAACyiQALAIAsi648TurjPlgmvKrY/wtFlm2W4vnR96oz/qqErpR6bbytoDvNyVbt8dShGlw2gBUHe5EJsFYfSIAFAEAuEGABAJBlsbXWkdeHKxG6zRGVbjJNJRvM8qcQFgInYvphfST3/d1sBV1Z+77dNKCkWiGHU7/etDDAGmu3AABANnEWAwBAlkVXn5i+0o3brdxy20OKjWpU+V5f26bthcOJRZSa+g+5X5xuK1icLf6xh8JORBEzcg29qiMV1/pDVrNbAAAgmwiwAADIsugaa8uL5z7A8pKOwuVJVR7/sdwF+bXiYKac4ohSn10h95tLbAX/L6lTnzxY37S2qiQSszX0FtdzVRyOaWAJDfEBAMgFAiwAALIsPGCgP+XNc11byT5/xcF4WNVnvSuvJf3jPg9XHMyUUxJR6qOz5X5xpq1A3jz97aWDdf/M2aqKFdsiepOZPrjBMqvbLQAAkG0EWAAA5EBsvY3SV7y56YPlrzjYGFPNGe9Jjtko/B/3foj1+WVyJx1iK/1Y++ea9PK2OvrrJtXHimwRvS2eSmj9IWvaLQAAkG0EWAAA5EDRBj+TF++wW1lk8qqGIlUd+YnCA9qkRGH1veqKP53w21uVemMdW+mHZv1VTa+up19MGanlYmE5DisOZovpf7XBEEZgAQCQKwRYAADkQNF6G+ckwHKboyrb8RvFJsyT197/mnabxu7u/DeVeK5U/jzK/uTTo6WP9tR6c/dQfaiV8CqLPM9T0k1pbO0oWwEAANlGgAUAQA6El1/Bb6FuLnyzxW0Lq2jVuSrbdqq85v4z8urHTL8xpdqUeCwsb+5jtlrYUv8eIM24Tpu3HCfFZygS4hQvm+JuQhsss4bdAgAAucDZDQAAORJb/2fpK9/srEboxUOKDGxX5RGfyW0ozBUHe8IJRaSikJKvbqvUe9vbauFxp9+h5KOOwu5cHRH/paY0TlVJuP+Gl7li+l9tPnw9uwUAAHKBAAsAgBwp2nSrrEwj9FKOFPZUffp7chsJrxZxnJDf3N2d+YgSjzvy5j5p9xQAN67kq2OVeudARYqk6yJH6alZM1UZ4dQuF9qSHdp82Q3sFgAAyAXOcgAAyJHiX2wlr63VbvUOMyPRa46o9sx3/VFY8givfsyfUhh1lHxtKyX/M1ZKzLF78pP72UlKPFYkr+kTRWPSW5UH6PxvZmtg+hiRfa7nKpZ+Ti1bsYytAACAXCDAAgAgR0JV1QrXDZSXStnK0jHhlVlxsPqkD6XSpJTix3pnHCfsr1LoNX+ixJMDlfpg1/Sdl4NVIXuR+921SjzhKPX1NeljCZtMTrOqfq5tPk9qeDR7vdXwvzpSCW217EZ2CwAA5ApnugAA5FDRVtvL6+id4MRtjKpiny8UGdEkxel7lAknHPHDH3f6A0o8VqzU+ztLHdPt3mByJ1+wMLj66Bgp4siJRhT2UlL5GG3wzWgNi7Sx4mAOtac6tN2ITe0WAADIFQIsAAByqGSrHdJXwG12a8m5LRGVbDhTJT+bKa81YqvIiOP40wr9IGvmg0o8vYzfT8qdcbf9hr7ntX6h1Ae7+Q3aU5+ftzC4iqX/zWYkmZuUUzFIG8zaXCWpWQo7nM7lillFtC3Zpi3pfwUAQM5xxgMAQA5FV13Dn/vnea6t9JzXEVJ02WZV7PeV3AWMvFpiJsgyI7JKFk4tTL27n5KPO/6oLG/us/abcsfrmCl38nlKvFCl5POj5U7/h7yisD/iygRXC78ppXBxWHvN30PzWqaqKMTjn0sJN6mJ9avZLQAAkEsEWAAA5FjRL7aSOuJ2q2e8pCOVplR18oc2vGLqWG9wQhF/hJMXDfmjspJv/EIJM/rpjbXlfn2ZvKZ37Xf2Hi/VKm/mX+V+fICSz4TSt8FKfX6BlGj0+3X5o8R+ODXQ8xRxPF3i/lJvzv1e5WHCq1wz0wd3WIHpgwAA9AXHM2OhAQBAznS89LwaTjpcoepaW8mMGbTltYVVd8kb6S/SBZfPobLKjJRzU+n7Of21uaXvc6esRk7VenIqJkilY+SUjpJig9O3eilS4f+2/zJ9qhJzpfic9OM2WWr7Smr+UK4JwxrekZdMf495CM0tbAaEdT0VNOIm9VTlETro8zkaGiO47AvfN8/U1wc+q6JIzFYAAECuEGABANAHZq62vJy6gf87wqYL5qe12xBT7TnvKjSgTUow+ibnTKBlQilz5rS42+IsenjNrz+8hZz/nxaYARNefVu9vdb+rFTLRhIZP2/QexKphAaXDdQTO95kKwAAIJf46BYAgD5QvPm2Ug9WIzThVdXhnyo8uJXwqq+YnllmqqHpm2Wm95neVKaxelH6Zqb8Le5m9pmb+T7z/eb3md/fw/AqWbGqNvpqoIYTXvWZtlSH9hy9jd0CAAC5RoAFAEAfKN5tH3ltLXara25TRGXbfKfYGnPTv4cVB/sTs+KgKoZp4oyNVePNU4jwqk+YCQtNiRbtO3p7WwEAALlGgAUAQB8omrhB+qdwSJ7b9WqEbltYsbENKtt5irwmRl71K15S4dJS7TRvN7W3fqcYKw72GbP64NqDxisWjtoKAADINQIsAAD6SMnOe8trb7dbP+UlHIXrOlR1zCdy55vwgtE3/YbnKZJ+yE9rO1gfz/9Gpaw42Kdak+06cOzOdgsAAPQFAiwAAPpI6f6HyWtutFv/y/QKN4FVzRnvyfVHXhFe9RsmvFJK9xUfq/umT1O1SbLQZ8z0wbZku3ZZYXNbAQAAfYEACwCAPhIZvqwiy60gL5mwlYXS18vymmOqOePd9D5Hcgmv+pOIl9Kk6n10/JczVB/lse9r7am4dhixqd0CAAB9hQALAIA+VHbIL+W1/H8zdz+8MisOHvehQpVxKcmP6v7ErDjYWLm+Nvs8omWjLisOBkBTvEW/nLC33QIAAH2Fs2IAAPpQyc57+iOwFjVzdxujKtt9sqKjG+V1sOJgfxIyKw5WjtJ6U1fXYKeJ8CoAUm5KdSVVGl832lYAAEBfIcACAKCPle17iLz2NrmtYZWsO0ulm0+X10J41a+4SYXKB2jzWdvJ6fhekRCnaEHQkmzT0eP3sVsAAKAvOZ7pTAkAAPqM19aqGRNWVmz1KtWc8aHcBpq29yueq0jM1eHtx+vF2VNUSdP2QDCnyNNbZ+v7Q160FQAA0Jf4eA8AgD7mlJSqdNsRqj7mQ7kLCK/6Fc9TxHF1bfhEPT2L8CpI2lMd2nPFre0WAADoa4zAAgAgEL5W4tEV5BQzdbA/MU3b36g5UjtMmqXhRXyuGCTfN8/U+/s8pIEltbYCAAD6EmdKAAAEwgiFasbIM4280S+Y8GpO7bba/rMmDYsx6i5IOlJxbTx0bcIrAAAChAALAICACK9yuxS3GyhoYX/FwQla96thGhpuY8XBgJnf0ajz1jnGbgEAgCAgwAIAICiqJkpltYzCKnBO+vF1Kodqo5mbqjQ5U2GH07EgSaQSGlM9QivXjrQVAAAQBJwxAQAQIOFVbklfQdsNFB4vpXBJTHs37K05TV+rKEzT9qCZ17FAl294mt0CAABBQYAFAECAhAbuKMXEKKxCZFYcDHm6yD1Ob8z+UuURGvYHTTyV8EderTFwrK0AAICgIMACACBgwuPvYxRWwfEU8VJ6svJE/fnbr1QbZeRVEM1tb9DvNzrbbgEAgCAhwAIAIGBC9XtKJcWMwiogETelb+r21v6fTNMyUU6/giieimvNQeO0Er2vAAAIJM6gAAAIoPCEBxiFVSAiblLx6vX0s89LNTyaYMXBgJrdNl9/2JjRVwAABBUBFgAAARSq21oqrWMUVp4zKw6qaqTW+34dVXtzFWLFwUBqT3Zo82U30HKVQ20FAAAEDWdRAAAEVHS1f0lxu4H84yUVLqvQjnN3UXvrN4qF6HsVRJ7naU77fP1lk/NtBQAABBEBFgAAQVW9vkJVyzMKKw95niuzyODp8aM1ae7nKg2z4mBQtSbbdMjY3VQcKbYVAAAQRARYAAAEWHjtl6WO9Beet7CA4Es/VlHP1b2lp+ne7z5VdZTwKqjc9GPVnGjTReudaCsAACCoCLAAAAiyoqEKDd9BXiplCwg6s+LgpAFH6sRPJ6s+yrTBIFsQb9J56xxjtwAAQJA5npn4DwAAAi35qCOvKCSHJuCBFkkl1TRgS630ab0Gh5oVYsXBwEq6C0Phd/f+p/8rAAAINs6CAQDIA6GVz5USrt1CEIVMr7LqcVr/6xU1yGkkvAo407j9+k1+Y7cAAEDQEWABAJAHQiukL7TDpr0SDd0DyU0qVD5Ym8/eSl7Hd4qw4mCgdaTiWrt+nCYOnmArAAAg6AiwAADIE+E1HlvY0B3B4qUUKQrpyJaDNaXhC5Ww4mCgme4Zs9vm6Z4tr7IVAACQDwiwAADIE6EBWytUt6q8FKOwAsPzFJGn66Jn6Mnpk1QZIbwKusZ4s05d/VAVh4tsBQAA5AOauAMAkFdSSjwSkVMcTv8Up8dSXzNN298YdIp2+OArDTNN9tP/IbhSbvr14yX14T4P2woAAMgXjMACACCvhBUee568xMIV1NB3THg1a+Du2v6jaRoWI7zKB7Pa5umWzS62WwAAIJ8QYAEAkGdCK5wvxSLyzKp36BNhc9/XrK0NvqzT0HC7HEbDBV5bsl2bDV9Pa9ePtxUAAJBPCLAAAMhD0XXeltrNV3QCyDXHTcqpHKGNZv5cJYnpCoc4nQo613PVFG/V7ZtfaisAACDfcMYFAEA+qpig8PK7y0sylTCnvKTCJaXap3FvzVnwmYpYcTAvzG1v0O83PttuAQCAfESABQBAngqN/6v/q+cxlTAnPFeR9JnTRTpZr838SOWRqN2BIOtIxTWubkXtNPIXtgIAAPIRARYAAHksMvEVO5UQWeV5iniunqw5R3+e/KHqooRX+cAstm1GXz247bW2AgAA8hUBFgAAecypXl+hoVvKSzIKK5sibkrfDjpM+3/0mZaJhW0VQTevvUGXrX+qIiEeMwAA8p3jmY+mAABAXks87khRR47DhXpvi6SSSg7YTCM/X04DNF8hh8//8oGZOjikbJCe3PEmWwEAAPmMMzAAAApAZN1npXY+k+ptZsVB1a6iiVNWVbU3l/AqTyyaOvjI9tfZCgAAyHechQEAUACcmk0VGrY9Uwl7k5tUuHyAdpq7g9pbvlQsxIqD+WJO23z94WfnKBqiVxkAAIWCAAsAgAIRXu1fkmMWyyPEWlqeWXEwJp2WOFofz/5Ypaw4mDfaku1ae/B47TpyS1sBAACFgAALAIACEt3wk4WrEtLicsml77uo5+r+8vN13zfvqZoVB/OGm37cWpPt+tvWv7cVAABQKAiwAAAoJKUrKbzikfKSKVtAT5kVBz+pP0nHf/y+6mNMG8wnM1rn6J4trrRbAACgkBBgAQBQYEIrXS/FSphKuATMioNN9btos4/maFjMrOro2D0IuuZ4i3YbtaXWHbKarQAAgELieGaZFgAAUFhSLUo8Xi6nOJz+aU8Ik4lQKqlQ3Zoa9+0GinZMUSSUvu+QF5JuSikvpQ/2+ZetAACAQsMILAAAClG4TOHVb5DXwVTCjLhJhaqGa4uZW0rt3xBe5RHzWez01tn61/bX2QoAAChEBFgAABSo0NDDFapfX16SqYRd8lKKFEd1RMsh+nbehyoJ07Q9n8zvWKBfrX2Ulq8YaisAAKAQEWABAFDAwmu9InlmlAoh1mJ5niKOp2tjv9JT37+jymjM7kA+aE92aKWakTp2wn62AgAAChU9sAAAKHQtnyjx3Fg5JfTD+l+eIqmU3hhyvnZ4510NKw7LSf+H/OB6ruZ3NGrygc/YCgAAKGSMwAIAoNCVrazw2F/Li9MP64dMeDV78CHa8f1PNKyI8CqfmM9fp7XM0kPbXWsrAACg0BFgAQDQD4RGXqBQzUryUkwlNMLmfhiwidb/LKYh4Q45jEzLKw3xJp2w6gEaXzfaVgAAQKFjCiEAAP1I4glHipiZhOn/66ccN6lwzRhtNGMnLWj8VEXh/ntf5KOOVFwDS2r07M632woAAOgPGIEFAEA/Et1oktSW/qK/fn5lwqvSCu23YF/NWTCJ8CrPmL5XDR2NhFcAAPRDBFgAAPQnfj+sX/XLflie5yoSkS5yTtN/pr2p8ggrDuaTRX2vHtj2z7YCAAD6EwIsAAD6mdDICxWqnSAv2Y/6YXmeoq6rJ2su0p+/fFN1McKrfGNGXp2w2gFaa9AqtgIAAPoTemABANBPJZ5y0mcC6f+FCn8aXSSZ1HfDTtZa73yj4VHTA4ym7fmkPdmhZSuG6NEdbrAVAADQ3xBgAQDQX8XnKPHUQDnFYZPo2GLhiaSSStbvqJGf1GqAGhRyGICeT1JuSk2JVn1xwJO2AgAA+iPO4AAA6K9iAxRe6y557YXbD8tJJaUBa2jiN6NU7c0jvMozi/pePb3TzbYCAAD6K87iAADox0KD91V4uT3kJQqwH5ZZcbBqiHaZu4Pamj9XrB9MlSw0s9vm64oNT9fylcNsBQAA9FcEWAAA9HOh8ffLKamTZ0YrFQjPS8ksMnh64jh9MPMtlbHiYN5pTrRqk2HraP+VdrQVAADQn9EDCwAA+BKPO1LUkeOEbSVPpU9tIl5K9w+4TKd++JIGFxXZHcgXCTfpT/d8Z68HbAUAAPR3jMACAAC+6EbvS22eHwDls0gqpU+Gnq/jP/iP6mOMvMo3bvr5N7ttnl7e7W5bAQAAIMACAACLlE9QeJXz5cXzt6m7WXGwZZmDtPl7X2pYUUhOAa+uWIgWNm2fqQe2/ZNKIyW2CgAAQIAFAAB+ILTCeQoNWEteMv/6YYVMD6+BG2viFxUa6DSz4mAemtexQKescYgm1k+wFQAAgIU4swMAAP8jvM6b6f+TPDePQizTM6l6pLacuYnU9q0ioTzv49UPtSbatPrAlXXq6ofYCgAAwP8jwAIAAD8R3aRVipspXa6tBJiXVKSkREd3HK5v5rytkkjU7kC+SLrpxzAU0T+2+aOtAAAA/C8CLAAA8FPhEkXW/7fU7ga7qbvnKuJI1xX/Ro99/bIqo6w4mG9M36uZrXP14q532QoAAMBPEWABAIDFcmo2VnjMGcFt6u55iriuXh98qX4z6SUNYMXBvOOl/5vWMkv3bfU7VRVV2CoAAMBPEWABAIBOhVa8NLBN3SOplOYOO147vvuOhsWirDiYh+a3N+rYVffTxkPXthUAAIDFczwzbhsAAKALiWdDkuvJCUVspW+FU0k59dtp9OfDVZ6crjBN2/OOadq+Uu0K9L0CAAAZYQQWAADoVnSTjsA0dXdMeFU3QRt9N0HFie8Jr/JQwk0qStN2AADQAwRYAACge6GoIhu8KLX1cVN3N6lwxQAd0Lin5jR8oKIwKw7mGzf9/JndNk8v736vrQAAAHSPAAsAAGTEqd5I4bHn9FlTdzP6KxKRLgmdpZenvqpyVhzMO6ZzxbSWmfr71n9IP36ltgoAANA9AiwAAJCx0MjfKjRg7dw3dfc8RV1Xzwz6g/746XOqixFe5aN57Q06fc3DtN6Q1WwFAAAgMzRxBwAAPZbrpu6RZFJTljtP67zxgYbFHFYczEMtiVatNmCs7tnqSlsBAADIHAEWAADoOTehxOMxqSgkx8nugG4TXqWG7qeRH0VVqwaFs/z3ofclUgm/2f7bez1gKwAAAD3DGSAAAOg509R9/X9L7dlt6m5WHNTg9TVx8mBVufMIr/KQ67ma296gV3e/31YAAAB6jrNAAACwRJyajRUec3r2mrqbFQerl9Uus7dRa9NnioVzM10RvWdh0/ZZemi769KPHytGAgCAJUeABQAAllhoxcsUGrBWrzd197yUIkVhnZ06SR9Mf1VlkZjdg3xiRl79ep1jtMagsbYCAACwZAiwAADAUgmv82b6/yTP7aUQy6w4mL79rfoa3fnFM6qJFdsdyCfNiVZtuMxaOnr83rYCAACw5GjiDgAAll6qVYnHy6TipW3q7imSTOmT5a/Qz19/ScNjEVYczEPxVELF4SK9vudfbQUAAGDpEGABAIBe4c1/QclXNpFTHE6fYSxZ6GRWHGwZfozGvNeg+lCrQjRtzzumafuctvn68sBnFA2lnwsAAAC9gLNCAADQK5yanys8+pQlbuoeMisODtlKEz8Na4DTTHiVh8znot83z9TD219PeAUAAHoVZ4YAAKDXhEZfqVDtuJ43dU8lFaobq22mbyC1fa1oiBUH89Gc9vm6aP2TNWHAGFsBAADoHQRYAACgV4XX/dD/NdOm7ub7ImVlOqbtMH05+zWVsOJgXmqKt2iz4evr0LG72goAAEDvIcACAAC9LrrJTKkj/UU3rTY9z1U0LP2l9Ao9MvkZVUVZcTAfmabt1cWVunmz39oKAABA7yLAAgAAvS82SOG17pTX3kU/LM9TNOXqraHX6rwPHtXAGOFVPjJN2xvjzXpt9/ttBQAAoPcRYAEAgKwIDd5P4WV3kZdY/FTCSCqlucufo+3feE7DiorkLOHKheg7i5q2P7HTTbYCAACQHQRYAAAga0IT/iGnqPIn/bDCpsn7sD213gdzNTiSJLzKU7Pb5umKDU/XmOoRtgIAAJAdBFgAACCrIj+fI8UX9rvypZJy6tfRz75dUcWJaYqEwgvryCumafvWy22s/Vfa0VYAAACyhwALAABklxNVZN3HpHZXMisOVi2jgxr20Mx576ooHLXfhHziN20vqtT1m/7GVgAAALKLAAsAAGSdU7e1QsvtrYgjXRo6Ry9OeU4VrDiYl0zT9nntDXppt7tsBQAAIPscz3TfBAAAyIG/v32hjv3gZQ0vrbAV5BO/aXvLTD283XVaq368rQIAAGQfI7AAAEDObLv6r1TqpPxRPMg/8zsadfJqBxNeAQCAnCPAAgAAOVMScvTIDtdrWvNMfzQP8kdbsl2r1I3SaWseaisAAAC5Q4AFAAByamztKJ078VjNbW+wFQRd0jWj5jz9a7vrbAUAACC3CLAAAEDO/XL83po4eFW1JtpsBUFlRsrNaJ2j53e53VYAAAByjwALAAD0ifu2+p1CTtgf3YPgmt02X7/b8AzVlw6wFQAAgNwjwAIAAH3muV1u14zW2fTDCqiWRJs2HrqW9h6zna0AAAD0DQIsAADQZwaW1OiqDc/UnPb5toKgMCPjIqGI7tziclsBAADoOwRYAACgT+0zZjttOGQN+mEFiBkRN71ltp7e6RZbAQAA6FsEWAAAoM/dteWVSnmuUvTDCoTZbfN0zc/OUn1pna0AAAD0LQIsAAAQCM/sfKumt8yhH1Yfa0m0atPh62qvFbe1FQAAgL5HgAUAAAJhWPlgnTfxaM3rWGAryDXT9yoaiujWX1xiKwAAAMFAgAUAAALjqPF7a+WaFdSe7LAV5IoZ+WZWhHxmp1ttBQAAIDgIsAAAQKA8usMNaky0yPVcW0EuzGtfoAvWPUED6XsFAAACiAALAAAEzu2bX6qZrXPtFrLNjHgbWzdSh6+yu60AAAAECwEWAAAInJ8PXUc7jtxMzYlWW0G2mJFuTfEWPbL9X2wFAAAgeAiwAABAIP35Z+cq7ISUclO2gmyY0TpHd291pd0CAAAIJgIsAAAQWGZU0PTW2X6DcfQ+M/JqjxW31gZD1rAVAACAYCLAAgAAgbV85VAdO2FfNcabbQW9JekmVRIp1tUbnWUrAAAAweV4fKQJAAACbu37d1PCTSoaitgKloY5/fu+Zabe3/shDWLVQQAAkAcYgQUAAALvsR1u0MyWOUwl7CUNHY06Z+1fEl4BAIC8QYAFAAACb2BJrc5c6wg1dDTZCpZUPJXQsPLB/tRMAACAfMEUQgAAkDc2+vu+aoo3KxqO2gp6wpz2TWudpS8PeEqlkRJbBQAACD5GYAEAgLzxyA5/0cy2uUwlXELzOhbo4vVOJrwCAAB5hwALAADkjapYuc5e6yg1xJlK2FNm6uCIymE6aOWdbQUAACB/MIUQAADknfX/tpdak+2sSpghc7r3fcvCqYNlUUZfAQCA/MMILAAAkHf+tf11mtnKqoSZMqsOnrfO0YRXAAAgbxFgAQCAvDOguEYnrnagGuPNtoLOJNykhpQN0lHj97YVAACA/MMUQgAAkLfWvH9XuW5KEaYSLtbCqYMz9d7eD6q+dICtAgAA5B9GYAEAgLz1963/oBlMJexUU6JFR47fk/AKAADkPQIsAACQt0ZUDtW+Y7ZXS7LNVrBIyk0pGorq/HWOsxUAAID8RYAFAADy2pUbnqGkm5TrubYCY1bbPN2++SV2CwAAIL8RYAEAgLx302a/1ey2eXYL7ckO/XzYOlpz0DhbAQAAyG8EWAAAIO/9bOg6Wm/Ian5w09+ZfmDzOhbors2vsBUAAID8R4AFAAAKwr1b/s4Pbvp7Q/cF8Sb9au1fSo4tAAAAFAACLAAAUBBCTkjnrH2UH+D0V0k3pYpomX45fm9bAQAAKAwEWAAAoGAcPX4flcfK/CCnP5rTPl9/2fRCuwUAAFA4CLAAAEBBuXuLKzSrba7d6j86UnGtNWic1q6ncTsAACg8BFgAAKCgjK0dpS2X3UBtyXZbKXym75dZhfGOzS+zFQAAgMJCgAUAAArOLb+4RPM7GvtNQ/eWZJsOG7u7KmJltgIAAFBYCLAAAEBBOmONw9QYb7Zbhcv1PLUm2nTheifYCgAAQOEhwAIAAAXp+NUOUCQcUarAG7o3xZt11lpH2i0AAIDCRIAFAAAK1p83PlfzOhbYrcKT8lyFQxEdNX4vWwEAAChMBFgAAKBgbTJ8okZUDFPCTdpKYWnoaNRlG5xitwAAAAoXARYAAChoV258hua1F94orKSbUl1RlXYYsamtAAAAFC4CLAAAUNDWHLiKxtSMUCKVsJXCsHD01el2CwAAoLARYAEAgIJ31YZnaG4B9cJKukktUz5Imw6faCsAAACFjQALAAAUvAkDxmh83YqKF8gorHntjbpqQ0ZfAQCA/oMACwAA9AuXrn+q5nc02q38ZRrSj6gaqnUHr24rAAAAhY8ACwAA9AtmFNYKVfm/IuGCjiadt86xdgsAAKB/IMACAAD9xm8mHucHQPkq5aZUXVSlTYbR+woAAPQvBFgAAKDf+NnQdVRXUq2km7KV/NKYaNE5ax9ptwAAAPoPAiwAANCv/Hrto9UUb7Zb+cP1XEWckHYbtaWtAAAA9B8EWAAAoF/ZcYXNFHLCfiCUT1oTbTpq3D52CwAAoH8hwAIAAP3OMRP2UUuizW4Fn+d5aog368TVD7AVAACA/oUACwAA9DsnrHaAGhPNfjCUDzpSce0wYhO7BQAA0P8QYAEAgH5p5xU2V3sqbreCbUG8SaesfojdAgAA6H8IsAAAQL9kAiETDAVd0k1qeMUyGl2zvK0AAAD0PwRYAACgX1qhapiWrxzqB0RB1pps15Hj9rRbAAAA/RMBFgAA6LeOHhfsZu6mR1dzvFUHrLSjrQAAAPRPBFgAAKDf2nvMtmpLtge2mbtp3r79CjRvBwAAIMACAAD92q6jtlR7qsNuBUtzolVHjtvLbgEAAPRfBFgAAKBfO3zcHn5QFDQpz1VZpESrD1zZVgAAAPovAiwAANCvrVI7SlWxCqXclK0EQ3uyXfuvTO8rAAAAgwALAAD0eweN3UVtAZtG2Bhv0SHpfxcAAAAIsAAAAHTI2F3V2NFst/pewk1qZNVwDSypsxUAAID+jQALAAD0e1Wxco0bsKISqYSt9C2zMuJBK+9stwAAAECABQAAkHbAmJ0CMY3Q8zw1JVp0wEo72QoAAAAIsAAAANL2XWl7NcVb/ACpL5npg2sNHK9wKGwrAAAAIMACAACw1h28mh8g9SUzfXDvMdvZLQAAABgEWAAAANa+Y7bzA6S+YkZ/NSdatffobWwFAAAABgEWAACAteuoLdWSaOuzaYRxN6ENl1nTbgEAAGARAiwAAIAf2GjoWn6Q1Bfakx3aa8Wt7RYAAAAWIcACAAD4gT1GbeUHSbm2aPrgLqO2tBUAAAAsQoAFAADwA7uM2kLNydacTyM0zePXG7Kq3QIAAMAPEWABAAD8yLr1q+d8NcK2ZId2G0XzdgAAgMUhwAIAAPiRvUZvndPVCBdOH2zRnvS/AgAAWCwCLAAAgB/ZY8Wt/X5UuZpGaEZ7rTForEKOYysAAAD4IQIsAACAxVi7flzOphG2pzr80AwAAACLR4AFAACwGHuM2toPlnKhKW6mD9L/CgAAoDMEWAAAAIux5+ht1BRvlZf+L5vMKK/xdaNVFI7ZCgAAAH6MAAsAAGAxIqGIVh0wWslUdqcRtic7tPuKW9ktAAAALA4BFgAAQCf2WHEbtWV5GqGZPrjX6G3tFgAAABaHAAsAAKAT+620vRrjLVlbjdBMH1ypdgWVR0ttBQAAAItDgAUAANCJaCiqDYasrribsJXe1Zps1yEr72K3AAAA0BkCLAAAgC4cPm4PtSTa7FbvMaO6muLN2nelHWwFAAAAnSHAAgAA6MKWy27or0Toeq6t9I72VFy7jNzcbgEAAKArBFgAAADdOHG1g3p9FNa89gb9ap1j7BYAAAC6QoAFAADQjeNX3U/NidZea+benuzQxkPX1pDSAbYCAACArhBgAQAAZODkNQ5WY7zZbi05E4LNbp+nGze9wFYAAADQHQIsAACADJy82kEqjhQr6SZtZcnMbW/QuWsfq4pYua0AAACgOwRYAAAAGXpqp5s0rWW23CWcSmhGcE0cvKqOnrC3rQAAACATBFgAAAAZGlw6UI/ucL2mNk/v0UgsM21wTtt8TRiwku7b6ne2CgAAgEw56ROq3ulGCgAA0E981zRD2z58hN/YvTxaqlgoKsdx7N6FzClWykupLdmhBfEm/Xrto3X0hH3sXgAAAPQEARYAAMASenDys7r703/ptZnvy8RXYSfs1730f/FUQiOrltUuIzfXSasf5NcBAACwZAiwAAAAekFTolVz2+b7o67MqKz60gF2DwAAAJYWARYAAAAAAAACjSbuAAAAAAAACDQCLAAAAAAAAAQaARYAAAAAAAACjQALAAAAAAAAgUaABQAAAAAAgEAjwAIAAAAAAECgEWABAAAAAAAg0AiwAAAAAAAAEGgEWAAAAAAAAAg0AiwAAAAAAAAEGgEWAAAAAAAAAo0ACwAAAAAAAIFGgAUAAAAAAIBAI8ACAAAAAABAoBFgAQAAAAAAINAIsAAAAAAAABBoBFgAAAAAAAAINAIsAAAAAAAABBoBFgAAAAAAAAKNAAsAAAAAAACBRoAFAAAAAACAQCPAAgAAAAAAQKARYAEAAAAAACDQCLAAAAAAAAAQaARYAAAAAAAACDQCLAAAAAAAAAQaARYAAAAAAAACjQALAAAAAAAAgUaABQAAAAAAgEAjwAIAAAAAAECgEWABAAAAAAAg0AiwAAAAAAAAEGgEWAAAAAAAAAg0AiwAAAAAAAAEGgEWAAAAAAAAAo0ACwAAAAAAAIFGgAUAAAAAAIBAI8ACAAAAAABAoBFgAQAAAAAAINAIsAAAAAAAABBoBFgAAAAAAAAINAIsAAAAAAAABBoBFgAAAAAAAAKNAAsAAAAAAACBRoAFAAAAAACAQCPAAgAAAAAAQKARYAEAAAAAACDQCLAAAAAAAAAQaARYAAAAAAAACDQCLAAAAAAAAAQaARYAAAAAAAACjQALAAAAAAAAgUaABQAAAAAAgEAjwAIAAAAAAECgEWABAAAAAAAg0AiwAAAAAAAAEGgEWAAAAAAAAAg0AiwAAAAAAAAEGgEWAAAAAAAAAo0ACwAAAAAAAIFGgAUAAAAAAIBAI8ACAAAAAABAoDlemv0aAJAh1/XU0tKiZDKpRPpWUlykUCissrJS+x0AAAAAgN5CgAUAXfjk08/0xZdf6csvJ+u776dp2rTpam5uVjgcluM46XdR/38y76Se+c/15KY36mprNGTIYC07bKhGjRqpFUeN0gojllv4hwIAAAAAeoQACwB+YPLX3+g//3ldr7z2mqZMmapYUUyRSESRcNgPrUKhkH/rinlbNbdUKpW+uenbwlFaZrTWSqNHa4P119XPNtpAtbU19ncAAAAAALpCgAWg35szd64e+OfDeua5F9QR71BxUZGi0ZjC4dDCUVa9xLzdJpMpJRJxtbW1q75+kLbbZivttMO29jsA9JZFpzeZvIbNqMlQL77WAQAA0PsIsAD0W2+/865uue1uffvdFJWXlSkWi3U7uqo3mRFa7e0dam1t1SabbKzDDz5QVVWVdi+ApXHF1X/Q0888p+KiYlvpXEv6NXjU4Qdr9113thUAAAAEDQEWgH7nxZf+o7/cdItaW9v8putmimBfMm/D8XhcCxobtf666+rUk45VcXH3F90AOnfdDTfr3y++nNFrqaWlVQfst5e233ZrWwEAAEDQ5G6oAQD0MdOQ/ZDDj9bVf/izP9LKjHbq6/DKMFOcioqKNHDAAH086RPtvMe+uvHm2+xeAAAAAAABFoB+4ZxzL9TpZ53rN1M3wZVpyB40C4OsmAYNHKinn31eu+61vz77/Eu7FwAAAAD6LwIsAAXtpVde1XY77aHJ33yjurraQAZXP2aCrNLSUpWlbyeddqb+dO0Ndg8AAAAA9E8EWAAK1nkXXKQrrvq9H1wVxWK2mj/MNEczGuvfL72sQ484VolE0u4BAAAAgP6FAAtAwWlpadE+BxymTz//UrW1NRktox9kZWVlau9o16577qdp06fbKgAAAAD0HwRYAArKF198qT33PVihkKOSXl7Jz6wWmEyl/BUD29vb1drWptbW1v/e2tLb7R0dSiQScl3X/q7eEY1GVV1d5Y/Eevf9D2wVAAAAAPoHJ31B5tmvASCvvfHm2zrvgos1cOAAf/rd0jJvj2baXiIR939NppJadvhwDR0yRAMHDVBlRYVdot9TKuWqpbVVjQsaNWPmLH03darmzJ3rT12MRKOKpW+9seKh+Td98+0UXXHpb7XOWmvYKoAfu+6Gm/XvF1+2r9GutbS06oD99tL2225tK+gt7773vv7xwIMqLunkcUifhZoPAy6+8HxbyG9m6rp5r+9s4G9HR4c232xTbbzRhrYCAAAyRYAFoCA898KLfr+rQYMGLvWUwWQyqbb29vSFRlxrrr6q1lt3Ha06fpyGDBlsvyNzn372hd57/wO9+PJ/NGXKdyorK1VRUdESB2yNTU1aZ801dObpJ9sKgMUhwAqGF158SX/80/X+VOjOmBGtW2+1uQ4+cH9byU8PP/KYbr/zbpWWdn6sbW2t2mevPbTzTjvYCgAAyBRTCAHkvZdeflVX/O4PSx1emal/c+fO04ABdTrp+KP1yD/v12/OPVtbbfGLJQqvjJXGrKi99thV1/7hKt1zx83aLn2BbKYgNjY2KZVK2e/KDOEVgHxjwnozBToW6/xWUVGuBx962P/QIJ/ddsddqqqqWuwxLrqZ+yLcCyOEAQDoj/gJCiCvTfrkM1102RUaNHDAEodXyWRKc+bM1bChQ3XtH6/SNVdeqg3XX8/u7T2VlRXaf589dd9dt/oBmRkA29TU5P/aHRNerbXm6oRXAAqOee82wc8ll19lK/nnj9f+RSUlJUs9AhgAAHSOAAtA3po3b55OPeMc1Q8atEQXDSY4amxs9PtU3XLDtbrs4t9o+LBhdm92bbTh+rrrtht1yEH7a978+V2OPDDh1dprrqGzTz/FVgCgsMTS78Pvvf++Jn/9ja3kj4aGBXrmmef86eEAACB7CLAA5K2jjj1JdXW1SxRemT5XJjg64tCDdfMNf9KgQQPsntzadust9fAD92vEiOX8i6Afj8ZaFF6dxcgrAAWuurpal13xO7uVPy65/Ap/lVhGXwEAkF0EWADy0smnna1wOOzfesqseOU4If393ju01Za/sNW+dfEF5+rwQw/SnDlz5LquXyO8AtCfRNLv5+aDhRf+/ZKtBN+HH36sL76c7Pe2AgAA2UWABSDvPPDgw/r6m2+XaLrGgsZGrTphvO689S+Bm+6x7dZb6OYb/uz/G+fPb9A6axFeAehfKsrLde31N9qt4Lvqmj+oqrLSbgEAgGwiwAKQV5paWnTTLbf7DdF7yoRCm2+6ic45I7i9pAbX1+veO27RxhutrzNPI7wC0L+YVQsjkbBuv/MeWwmuRx57XG1t7Us0EhgAAPQcARaAvHLa6b9STW1Nj3uNzG9o0G677qijjzrMVoKrtLREp5x4nN0CgP7FrOb3wD8fUiKRsJVguvW2O1VeXma3AABAthFgAcgbL7z4smbMmqloJGIrmWlqatImG2+k/ffZy1YAAEFlPqCoqqrUxZddaSvB8+frb1BxcQmN2wEAyCECLAB54w9/uk6VFT2bOtje3q6xK62kE48/2lYAAEEXi8X07nvv69tvp9hKcDQ2NunJp55RcXGw+igCAFDoCLAA5IW//f2ffp8R0x8lU6lUyv/+C3/zK1sBAOSL6qpqXXL5VXYrOC669ArVVFcz+goAgBwjwAKQF+66968qLS21W93zPE9z583XNVddZisAgHximrnPnTdP/37xZVvpex9P+kRffPGlotGorQAAgFwhwAIQeA898riisWiPPu1uaW3VfnvtrkEDB9gKACDfVJSX67q/3Gi3+t4VV13j9+cCAAC5R4AFIPDu/+vfVVpSYre6l3Jdv9H7PnvvYSsAgHxkpoGb251332Mrfeexx59QW1u7P50dAADkHgEWgED78MOP1drW1qPeV02NTTr9lBPtFgAgyOLxhD/tuzMlJSX6+wMPKZlK2krfuOW2O1VeXma3fsocQzwet1sAAKC3EWABCLSHHn2sZ6OvUinV1dVq9dUm2AoAIKhMeLX+euv4wU9nIZaZPl5ZWanLLv+dreSemcZYVFTc6VR2829vbW3VxhttSIgFAECWEGABCLTXXn+rR81yW1padNjBB9gtAECQmVFVI1cYoX322tPvXdiZolhMb771jqZM+c5WcqexsUlPPPmMiouLbOWn2tvbtcUWv9C6E9f2QzkAAND7HK+rMdsA0IfeePNtXXrl1aqsqLCVrrmu63/yfd9dt9oK+so3336rKd9N1axZs/2eMebC1IxbMNNviktKtEz9YA1fdpiGDV1m4W8oAF9/862+m7rwmM2019bWNn+0RnlZ+piLi7XMMuljHlY4x/z119+kj3mKpn7/vX+szc3NikSjKi0tUU11lVZYfnmNHLWCqquq7O/IretuuNlfvc7c991paWnVAfvtpe233dpWsq+hYUH6NfKd/zoxAUlbe7s62jtUXVOlqopKDU0/T5ZfbllVp+/LfPbiy6/o2utu7HTqXVv6tbLdNltr7712134HHqpYLNbplPFkMulPJ7zuT9fYSm6c/evz9f330zr9MMWcSpvH8x9/vbvb4zWjtPbafVftsMN2tgIAADJFgAUgsK7+w5/9EKuoqPNPvX/IBCVbbfkLHXzAvraCXHn/g4/0n9de19vvvKfp02f4F6Hh8MLmyybEWTTtxvzIMTfTaN9M90zEExoxYjmtsdqq2nij9TVq5Ej/+/LBe+9/kD7mN/xjnjFjZvfHnEofs7vomJfXmqubY97AH32SD8zoxkcee1KvvfGWPv/8C3u8Yf+Yf3y8Jkw2j288kVBFRYXWX3eidtx+Gw0fNtT/nlwIYoD17PP/Tt9/b+qdd95XIn3fRCIR/z50QgvvP3MPuub54prXSMoPbMz+VceP80f2bLXFLxb+QXmku0DHjFzabLNN0u/b++mtt9/RpZdfperqarv3pxYsaNQJxx2tDTdYz1aya9KkT/Sr8y5UbW2NrfxUU1OTDjpgf2291eZ64d8v6fobb/aD68UhwAIAYMkRYAEIrL32OyR9kRzNuIH7vHnzdfNf/qiBAwfaCrLJjLq57c579Oxzz8tNX3AXFcX8EQo9WaFrYbCTSl/MJ9Xe0a6S4mJts/WWOmDfvex3BIsJOm6/8249/dwL/raZ1rS0x2x6vG27zRbab+9gHvO7772vO+++T599/qXK0hfl5jXphy42sOrOopGRZhTe4Pp6HX/MURo/bqzdu9C06TO0xz4HdjvayEQ8CxobdeN1v9eY0aNtdfGCEmDNmDlLN996h1597Q1/CpoJ/kxwlen7mnm+mLDLhIEm/FhjtdX8f+voFUfZ7wi27gOsDm204fo68vBD/O0TTj5dCxYs8O+jxTHPJ3M/3Hf37baSXYcc/kv/MejsNW5ey+a1cMuN1/nbz73wb914063+a2Vxch1gffbZ5/pmyhRNmzbd/xnZ3NLiP5+UPvsvSr82ystKNGhQffq1OUhjxozOyxGiZhTf62+8pUmffKpv08e6aBRsR3t7eq/jvwdUVlVquWWHa8Tyy2nNNVZPv3+suPA3B8z8+fM1+etv0+8bMzVv7rz0cbT675+RSNT/MK+mulpDhtRrueWW05DB9fZ3AUD/QYAFIJDMp/K7py9o62prbaVr5iLCXGDcdtPCiwhkj7kA+93v/+yPPqqsKPcvyDO9GO+OuTht7+jwA4UtNt9UJxxzlN3Tt8z0OHPMr7/xpj+iKBYrSh9zZgFOd/xjTl/Et7a2+CMIj/3lkXZP3/po0ie6+vfXau7cOemL8XJFo4sPFHrCjCgy0+XMqLMrL/vtf0OBWbPn6IhfHp/RdDkzAueqy3+rFUZ0PXKtrwMsc5wXXXpF+n78VJWV6edMNJpx6NeZhWFW0n8+mtFsZ51xSuADh+4CrI70633iOmvp2KMXvtZnzpqVfi4cpwF1dZ3eXyYM3W7rrbTvPnvaSnY8/sTTuu2OO/3XfGdMKPTbC87V2JVX8reffe4F3XTLbX0WYJmfhY889rief+Elf5qv+WDBvM4Whs5mhOj/36fmCsDzXP89yIyKNa/PZDKl1Vcdrw03XF+bbfJz+5297/l/v5h+TcTs1v9y0/+m4qIirb3WmrayeGZE40MPPexPwzWv80j6PSqSPs4fjoJddJnjH2P6vjE3EwYn07dNfv4z7bLzDunXUO5Ghi7OK/95TS+8+JLef/+D9L/PVSSSPgZzHOnHa+Fx+Hmj/4AteqxS6cfKfHC06oTx2mjDDbTpJhv7fxYAFDoCLACB9N77H+rCiy9PXziU20rXTOC16SY/0xGHHmQryIZbb79Lf3vgQVVVVvkjcZb2grwz5keTCbJaW1p1+KEHaofttrF7cu+mW+/QAw/+S1VV6WPuhRCiM/4xmyCrrU1HHnawtttmS7sn98678GK9/c77fqBkLgh7m2ly3bCgQZf89nx/elyhBVi33XG3/vqPf6q6qtp/nWSDCRtMePKLzX6uk0841laDp9sAKx7XahMm6JSTjrMV6crfXeNPS+5s+rh5rcydO1cP/O3eXgvPF2e3Pff1X/edvebNSKZlhgzRJRf9xlakZ559zh9xl+sAy0yh/8OfrtV/Xn09/XeX+h8sLAytevZ+Ze5b89zq6IinH5sObbbpz/XLIw77b9jcW7bZfhdVVFb402Z/zIRoZkTYn/6w+FUnn3/hRV2ffn0bJSXFnY7W64o5TjOyqam5WSuNXlEnn3S8BuVw9LY5xptvuVVPPv2cP4p30Qjmnjxe5hgS6ccqnv5ZaX52bLHFZjr8kIP8PwcAClX2fuoDwFKY/PU3/qeQmTKjElafMN5uobfNb2jQvgcepkefeEoDBwzwT7azFeQY5s820wlN3xkTBvzyuJP9T81zaf78Bu29/6F68qlnFh5z+oIw68ecvhirran2L4CPPeFU/wIll0xvq+132TP965caUFeblfDKMKGOuU/PPPs8PZe+GK1L/12FwdOhRx6rRx57wj++bIVXhrloHzRooL9S6577HexPu8tH5hWVSMQXblinnnyiHyx09vw3r5WKikpdevniA47eYAISE6B19po3/zbzHnH2mafaykKmh1mu3X3v/dpjn/310cefaMCAOpWWlvrPjyV5vzK/xwQgJnCsranRa6+9oV1238f/8KI3mYDP9AkrLy9fzK3MXwzix5qbW3Tciafq2utv8EM68wHXkoRXhjlO8/iakX7TZ8zUYUcco7/cmJsFYG694y7tuuc+eumVV1WTfr83x2ECx54+Xub7zYcq5j4z76H/+c9r6T93P3+aOwAUKgIsAIFkVnPrySe+5hNj078Dvc80Jd7ngMP8kQ7mgmNJLoqWlPm7Kisr1djYqF332E+ffv6F3ZNdzzz7QvqYD/VDVHOhletjrqqq1LyGBu2wy1768qvJdk923XnP/Trx1LP8HiuZLpywNMxxmgDmD3+6Ln3heMtiL1jzyXdTv9d2O+/pjwY1F5S5es6Y+81cxJqw1QQY+cdRMpWyX/+/fffawx+t1BkTor/+5puamr7fe1tLS7Mef+KpLkfvmREvpmn7j6cXmgb85phy5ZfHnqh/PfKYP3qotz9YMH+WuQ9MKPbU089q/4MO1+zZs+3e3Hrvgw+034GH+D8LzKi43hx5ZwK7gQMH6IUXX9QBhxzhP7bZMHPW7PR9eJieeupZPzgz921vPV6LHquB6cfqiSef9o+jIU9DbQDoCgEWgECaOXNWxgGW+STc9LUwfWbQu+772z90xe/+kL44GtDrU0h6wlxg1NTU6MRTztCLL71iq9lx1z336+o/XuuHK315zCaUMJ/OH3fiaf4Kj9l09e//rL8/8KB/EZfNKVk/Zi66zMXoy6+86o9AyFdffPGljjzmBH/ESl9M3zHPU/PYnXrmr/TGW2/ban4w1++mH9GP7b7bLunnYtjv+dMZE7ZectlVdqv3XHTplf501s7CBfMzxyzA8MsjD7eV/5erUZNmCuVue+3nh3wVWQ5MzZ9tRjyZQP/QI4/xX6+59Myzz+vX512ourq6rL2+/GMsLVUo/eve+x2kr3r5gwPT3P+wI4/2R4yZ+zJbj9fCx6pM4fT7+AEHHa4PP55k9wBAYaAHFoBAOvSo4/yLmkxO8kx4ZUaM3HT9H20lt+7/+wOaMWNW1qZbLSkz5W6tNVfXRku43PzNt92ph/71aJfLx+ea+ZE1e/YcnXzisfrFpr3fYPj6G2/RY0885QcRQWGO2ayqdebpJ+lnG21oq73HNBo3/a7yJQAOWg+s77+fln6/Olb1gwZl7aI0U+a5YkZ5XH3FJVp5pWCMSO2uB5bpIzV8+DD99jfn2sr/e/3Nt3TFldd02RvNTJ088fhjtcH669rK0vnkk890zrnnp9/3Op/W2tTUrP3321vbbbOVrfy/xx9/Unfcc58fhixOb/TAmj59un553El+gJfrkN1/D54zR0cedoi2XczxZ2r3vfb333MW95oxI6rNhyaXX3qR/xy46OLL/YA2V68vE5qaY7zsogs1duzC5vxL4/Enn9J1f7nJn1acy/cI//1g5ixddMF5WnVVWiwAKAwEWAAC6cBDj8r4RM8ENSuOXEG/OfdsW8mtM885X1989ZWikWA1To0nTHPk8Tr3nDNsJXMPPfyobrrljkD2JjI/tkzT74svPM9fLau3/P2fD+mOO+8NVGC3iH/Ms2briksu1LhxY2116Zmpe0889aw/ZTFfBCnA6miPa/d9D1B1L09pWhrmuWIuvu++/WbVZNAUP9u6DbCSSS0zePD/NEL/oeNPOtVf0bGzXkcmbDALH9x31222snQOOeJoeek/s7NgyHxgYu7j227+i638r0cfe0J33Xt/1gKspqYmfyqfeZ/q6XNu0Up8ZvW69DPF/xlr/gxzrD0NVmbNnq3TTzlJGy7hByTdBVhmdc3fXnCedth5j27DK/N4mN9jnkv+45M+znQp/Xv03+OLpH8+mxFkmR7novfcKy+/SGNGL3kYPGnSpzrjnF/7Uzx7ch+bx8o0ejerRJpHyzH/hRz/WMwosZ4ex203X++PYAOAfMcUQgCB1JMTPXOy2pcX4KZRs1nyu7g4WLfSklJNnznT/iszN+mTT3X9DbcsVZBjTr7NKoLNLS1+zxLTi8OMlDAXoi3pmlk633zPkjDPDfPp/Fm/Oq/Xenx88OFHuvmWO5b+mNu7Oub40h3zoIE67axf+6M/esPTzzyvhx97cqleO+Zi0fR8am5u9oOlhoYF/m1B+vj//5gL93Oyo447QRXlFUsUXpkLSzP6yNxP5rkyd948zZk7V3PnztO8+fP9501bW5t/H/eEea7U1dbqmONPtpVgM+/0JnjozNlnnOYvImHur8Ux9725uL/n/r/aypIzCza0pJ/LXY1qMs/zU085wW79lGninvlPr54zU1XN1OJMn3Mm2DHPMbNiZUf6/WnZZYdrzTVW0/rrratVVhmrIUMG++8p5nVrVjLM9D3KjCa6/Mqr/amMvc0cW2Njs044+TT/Q5TOzgfMv9W8385vmK/llltWu+68k0496Xhd/Nvf6KrLL/Z/PemEY7XTjttrmfRxmteYCRAzOcZF77mnn3WuGpuabLXnzr/w4oxHXpnHyhzPnDlz/e8fM2aU1lpzDW20wfrpx2xVjR41SmEn5B+HWeTAvH90x/w5pofZCaf0/IMsAAgiRmABCKSDDvul/ap7JjTYeMP1dPRRP+1Hkgvn/uYifTX56z7pfdMV8/be0tyiv99/p61kZodd91qiESX/vSC3PVnWm7iOVlpptP9Juun54aWvGUzQMWXqVL/Z9GtvvKlkIqnS9L7oEqwktWgkwd2332grS8ZN/8N22nUf/6Iwk4uMH/rvMbekj7miPH1ROFErjR6tocPSx1xqjtnzLzSmfDfFP+bX33jLb1ht9i3J6lnmE/lQ+p94x6032MqSMRfhex9wyBJNaTHHbEY9motiM9XSTN1aacyix7nMf0waGxfo2ynf6f0PPtSrr73hjyAwx9xVMJCpoIzAuvHm2/TkM8/5Cxv0hLn/TIDb3NSsceNX0aY/21jjx4/VkMGD7XfIX97fNO9//4OP9OTTz/rhgnl+9eT+M+HXaquO11mnn2IrfaO7EVjmor26ulrXXHWZrfzUZVf+Th99NKnTxQXMfWrCv3/+7d4lChMX2W3P/VRZVemPcFkc81ofPLhel118oa38lGmoft/9f/NXAlycpRmBdcmlV+qjTz7xV2jtjrlfTZA8coUR2nqLzbVh+mdkUVHnv2/GzJn+4hX/euRRfzp8SUlJt+8N5u8wz8mbb7jWVjLX1Qgsw4RM5nFd3HPe1M1r1nx4dOAB+2qzTTKfTv6vhx/V3ffcr0g04r83dHeM5ueMCf7uuavnKxTefe9f9chjj3c6Gm8Rc6wmsDbPrd133Vk/27j7qeJvvv2OHnzwYU1KPx/M66e79wbzfr3t1ltpv333shUAyE8EWAACqWcBVrt+/rONdNThh9hKbgU1wDLMVKJHH/yb3ereyaed7V/I9LShtjnJN0vKr7XWGjpo/721/HLL2T1d+2jSJ7rp5ts1+Ztvlig0MxeDJjQ68bijbaXnjj/5DM1J3089PWYTJpmRIRPXXlMH7r+Pllt2uN3TtQ8+/Fg33Xq7vv32O3/0U0+P2QSEG2+4vo47+khb6bn9Dz4ifREof0pNT5gLVvM4r7/+xPTjvK+GLjPE7umaCe5MoGSmPy3tCn1BCLDMKKn9DjrcH6HRk2Mx958ZCbP1VlvoiMMOVFEss9UeP/7kU1119R/9+8+EhJkyIzkuv+RCjV15jK3kXncBlnnvKK8o1x+vvtJWFm/nXfdSbRejcUwouMrYsTrz9CUbeXbDTbemny8v+cHN4pjTZfN+euetN6dft533i3voX4/o/r/9o9cDLPMeefIpZ/qjabpjRlTV1w/U6aeepGFDh9pq5u69/+9+CGdGP3X3/mSek/vts7e2365n02+7C7A6s+hnzQHp99xddtrBVnvOPN6PPv6EP1qxu2M05xhmtFpPw+Dd9tpXVZWdLwZgmPcE8yHcmaedrNVWm2CrmZs+fYY/GtncL12tHmuev+Z968F/3GcrAJCflvxjKgAIDEepZM+m2fQXPQlH3nrrHX05eXKPgxxzQWaCkBuv/6PO/9WZGYdXxrixK+uaqy7VRRec618kmIvQnjAXm089/ZxmzpplKz1jRgd9O2VKj4/ZhEhFsahuveHPfo+xTMMrY8L4VfSH312u35x3tj9Kxkyz64nS9DE//uTT/sXIkvjbAw+lH7O2HodXJuQxF0h33PIXnXPGqRmHV8bEddbSbTddpwP228cfKZPJFJ4g++3FV/jTTXty8W1eJ0Xp59l9d92q444+IuPwylhl5ZV0S/q5tsnPNvZD00yZUYWmSX/gZfBR6p577e7fh50xz81XX39d06ZNt5XMmdezGSnTVdhppkRvucUvugyvjGx9Lnz55b/rNAT8IfP62nnH7fWHq69covDK2HvP3XRT+vlmRo+aYKQrJlC9+97chCJmBJwZnXjrTdcvVXhlHHHYwbrisov9QLy7YzTPizfeeEsffPChrXTv088/96e2dvUeYd4HTYB13923LVF4ZZgpoKYfW/3AQf7P0MUxz0nz95jj/Ns//mmrAJCfCLAA5D1zgmia+OKnzAl0V/1lfujy3/3eHwXVE6Z3j1np8NYbr9OQwfW22nPjVxmrv95zu4YOGeJPdciUeexNkHD+BZfaSs9cefUfVVXZsx5QZjrXxLXX1s3pCzwzAmdJmQb7f7v3Dn+khLmAzpQ55pqaGp134cW2kjnXTem2O+7K6EL4h8wxr7du+pj/8qelauy/4/bb6Pb0xacJw8wItnw06dPP9NXXPRtxaaYHmel85jmzNKs9Hn3UYdpp++0y7sljphWZ0R0PP/aErQSTeV52x4xacpxQl+GnWZXv4su6Hsm1OBdfeqU/DauzsMEEAO3pnzHHHHWErXTO9MAy77y97YD99/VHX5ng2gT9iwvKTG8k82/ca8/dbGXJmenFd92+cNRkV/e5+ZDE/FteePElW8mORCLp/11333GLH8z2htGjRurO2270g9HuQiyzEuZVv/+T3erepEmfdfseYXolXnD+r+3W0rnyiov9vpc/fF81j5vpa2aeM8sss4wuOO9X/hRFAMhnBFgAAqknn2KHQo4WNPZOM++Ck76OymR02jPPveCfwPdkxJYJr7bdakudfsqJtrL0zIpPZqqGCTgyZXpJfT9tmj7/4ktbycwTTz3j3z89OuaGBdpxx2116knH2srSu+bKS/2+WV2NLvkx0zPM9JgyU1d74robbu3xFD4z4seM6Dj5hN45ZnMRfu9dt6i1LbNmykFz+x33+P2oMmUCgI03Wl9nn3GqrSydgw/cVyssv7w/GiUTpv/cbbffbbeCyfSKy8Txxx7VZXhn3gvMFOhXX3vdVrr32edf+H2EYl2EDaax9sEH7m+3utaTn109YaZKX3PV5br2j1drtVUn+COtzEjKRa8h8/6xzZZbaPNfbOpv9wYzYvDiC3/jLyrQFTNC6amn0++nWWKOsaO9zR951dvMVM/bb73R7xfW1YITfhjc1qann37WVro2derULvtSmZ+35oOIFUYsbytLz4RYpqG9+dDKvO+Y5+0Wm2+me+64RZf89nytvvqq9jsBIH8RYAEIpEWf6mbCfO/MGUs2hazgpe/CTEaK3HbH3Z32bFkcM2Jog/XW1eGHHmgrvcdMQzQNwXsytc4ECn+5sWdNdm+/895um+v+kBkZ9rONN9DB++9rK73nwvPP8Rv4mukxmaqsqNBfburZMT/2xFP+ipmZMhdApsn4gfvvbSu9w4QFN173R39kQLYu+LPBhHkffTwp49FXZtqZCSeXpkfb4lxw3jl+eJEJP6B1pCezGDAsrYWjlrq37sR1NKR+sD8dqjPmdfHHP2cedFxx1dVdjjw1QYNpmr5dhv3R/ECp9wdg/ZeZMnbKScfroX/crx132MZ/HpjVTk0offhhB9vv6j2jR4/SehMnqqOL9yYTHJpFKrLBvD+YsO6a32VvKqx5T7zq8kvS70dzu3w/Ki0t01333m+3umZ+XnT1QYF5Xo1ecZTd6h3muT9x7bX8X83qi3+95w6/P6NZKAUACgUBFoBAMo1VMx2dYS7QZswkwFocczIeDnf9Vm+mRJnVAbtbxWgRc/Fopt2ddvLxttL7rr7ykvTfk8j4OWAChU8/+9zv2ZKJDz+apLb2toxHX5ljNtNWTjr+GFvpfaYvlgk8enLMZmU2cxyZuP/vD6istPuVxRYxxzygrk4nHJf5ggo9UVdbo+OOOdKfXpcvHn3syYynX5rH0Yx+vOjCc21l6ZmL3rvuuV+HHHF0j0aBmb5p99z3d7sVPD0JMc868xR/JGRnv2fRhx/3/bX7433q6WfV2NT1e58ZmXPKiZm/15nRZFnMr/7Hnrvv5vdPOvKIQ3VU+pYtxx59hJq6eJ2a9xQzCuuDDz+yld7T1t6unXfcwQ/4s2nE8stph+238f++zpifpebDm48++thWOmemu3YnleF7fU+cfeZp+uM1V/phLwAUIgIsAIE0ePCgjC/kzclzKH1i2d00h/4okwvDx594utOVt37M/Hnz5jfoyst+ayvZ86uzT/enKWaqrLxMjz72lN3qmhmJVFLcs2P+3eWX2Er2mObopqlwpkyY8sijT9qtrpnwpatVqn7IHPP89Ovpmiuze8xbbfELf0RJVyNqguSpZ5/PuOG/CT7OObNnq5Z15pPPPtd5F1ys7XfZS/969HH/35Bp+GqYgMaEPl9+NdlWgiXTEVjGMkOGaN111+lytKIZTXrf/d0HWDfedKvKu1jV0UzTHLnCCho/fhVb6Z6XSUf6XvaLTTfRRhtuYLd6n2nUbkYLdfU6NdOaP8wg2OkJcw6QTCR18IH72Up2HXrwgX7o3NW5hwmDH0v/zOxOdXVl+s/p/LlgRq1NytKoNQAoZARYAAJpmWWG+KMNMmVOnj/uo5NBM4LETIXK1S3T+8WEEJlMdXrhxZczvig300i2+MUmPW72viRWHT9Oo9IXj5n2+jH9Wh5/qvsLC+OlV15NH3Nm08BMw+Rtttq8x43Pl8Saa6ym5ZdbNuPG+yaQevLp5+xW5777bqofBmY6ys40/t5px+26XJWtt5x60nEZNyXvSyYgnz9vfkb3obnQN4samF5FS+ORx57Q/gcfoTPPOU9ffPmVBg6o8y+gexJeLVJaWpL+8zILO3PJfADh9XAkium7Z3r8dBbQmz/TjFC77Irf2cpP3XjzbYoVdR4Emj/bhH7nnHWarWQm035e+WajDdfvMjQ0r4tp06bZrd5hRqTututOdis39t93T7/xeWfMz9TX33zTbnVu2fT7eFc/q83zriPeoZf/85qtAAAyQYAFIJBMY9OerFIWSZ9Uvt+DJa570zVXXaonHnlAD//z/pzcqiqrMgqxzKfI9d2skvf1N9/60yIymVZmLujMReMRh/Z+n5XOHHHYQRk3dDcXUHPnzO12NM/nX37lB56ZH3OzDj+k93t9deawQw9Ua0tmKzGaY54+fXq3Yz7+8/qbKi7KLIwyx9zcYo75IFvJLvNaXyYPRmG99/6HGY9gM9OQ9t17T7vVM7Nnz9E1f7xW2+28h26/8x6/ZlbXMyFzJs/ZxTGPqXmO/OuRxxYWAqanoY+5+N9zj9267ANm7q9XX3tD02fMsJX/Z1atfeTRx7oMaE1w/YvNeh7Wu17vTwsLggkTxvkrAXbGPCZTp023W0vPPGdb0+/9u+68o63kxnbbbqP2jnb/718c8xoMOSF99vnntrJ466y5ptq7mI5omAU1rrr69/7PYQBAZgiwAATSiiNHZjzyxjBNoV9+NfOVp/LZN1OmZDQCwwRYAwcOsFuL9/Y773W5+tYPmYBh3NiV/ZEcubLSmNH+KmqZTic1AcObb71jtxbv3Xffy7gJtznmVVcdl3Fw0RvGrzLW//syPebi4u6P+e23300fc8Rudc287jZcb127lRu77rSDHxgEmenvk8l9aC584x1xbbTBeraSmZdeeU1HH3+KDj7iGL3+xlt+H0AzdSvTUXOLY55DZnW6OXPm+iMab7r+j3ZPsHhLEPrsvefu6f/3On2dmKChurpKF1/60+bfl6RrVVXVnQaCfnjS1qbjjjnKVjLXWfCRa99/P02PPvaE39D+1NPP1kGHHKGddttLO++2t3bZfW/tbG7+1/vo4MOO0plnn+t/7xNPPu2vcPpjw4cN73ZEUWNjZj0IM2H+rhVWWH6pnv9LavVVV+1yFKx5H5g06VO7tXhmtdX6+oFd3mfm+VdbU6OTTjlDN99yu60CALpCgAUgkOrqav2+VpleDJiT57b0Bcc330yxlcJkVpsKp481k5EYqZSrgd2MwPr4k0/9XhyZWDh9cDO7lTvm78x0RcJI+sLio0ldTyX9KH3hYb4vE+bv7Ytj3nyzTbtc9euHzOP3cTfHPKknj3NHhzbP8TFv8vONu5y2EwRffjk5o4tpM3J05TGj7VbXzAgNswLoznvsq2v+8Cc1NjZqQPq9zwSYmbzGF8e8Z5oQ0rxXmBEze+y+ix596G866/STe3XJ/t60pLPujjvml/6o0M6Y5/z06TP12utv2Ir0xZdf+ivmdTWF2Ky+edABS9Z3aWGgtmSP3dL65NPP9Ps/Xqvd9txPJ5x8ur9i3htvvuWv4hdKP3dNKGp+ttaaX+3XZnEK81ybPnOm/71m1N8pp52lXffcV7+75o/pP3NhUBMKOf7oss5/JjuKd2S2oEQmzHN4vXUn2q3cWn+DdZXo4v3X71/1SfctCw47+ED/Nd0Vc9+bx+G5f7+onXbdS5dfdbX+85/Xe7QiLQD0JwRYAAJrtQnjezQKyyx1/vgTmTXxzlfvf/hxxiNp/E+wl1/Wbi3e1O+mZvwJtzmhNz2acs38nZk+D8KhsD/yoCv+MWcwgs0wFxFrrbG63cqdNddcPfNjTj9+30/t/JhNU3jzPZkEIubi1IR2a62Z28fZXBCa0YKZTI3tK99Pm55hgJXotun3p59/oXPOvUC77Lm/Hn/yaVWUl6uioiLjkHFxTHBiQkAz2mrY0GV0/q/P1r133qzdcjwFa0ks6bS79debqEGDBnU5/bSyskJ/+PP1dku6/Mpr/JFZnTHPweKiIu2w3Ta20jN9MQLrxZdf0aFHHK1fn3eB3nr7HVVVVfrHWFZa6oeh5nllPuRZ3HuAqZl9Zlq1+V4z4tX8XjN18t333k//mRf6I7QmT/7an8raGfNHZ/pBQybMYzpm9Ip2K7fGjhnd5XPKvA98m/450p211lpTK664ot9TsCvmMTDnLybIMivL/uHP12rPfQ7UgYceqauv+ZOeee4FzZo12343APRvBFgAAmuD9dZVvAcBVixWpKfTJ3qF7KOPP05fjGQ2/S2VSmqFESvYrcWbPnOWf/HSHXNRFgqFu7zwy5Zxq6zcgzAnpClTur6wmJ2+wM/0mKOxaE6at//YuLEr+atvZcK/mJr60yk/i3z73ZSMghfDhCDZXq6+M+NWGdvlRWNfMs8F82/LJAQ0S+ObRSgW58GHHtW+Bx6mM88+T19/O8Vvym5WAM3k+dgZ8+8yo5Campu19Rab6W/33aHLLr5Aq04YZ7/j/9q7D/Aoqq4P4AdSII0kdJIAFlRAiq/SRRAUC116F6T3ooggiiCIoCjSQu8gTQQRFbEXVFSKWOhKU0kg9PSEb/43N36I7O5ssruZTf6/98njO3dDkjszOzv3zLnnWl9WphBmGjPqKTl3/rze+i/sWxSJ3/LueyoTKzOgawsyZkYMH6y3nKcCWB5KwDp56pQKXGHqH967YWFh2creuxZ+Bn4WfiaMfu4FtS/t/2zXdTw1LU1uLltWb3lWRESE3SmE2A9nYs7oLftenjReZZObyajCvkXtNtTGQjALD1p27dkrixYvlf6Dh0nb9l1k3IRJsuGtt//JjCMiymsYwCIiy7r//vskIT4hY0BgAqY44OtDE6uyeasvv3Jm9bxkqVjhDr31X8g0wFjE1KDc+N6oqAi95Xn+fr6mzgMMLM6ePau3/gurWjkehGVAn8tERektz1IZEyan0KI/cXHn9NZ/nT4dq36WGehz2TKl9ZZnRUaWVMEfK0KAxOw+RCChaJEiegv7P0ZefX2mNGnZTlatWWccr4xAMGrPmTkPbwTnBc5lrEqK7K3hQwfK2+tWSffHu6hVCr1Ndlbui4yMkFo1qqupr7YEBgbKug0bZdac+Wp1QlsQKL/55pukauXKusV56caxcV0Yx7aFi5fKgMHD1fkWWqiQ6SB1VuBn4zzL6vmaFelp6RJSKERveR7OGezbG1H7wfhKTTMXcF++eL4KVF+5csX0/Qzg2l6ggL+qhYfst0KhheSPP47Jxs1bZNz4l6RF6/YyYuRoWbt+o/x9+rT+V0REuRsDWERkWb7GTXOF8vZT+a8XYNx0Ll2xSm/lLqdjYuVKfLy6qXUEgQhHmTRYKQ2rKZmRbgwwixaxXxDenYoWK2ZzMHEtDCzsBUGSjD6bHYSpQETR/w9EeBpq1JjpMyTZmaKCOkv5TA6p8fuKO6ib5i7Fipo7xjkB+9fsPsT3BQYFyDfffif9Bg2TXv0Gy4+7dqvaVpiehSzBrML7GvWZ4uLipE7NGrJw3iyJnvW61K3jXMF4q3FiTH9Do0aOUKuF2goO4D2PzBYEA2y9//FvEagc88xI3ZI1yPZyNwQttn/0qfGeKerWwFVOwbEwe512l8LhYXaDTfj7nKnbN2/ODKlXr66qR4b3cVbgd2IBEgSpMTUWgXJcC97Z8q4MGDRcZeO99942/d1ERLkTA1hEZGlNGj/ssH7EtZByj8yETz/7QrfkHlu2vq+e4pqBTIJq1ezXbkqIjzduiPWGA1iEPzDA9pLz7obfbfbJdb78tjuFAKDZgRF+n9n97Q4YpJjpMvpjr09XrjjX55zK4EENGLPH2NOwIp3ZfYgpp2PGjpdp02fL5ctX1FSg7BZlx/Sjc+fOq2DFE927ypa318mQQf2kRA4FG13NREzeLgT127Z5TB0nWxy9T5DB9UCDBmpVuOxw9zmMrKuYmBiVSebM+xqfCVjoBOfkxUuX5MLFi/98YQoqsoMQ7Ebhfyu8DwsGeG7l1xsp4G//eoR9j/3ljP59eskrL09SD1kuX76c7YA9/gZk6+JzqnDhcPXzlq9+UxXxxwqURES5EQNYRGRpDerXU7UonLmhDg4KkjeuKdqbW7z3wYfGTbW/3rIvOTlF6tSoobduLJ8x6DO7VzFMSstGnZrscmpqmZ1OYfqWefmMAUHOFRVXgxuTMQ8EGG3KWtzE48y/wz3PTNZjJgwqMf0IgazsFmWPj09QNdsqVihvDHxflKULo6Xxw430d+QeV11wO9q5Y3uV/ZSVoAA+X7Cvhw7ur1uyLjvTIR0ZO26CWl2yYEFzDxMQtEJwCsHP0qWjpMmjj0j/fr1k3NjR8srkiTLV+JoyaYI8O3qU9Hyiuzz4QAOJjCglcefOqVpgCOrlVDArBz9uFIdveeO6mpbq/OfD7beVU1MKO3Roq44NAllZzci6HgLcuP/BVEOsJtl34BCng2xERFbHABYRWV5TJ7OwVN0If3+ZMSf3BLE++PAjyW8MjM0MpDHgSE5JlqpV7ddxCQoIND84wdNmO9kN7pYQ78TUPzsjn4ysJnN9xq+LN35vTrliDKhxzB1x1J8QY0Bjvs/57GaxuBPOL7PH2NOcOW8gO/1A0AGFxhE8aN2qmWzdtE7Gjh6pBr65VT4XhS8HDeinphI6C9lH3bp20lvZgxpY7vDBtu2yf/9BU1mhCIigPlpUVKSMHvWUbFy/WiaOf146dWwn9e+rK3dWrCA33VRWbja+brnlZqlS+U55sOH90r1bF3lp4gvy9vo3Zfzzz0q1e+5WU9SQueXM+e8KScnmP/PdITEx2e77GPsDWaNZ1bJZU1m/ZqX06tlDZWjieOE8RLZldjOz8LmBKYaJCUnSsUsPOXnylH6FiMj7MYBFRJbXs3sX9aTSmRtoPKHe9uHHsv/AId3i3ZYsX6WyOszAyo11a9fSW7YVDDQG5SazBTA188+/c65I7OlY86sloji2LQFGn80OMPP7+ORoYdwzZ8+YCoSgO4F2BlIFnQi+YB/HnI7RW55ldnXInIDriTsH8PjZyJSIjT2jVjB8bszTsnbVUmnfprVlg3qu5Kou1r23thQrXsSpuolpaeni5+8vLZs31S3ZkxFAd/0xm79oiYSGFtJbtuFhD86ZmdOnyaQJ4+SuqlX0K86pUKG8DB08QN7esEYaPdhQBVjc+R64Fv5+T/0uW85fuGD/vWf8ff4Fsz/NEYHDubPfkKWL5kmPx7tK5UoV1bUAWXCY7olAdlYDWn5+vhIeHiYDhwyXM8b1lYgoN2AAi4gsz8fHVx4ybqDtrTJ1Pdx4ogj2M8+O0y3eC8ErrMhkdnCPlRubNH5Eb9mGW3MEacwMFPC7//rrb73lWXj6D2YG8rjRL1nCdvF6P19fyWf010yfEbQ79eefesuzELD1ye9jss9pUsJOn0sZr5mdCokpKL8fP663POvEyVOqz1aEwAGyWlw9qE41fiYyhs6fPy8N7q8na1YtlVcmvyh3/6+q/o68wnW3o6NHPqX2p1mYKjdi6CC9lX3qoYCL41dr1r8lBU3UUUPwKiKipCxeEO3SVWORmbVqxSJJSPRcJhauv+fOX9Bbnnfp8iWb+xv7ANPas5OBdT1cYx5q9ICMfHK4rF6xRJYsnKume1avdo/6XEMAEdMNcYydmXKIz+7Cxr3QwKEjdAsRkXdjAIuIvAJqk9hbZepGcOMWGBQoAwZ7740bluBf/9YmCQw0V1gbN7rIMsJTXDNKG4McMzfDuJFHcOHUKc8HdH7a94v4+drOqroW+oJaL/ZERJZS+8mRzMELjoGnoc++fubqJyGDxF6fbypbRlJN1mpBACsn+gvqOJvsc04IDQt1yeAdPwPB+LNxccYAuIAMHthHNr+1Rvr26iEhwUH6u/IWE3Fa0/BeqF6tmiQlJ+sW21CwHO+P/93luoAhjq+L41eyedMWh3WvcO3z9/dTda3cISgwyPR1xBXw4Or333/XW56FTEhf4/fbC2ChiL47hRYqpKZ7DhnUX2VnIbg9bOggua9uHbUSIQJaqNtm5rMM13U8vJnyyuu6hYjIezGARUReATeS7dq0UjdszsB0sjPGjd6Y51/ULd5l8PCRKpPM1o309VC/qH3bVnrLsTJRUSoAYgYGR9/u/F5vec433+1Uv9sMDOLKOAhg4XWzT7BRS+2bHOgz9rO9qZDXyuhzpN76LwRxwWzwBQPlb7/zbJ+RZYesGatOIYSyTpw3N4J/ixo3GHhWv+dumTtruiyInin317tPfwe5yqinh8vFCxftnvN47dz5czLmmZG6xTXMvs/MOnnqlCSnpth9b6i+nDsvr055Sbe4R0pyiunPouzy9fWR/QdzpgTA/v0H7C7AgKBRRMlSesszUCerVo3q0rf3EzLfuG6sWr5IWrVqoYLhWF3X0XmHf7/jm2+N8+ScbiEi8k4MYBGR13i8a0c1NcPME8drIXvpwMGDXvf0sVffwcZNtJ/4+Ji7VKO2U2pKqrRs1kS3OFa1SmVJNQZHZuAG+P1t2/WW53z+xdfib3L1RWRUVDH6ZE+VypXV95nh72/0+QPP9/mLL3eY77Nx/KoafbKnapVKpusCIWj3wbaP9JZnfPLZl6ZXVssplStXUiuiOgODShRlPq+nQnXr0lHe3bRORgwbpFZ7o0yuDYoge6ZNm8f+mX58Ixj4N7y/vhQpUli3uIazn0+O7N7zk8NrAc6x+vfdK4ULh+sW1zty9HePZkiiLtmOHd/qLc9y9NAE19Ly5e/QWzkDNTHbPNZCVi1fLI0fechhjTIEHlHYff3GTbqFiMg7MYBFRF5l/HOjJS7O+SeIIcHBsvPHXTLm+Qm6xdp69RssV+Kv2L2Jvl68Wkmro94yB7V2kpIcT7UBTEOIiT0jR3//Q7e436eff6kyD8w89cfNe1JiolRxMH3yHqPPGPCZgSwA1P46fuKkbnG/7R9/qgaKZvucbBy/ChXsD6aq3fM/VdzfDExP+X7XLtPnhStsMAZVBV1QENmd7qpSSWWgmIVjg2nP5W69VSaOHysrlsyXZk0e1a/StfLld31WT9dOHVSdohsFlHBskLUybMhA3eI6V120omKmY8eOi69x7bUnISFR2rVto7fc47PPvzAdVHcF9BnZZzmxKurO739Q10FbEMiuUP52vZXzunbuKGOeeUoVfrcXxMLx27nzB71FROSdGMAiIq9SsUJ5qVu3tt0n67YgiHX48FEZPOwp3WI9WEK/S48+anCFjCezMEhDQfZWLZrpFnOKFSuasTKfyawB7MPZ0Qv0lvstXrrCdP0vTNG67fbb9JZtpUqVFD9/P/N9DgmWWdHz9Zb7LVm20jgm5lacRCYA3hOOYHU2s+8ZBM5CQkJk9lzPHOeffv5FTX9CgNTKKpS/QxVdtzdAvBb295CBfWXCuDFS6U5zNenItQb266OKtOPacO0XAovdjEG/O6SnuTaAFXvmjMPpgz6+PhIZ6d6Mvm3bP/FoAAtQd2ujhzOGPvnsc5X5bOsBAvY3VgmsUf0e3WINNapX04vd2H7wgD6ZvX4REVkVA1hE5HWeeWq4GuxiIOIsBEPOxp2Tx9p29mgmkRmo99GqXRfcIatpXM5AAGBsFmu5PPrQg6azbfBU+tCRI7J7z17d4j4bN21RT9/NBjYSk5KkySON9JZ9jzR6wFSRZ0Cf9+8/KPt+/kW3uM/aDW9LcnKKWoHLDEyDevRhx31GHbXSUZFOTSP86JNPJSY2Vre4z2vTZ7m9ILKr3Fu7pulMNkyJnDnHM4HPv0/HSOfHe8mly5d1i3dx181ovfvulbJly6qHAQEBAeoLxwXTBh9r2Vx/l2tdvYrAuOsyyhLi4+1mY+JzELUM3Wnjps3qmuTpGnXIynx787t6yzOWLltl96EJ9ne5W24x9oXzAfdvvv1OevUdKL8dOKBbXKt7t67GZ2a83roxM5m9RERWxgAWEXml2TOmqVW8svI0EU+RMWAePGykzPFQlokjM2fPkyefHiPhhcPtFo+9ETwNxhSxKpXv1C3OafzoQ6q4tFlhoaEyftIUveUeFy5clEWLl0lwkLlV2XAexF+Jl0YPNtQt9qHP+H6zwsJCZdyEyXrLPeKM83nZ8lUSpIuuO6L6nJAgDRvU0y32NW/aWJ0rZmCQg6DXkyOf1S3usWL1WrU0vNWzrzI93Kih6Uw2DPaxkuSrr8/QLe4z7MlRkp5+Vdp36i4b3vK+GjdX3Timnjb1JZk7+w2ZM/N19RU9a7r6chfXZ7g43jn53TAFMxOC3itXrTWdCetKuA4FBBSU2dHzdIt7bdz0jppebi9Qp2qnNaivtxzDNXr5ytXSrlM3mT5jtroGL1i4VL/qWthXCNK6ug4bEZGVMIBFRF4pPCxMnn/2GTW9Iitwg1q0aBH57MuvpXX7LrLjm+/0K561Z+8+6di1p3z59Q4pWqSI5Hfy6SieBmNa07ixz+gW5xUvVkxuLXeL6cLm2HdBgYHSZ8BQ3eJ6vfsPkcJFzK++iEGHM4OKiFKlpGzZ0qYzktBnZAP0HzxCt7hen4HDpIhxTprtM7LmMGXELGRq4VxBoMMMBJVQIH7M2PG6xbUOHDgoa9aslyCTQUor+N9dVZ0aIAYULKgWIfjajcWo+w0aps7PAgX81ZTg1es2SO8BQ9Q0OW+RLxfdjqoMLBfGkxCUsBcUw7E/cfKU3nK9ESNHqwc+OZW5g+y57R99KgcPHdYt7oFVUB09QMBxSExMkiaNH9Ettu01PtvHPj9BOnbpLts+/Fg9jMHUbGQAoq7Zvn3uyejFAybXB1GJiKyDASwi8lq1alSTrp3aq+lzWYEb8kBjMIoB9CuvzZAn+gwwBpqeCWT9/MuvMnDokzJuwksq4worCjk7QMBN6tmzZyV6xmu6Jev69uohly5f0luOYVrdhYsXZeiTo3SL63R7oq/x831NZ+VgPyBjq2/vHrrFnD49jT47MchH5h6ypEY8PUa3uE7n7r3VtD2zUwfRZ9T2wXFzRod2rSXBwRSTa2GwdfDwEZng4oy7EydOyYhRY6VosaI5NjDOqq4d28sVJ7L3sDLcpCnT5Lf9B3WL6wwdMUrOnb/wT20i7MtCxiA5IT5B2nfuLus3eEc2Vr58uWfAjfiwK8/oEiWKq2L0tiCAhWnHp/78S7e4zsuvvCZnzpyxW9Dc3XBOY8rnM2Oey1LtS7MGDB6u3qv2rkfIvnqg4f16y7Zmj7WViZOnyomTJ9WDKQQhcZwyhYYWkokvT9VbrnX2zNl//S4iotyGVzgi8mod27eVBg3qqWBKVuFmDzeUyECa9sZMadOhmyxbsVrVlXEl1KfZsHGzKtI+dtxEFXQJDw8THx/nL8UIYMTGnpFxz41WWRfZVbH8HRIVGWE6IwmQXXLa2EdP9B5g/Dvzq7PZgnpLbTt2U1llzgyYUMsKRcpRYN4ZmHJZsmRx5/ocECB/GgPFnn0HuWSaxl+nTxvnW1fjgGYEBc3CQKpB/fvU3+OMDm1bG/v3xiuz2RIcHCT7fv5Vhgx/Wrdkz3c7f5B+g4dJEQeDRavC9FMEV83uQ/SxWNEi8tTTY1TfXQFTfh/v2U9OG+8ZvA+vh6A4rgtr1m+Q3v0Gy8WL5oPTOSP33I66evpWmdKl1TXRHmQNuXo6/LTXZ8ju3XvUw5WchvdQaGio9Ojd39hyfbDzCePn4vpr76EJPnMvX74iA/r11i221axeXQWt8DNvdI3DPYe/8drzL0zULa5x+nSsyrL1xusqEZFZDGARkdcbNqi/1KlVQwWEsgM3r8heQK2P9z7YLn0GDJFO3XqqQsxffv2NnDlzVn+nOajR9e1338u8hUtUwKNT156ybsNG9XQeNZWcrXV1rTNnz8qgAX2MG+VquiX7Xhw3VuLi7C/DfT1k6KCodcu2XWTL1g90q/OWLl8l3XsNUAEZZwI5+FuvXL4sY0Y9qVucM2Hcs1nqMwJILVp3lPeN8ySrFi5ZLr36DFIDRGScmaX6HB8vI5/M2hTOJ0cMdvq9ggEyzrmWbTvJ519+rVudN3nqNJk4+ZWM6bJenCUwbHB/p4LmGFAi2wx9f2XaG7o1aza+/Y6069RdBSIL2lmpFL8TU5YSEhOlQ9cesmbdRv2K9eSq8bYT1xIzMG012cEiG7hmHjx4SN7ZslW3ZM/osS/I9z/8qM4fq8DnM873zsZnsjM1G+3Be7jz4z1NPTSJN665j7VsZuq6NWzIADl//oLdzxVMjTxw6JBMnzlbt2Rf9Pz5DgOOrg6wEhF5Wj7j4ur6RxlERDkAhdA/+uQzFRxy1RNI3OwhQJNqfKWkpkpaapoaiBYrWlTCQkOkgH8B8fH1VQENZAJdMG5aY42BPqaaIUCFLz98GTfHZqfE2YNL9pmzcdKze1dpZdxMu9rseQvls8++cLouEf6uy8agAk+VkRXXrMkjDo/BlctXZPPW99Q0JwRwELxy9rhhkNC7Z3dp8uhDusV5M2bNlS93fKPqejlD9dnoA2oPderQVpqaqIuCLLx3thh93rjJ2Ff+6im9s30+d/68DOjbWxUUzypMg/zr79NOr3aJ9wOKrocUCpFOxnF+uNED+hXbMMUXxZE3vbNVgoKD7AZdzEDwbdrUiXLLzTfrlhuLnr9IPv/iKxVwdARTArt16WCct4/qFseQkYb3or+/c9OrUEMHg+EWzZpIyxZNVLF8RzBgf3/bR7Jm/VtqG+eqM+cNztWTp07J6FFPyoMNHE+BcqUvvvpa5kQvUJl8N4JzCkGBhfNcN5DPSZOnvCq/7T/wz7TO6+HYIxOyefOmusUxBFnwXrUXPMExjjt3zvjZbaR9u9a61Tk/7ftZXp46TX1WIcDiDPx+vDc3rF2pW+xr26GrFDKuI85e/xBswu8ZNnSQ1KtbR7c6b+v722TBoiWqnqajz2b8zvS0dFm2xPyqonONz9Ivvt6hyhTYg2nsFSuUV9nU2bFy9RoVwCxUqJBu+S+813Bc3bmIARGRuzGARUS5yptrNxg3cmtVgXZnb4zNwCUTRbBxI4hivRlX0Kv//C4MMPCFbVf/fvxuFK3v1/sJtaKcuzzRZ6AKxiHw5izsF2R8YJBWpnSUVKpYQaKiolQB23Rjf126dElOnDgpe/b+rDJ6kO2GG2ozT7Wvl5iUJGXLlJYpk7JfZBzTsTBIyUpWnOpzQqKqz1LG+HvurFje6HOkBAcGGn2+qvp87PgJ2fPTzxJ3Nk71GUGVrJwfWMHq1ltulkkTntctWdeqXWcJDg7O0r7HvsLfEh+foP6e8uVvl6jISAky+oY+X7x4WY4fPy679/6kajSpPhvH2RXvCasEsPC+b9aqgxQOd34qJN7LOH9RqwqBHQxgbzH2I6bBItsN+xbBUZw3v/62X2V/IsCLhQSycryQsXf3XVVl9NPuW4TAlrwWwHppyiuyf/9Blwaw8Jn23vvb1PvIHpxXCHaGhYVJ/369pWrlSvoV+3COLVm2Qo4e/V1N1cvKOYbf7YkAFuB3oQZgpHHNGdi/t9xWrpx+xbEfftwl84xrw0Xjuozrn6Pfj98VExMr86NnSqlSJXWrOR07d5cA45g52p+Zq8M+NWKo3FW1ivr/zpgwabKa5h1qJ3gF+D2NH31YOnVop1uIiLwPA1hElOvs/OFHeeHFySqzwRVZT1aAQR6CV8+Nflrq1K6pW90D2WSt2ndR+y8rA5lMqMWB+lLpeHqtP2qwyiKOCQJF2Tk2+NlJxs34+jeX65bswaCyTcduUrRIUaPPWQuy4OMU07pUn9Pd0Gfj5yIbcN0q1yzB/sex49Jv0HApUbxYlgNLGX3GcU6TNKPP2MZPws9TfUbmYTbOoRuxTgBLZNfuvTL2hRdVRmZW9yHe2zi2Kssj/WrGPjR+1j/70NcnW+cNVujEVLB5s3Mm68JRAAsFyn3z+8iCebN0i3ebNHmqHDh42GZmXlYCWNCydQdVzNzMeYZzCQFQ1Edr2LC+VK1SWT1QQHAK5xseHpw69ac6f3d88636mwIDg+xOZcbPBFvnIs5bVwawcE3BghP2pjHifYN+Iuhbt05tqVy5kkRFRaisKmQ949w/G3dOjh8/Ibv3ZPQV12VkMJp9T507d056PN5Vmjp5bQD83oFDR6iVfh0dNxwXBNUQEG/erKkqi4Ci8rYc/f0P2f7xJ7Jt23aj/8EqE9geHB/UzVxnfGaauSYSEVkVA1hElCthqlbfAcPUDa6jp9ZWh5twDDBmvzFNIiMjdKt7IUuqz4ChUjwbwQ13wY3++QsXZO3KpWoKnqv88cdx6T94uCX7jMEjBjfrjD4XKJi9KXjX+u6772X8pCmq4LfV+myLlQJYsGHjJlm+ao0aeFpNSkqKce6ky5qVi3WL5zkMYBnnNgKdC6Jn6hbv9qLxfjp05IiaTn0jWQ1gbd7ynqxa/abdKWLXw7USnx9YoAT7GVnDgAcT+X18xM/XTwXaHD2owOcoAkmFQoLlz7/+vmHwx5UBLASvIiJLyqB+faX/oGEOFyrJ6GeK8e8yzndsG38RIumSP19+9fciOIegljMPZZA9W7tWTRk2ZKBucd67774vi5etsBuMuhaOU2ZJAuyayIgICS2UUTPz8pXLah9j8RQ/47ihhAECV2au3Tjv7q1TWwb276NbiIi8k2sfixIRWQSm4qxevlBq1KimMpcynx57EwwIsHoYCl5v2vCmx4JXULp0lEx5abycjokxBgPWec6B43j2bJwsjJ7h0uAV3HRTGTU173RMrNr3VoE+o47UorkzXRq8gpo1q6sBDd4jfJ6VNW1atZSHH3xAHSMryRjQp8malYt0i3V5R+jUHASJ3NGfFs0aq6nJCG6YhWANArghIcGqNmR4eLj6QiYWPiPNTEnF9QcPhGZOf1Vte+I6kS9/Pok9fUYiIkpJ82ZN5MKFC/qVG8voZwE1JRArCmN1X9XXsDC1jeCps1PVUeuvcqVK2QpeQdOmj8rDjR5U9RrNQLANhdjV314oVN0DHDt+XI4cPaqmMiIgiUw8TBdEn80ErxCAxM9l8IqIcgMGsIgoV3tq2CB59eVJasoZiox7yyAdg0+k+3do11pmvD5Vt3pWlcqVVNbX2biz6gY4pyGbBPVdVq9YLMWLF9etrnX3/6rKjNemqCk2Vgh64jxAn99cuViKFrWfhZBVKICPVRwRuMvIXPAs/E4UMvZmqMPT+rEWEnvmrCWuMajHhsyatauWGFvWDw+ZGIN7jcypw+7w2isvq4AFrguegMwt1E9btmie2vbU5wCmXeP3Qs8e3aROnVoq88hTEDBD8GrsmKd1S/b07fOEPNSoodMr3uJYZ2SP+amvzGnoZoJWmfA5hnphc+fM0C1ERN6NASwiyvUqlL9d3ly+SB5r0VQFJlDI1KqBLAwQzsbFSVRkKdmwdoW0a/OYfiVnoED3yqUL1P/HoDgn4Fihzgmmgr61ZqWEFnLv0u6331bOGLDNVYO3zOK6npbR58sSHBwoG9etUtkS7oT6MbOmv6KmKeIJv6dgZU8EJhE09PYgFqYgjhg6UAWxcir4ifMGq1TeXu5WWbowWrdan3c8VjDJzZ8ty5csEF8/H7dfj+P1z1+zcqnKbPI0THnLNHzIIBUAwmIG7vzsRjAdWU4tmzeTZ0eP1K2u0afXE9LricclJtZzGeG4tuK6ivpyzq6yS0RkVQxgEVGe0blDO3nnrbVSq0Z1ld2E1fKsEsjCjSamIAUEBKpV9aZOftHh8tuegqkMCGJVrFje45lJCOjhWD3QsL6qkYOpJZ6AaZuoG3T77bepKYuezExCn2NiY+WhBx+Q+R58al7u1ltk0/rVavoNMhDc/d7AVKg0o69vrlisBshOnVcWjXg80KC+rFgyTx1DT2d8ZmZt9u3ZQ14c/5xu9Q6oU5RbeGLK9eL50eraFHfunMuvTXgfIlCEVSuXLZ7n1LQ7V0GG0fVZRr2N83r0qKfUZ5Crg+x4nyIgiPfsZOPzt3On9voV18IKgHNnTVef98gwc9f1AecEMtZQt+zNlUukSOEi+hUiIu/HABYR5Sk+Pvll2JABsmnDamlQ/z6V0o9MF09NjbgWbjJx04xBZ8kSJWSiMehcEP2GWlLfisY9+4y8PPEFNR0TT3XdGdTBIAqF2lG/ZeG8mdK/T0/9imdNeH6McVzGquCAR/p8/oIEBgTK0gXR0qdXd/2KZ2HaaP++vYzB8XmVheHqQRb2IfpZqmQJWWMMrgADR6dmujkxhcbTsHongnItmjZR7+3ExCS3BrIyszYjIkqobL3Gjz6kX/Emngv0uVu6LpTubuPGjpaRI4aqrEksQpDdaxPOowsXL6rAEYI4Txk/OyfhYUVa6r+D2jVrVJPNb62Vm8qWVQ8WEAjKDrwvEUhHwK5GjeqybvVyubNiBf2qe6CW5cpli+ShBxuqbE3cA7jq+pD52Yzr9gDjGj7LuJZj6iERUW7CVQiJKM/78ONPZdOmLXL8xEk1Tc3Pz18tXe9MnQkzcLnFIAE33YnGTTOmhT3U6AFp2byJKsjqTba+v02Wr1xj9CVZAgICVG2O7O4v7B/sm/j4BAkNC5XePbpK3Xvr6Fdz3pat76vV5jCoQgF5V/YZT+MLh4epKSb31q6lX815Cxcvk01btkpAwQBVMBj1V7IqI2CbqM6Zgf16SyNjAJfp2PGTMuzJp1VxaUcQ/Jozc5pElCqlW25sVvR8+fTzL6VgAceF77H/e3TrLC2aNdEtroHgVfS8hbL9k88kOAiFpP2ztQ8z4bxBFgoCf1ERETJ0UD8pX/4O/aq1YKn/aa/NkCAbqxCmp6WrbNNVK3JupURXGjJ8pBw7dlx8/Xx1y78lGNe3x7t2lvbtWuuW7Fu/8W3ZuHGz8fmSphZ68NO1kuzBOYSgOc4jvC8jI0tJx/Zt1Up1tvQbMERO/fmXuvZd76rxP2T9fLr9Pd1in71VCAFTYRctiJYwG5+Nhw4flgULl8qBQ4fU9Dizn9u4DmHqMvqdkpQs9erVld49u0uQ8f70NGSgrli9Vra+94EK4BfwN/rg5yc++fOb+mxBX3DMU1KNewrjGJYqVVLatm4pDe6vr7+DiCj3YQCLiEhDnSUMtr7e8Z38duCA+Bs3k1hmHDfFPsYNOwrL2rupxOU08ws3lvhKw5cxSEhNSVU5BhWNQWb16vdInVrVpVTJkhn/0It9teNbefe992Xfvl9VUCej0CyWKre/ryBzPyGAkxHUS5aaNe6R5k0ay11VK+vvsp4vvtphDDi2yb5fflEDb9VnPehw5Po+Jxl9rlWzujRv+qgqmm9VGza+I++8uzUjK66AMUBWx9lxAA/nfsaxTRJ/49+0btn8hgP3X387IGPHTTAGtI4DuRjYLp43S4oUsT8tZu2GjfLDD7vUcvOOINCEY3B/vft0i2vh/b/+7U2y9f0PVUFlZ/Yh4LxR1xE98MZ/69a9V9q1aqlWz7QyHH/UM7I1FQ19w+gdwYzcABm9eI/bOq54raBxrSzg79oVRWHvTz8bn187ZPfuvRJz5ow6x7Df8bfgr1HXH3wZ55LRKLfefLPUqlVD6t5bW4oXK5bxQzzEUQDrvPE+XxA9S8ILh+uWG0PG0faPP5ad3/8oBw8dVv3MKHSOfmd8T8Z1N+MBElYjrHbP3VLD+Byud9+9Gd9gAT//8qvRhx+MY/eTnDx1SvL75FfHDtNr/+kHvlRfjPuK1DT1+XNH+dvVdE8cw7CwsIxvJCLKxRjAIiKy4bf9B2Tvvp/l8KGjcujIEVV7w9fHN2NAoAM0+F9ySrK6ocTlNDgwSIJDgtUy1xgQREWUkjJly0i5W2/2+ADBk9D/r77+Rn40Bk679uyVuLg4lQWQP3/GE/GMQcr/B/jS0tIlNS1VTZ285+67jBvwKlKrZo2MH+YlEFD40ujzrt17ZM+efWoa178GjDb6HFGypNxt9Pl/xqCjVo1qGT/MS5w4eUq+2/m98WUMFg8flqvGoFANFjMDlsYdBfqK8yE5JcU454tK7ZrVpXbtmlKl0p36p/zXN9/ulFenzzRVrB614lYtW5AjhaVd4aSxD7//cZf8uGuPCtwhwJOROXL9eWO8r66mqwwlnGsIVFW+s6LUrFHd0gFeso6//z6t6umpzMfUFJUFiPdNieLFJcT4nMpJrgpgXe/SpUuq38gGQ+Ac16eAwIJSKKSQ3Gx8FuezEUi1GmSa4p4D+wFT2HEtwEMAZImjplXJksXVNYOIKK9hAIuIyAkXL15SgQrcHONJO2pNIGsDS9bTv2G1pdMxMarGB2q0YKASHBykpqNFlCqpioXnNljBSvU5MfGfPiMog+l3ERGlVEH83ASrNCKohQwbZDAiUzE4MFDCjGMbFRmhv8uxzVu2yso315laKQuDunffXqe3coOr8vuxE3LxwgU1fRbXFAR/Uf8tLCxUSpQo7nVTjIkccVcAi4iIcjcGsIiIiChHzZm7UE3NRKDPHtyyXLp8WTauXalbiMgbMYBFRERZwdxTIiIiylGHDh9R0+gcwTTMUiVK6C0iIiIiyksYwCIiIqIcdfjIUVOr86WnpzlcfZCIiIiIcicGsIiIiOgfv/9xTE6fjtFb7ofFEnz9zK3GhyXjby13i94iIiIioryEASwiIiKSzz7/UvoNGqa+5s5fpFvdb9v2j6VgAfu1rzJhGfw7K9yht4iIiIgoL2EAi4iIKI+6cuWKLFy8XFq26SQz58xXKwmWLFFCdv6422NZWB9/8rn4+/vrLdtQwD0pKUkqV7pTtxARERFRXsIAFhERUR6zZ+8+GfXsOGnXubts/+RTCQ0tJCEhweLrmzGVLzwsTEY/N15/t/ssWLxUAgMDTE4fTJWKzL4iIiIiyrMYwCIiIsoDkpOT5a23N0vHrj1l/MTJcvLkKSlapIgEFCz4nwASVgS8dOmyvDErWre4XmzsWdm0easUNH6/GcnJKXJ/vfv0FhERERHlNQxgERER5QGYpjd3wWIVnAoNDRU/Pz+7mU9BQYHy0SefyQcffqxbXKv/4GFSpEhhU9lXmD6I6Y6NHmygW4iIiIgor2EAi4iIKI/o0a2rJCYm6S3HCoeHy8zZc+WDDz/SLdmXkpoiHbr0UJlX+fObuw1JSUmR6tXvNlUri4iIiIhyJwawiIiI8ohOHdpIalqqpKen6xb7kB1VtGgRmTN3oUyfMUe3Zt0XX+2QVu26quwv1NsyC8Xlu3bqoLeIiIiIKC9iAIuIiCgPGTF0kFy4cFFvOYYgVuHC4bLj2++k8+O9Zc/en/Qr5u396WfpO3CYvP7GLCkcHiY+Pj76FcdQvD0qKlLK3XqLbiEiIiKivCjfVRSWICIiojxj5Ojn5OTJP6VAAeem5KWlpani7uHhYfJYi6ZS9946KiB1PWR47dq9V37ctUetcoh/FxQY6FTWFeAW5cyZsxI9e7qUiYrUrUTk7dp26CqFCoXYrIF3/vx5WRA9S8ILh+sWIiIiBrCIiIjypMfadpaQkGDTdaiuhYBUYlKSJCclS36f/FI6KlLCQkONtmQ5evSoJBn/9ff3U1MFUbcqK78D4uMTpEb1e+Sp4YN1CxHlBgxgERFRVnAKIRERUR408/WpEhMbq7KcnIUpgMioQiZWoZAQiYs7J0eO/i6n/vxTgoKC1OqCIUa7M4Xar5eamqYCYAxeEREREREwgEVERJQHoa7U+OfGZDmIlQkZFJgaiGCTn/FfWxkVzsDfE3cuTmZOn6pbiIiIiCivYwCLiIgoj6pZo5qMHDEk20EsV8LfERMTIzOmTZHC4Zw+REREREQZGMAiIiLKwxreX1+eHzNKYmJiVfH1nITfj7/j5YkTpFy5W3UrEeU2CQkJqsZdfHy8ja8ESb+as9cjIiKyHhZxJyIiIvnzr79lwJARElCwoBQoUEC3eg4Kv2PgGj3rdYkoVVK3ElFutG7DRnWdsTXhODExUZo1bSwBAQG6hYiIiAEsIiIiusYzz46TX387IGFhoVkuwO4MZF1duHBR7ri9nEyd/KJuJSIiIiL6NwawiIiI6F9++HG3THl1ugouBQUFuiWQlWb8bGRc+Rg/e1D/PlLvvnv1K0RERERE/8UAFhEREd3Qhx99IouWrpCkpCQJDAhQKw1mZ5VBBMRSUlIkISFRAgMDpUPbVtK8WWP9KhERERGRbQxgERERkV0//fSzbHnvA9n5/Q8qGwuBLF9fX/X/fXx8/hPUwq0FvtLS0lSmVWpqqqQkpxj/xkfq1K4lDzVqKJXvrKi/m4iIiIjIMQawiIiIyLTfjx2TgwcOy6EjR+T06Rj5++/TkpyS8k8QK/O2onDhwlK8aBEpUbKE3H5bObmt3C1Sonhx9RoRERERkbMYwCIiIiIiIiIiIktz//JCRERERERERERE2cAAFhERERERERERWRoDWEREREREREREZGkMYBERERERERERkaUxgEVERERERERERJbGABYREREREREREVkaA1hERERERERERGRpDGAREREREREREZGlMYBFRERERERERESWxgAWERERERERERFZGgNYRERERERERERkaQxgERERERERERGRpTGARURERERERERElsYAFhERERERERERWRoDWEREREREREREZGkMYBERERERERERkaUxgEVERERERERERJbGABYREREREREREVkaA1hERERERERERGRpDGAREREREREREZGlMYBFRERERERERESWxgAWERERERERERFZGgNYRERERERERERkaQxgERERERERERGRpTGARURERERERERElsYAFhERERERERERWRoDWEREREREREREZGkMYBERERERERERkaUxgEVERERERERERJbGABYREREREREREVkaA1hERERERERERGRpDGAREREREREREZGlMYBFRERERERERESWxgAWERERERERERFZGgNYRERERERERERkaQxgERERERERERGRpTGARURERERERERElsYAFhERERERERERWRoDWEREREREREREZGkMYBERERERERERkaUxgEVERERERERERJbGABYREREREREREVkaA1hERERERERERGRpDGAREREREREREZGlMYBFRERERERERESWxgAWERERERERERFZGgNYRERERERERERkaQxgERERERERERGRpTGARURERERERERElsYAFhERERERERERWRoDWEREREREREREZGkMYBERERERERERkYWJ/B8cSDZ9LvRs5AAAAABJRU5ErkJggg==;" parent="51" vertex="1">
                    <mxGeometry x="8.44" y="40" width="151.11" height="85" as="geometry"/>
                </mxCell>
                <mxCell id="58" value="" style="verticalLabelPosition=bottom;html=1;verticalAlign=top;align=center;strokeColor=none;fillColor=#00BEF2;shape=mxgraph.azure.user;" parent="1" vertex="1">
                    <mxGeometry x="537.5" y="53.95" width="95" height="93.75" as="geometry"/>
                </mxCell>
                <mxCell id="80" value="" style="endArrow=classic;html=1;entryX=0.5;entryY=0;entryDx=0;entryDy=0;entryPerimeter=0;" parent="1" target="38" edge="1">
                    <mxGeometry width="50" height="50" relative="1" as="geometry">
                        <mxPoint x="129" y="170" as="sourcePoint"/>
                        <mxPoint x="110" y="200" as="targetPoint"/>
                    </mxGeometry>
                </mxCell>
                <mxCell id="119" value="Github&lt;br style=&quot;font-size: 15px;&quot;&gt;Github Actions" style="text;html=1;align=center;verticalAlign=middle;resizable=0;points=[];autosize=1;strokeColor=none;fillColor=none;fontSize=15;" parent="1" vertex="1">
                    <mxGeometry x="800" y="122.07" width="110" height="40" as="geometry"/>
                </mxCell>
                <mxCell id="121" value="" style="endArrow=classic;html=1;" parent="1" edge="1">
                    <mxGeometry width="50" height="50" relative="1" as="geometry">
                        <mxPoint x="640" y="90" as="sourcePoint"/>
                        <mxPoint x="760" y="90" as="targetPoint"/>
                    </mxGeometry>
                </mxCell>
                <mxCell id="122" value="Push" style="text;html=1;align=center;verticalAlign=middle;resizable=0;points=[];autosize=1;strokeColor=none;fillColor=none;fontSize=15;" parent="1" vertex="1">
                    <mxGeometry x="675" y="102.07" width="50" height="20" as="geometry"/>
                </mxCell>
                <mxCell id="123" value="" style="endArrow=classic;html=1;entryX=0.5;entryY=0;entryDx=0;entryDy=0;entryPerimeter=0;" parent="1" target="27" edge="1">
                    <mxGeometry width="50" height="50" relative="1" as="geometry">
                        <mxPoint x="879" y="160" as="sourcePoint"/>
                        <mxPoint x="910" y="120" as="targetPoint"/>
                    </mxGeometry>
                </mxCell>
                <mxCell id="125" value="mainブランチへのPushなら&lt;br style=&quot;font-size: 15px&quot;&gt;イメージを更新&lt;br style=&quot;font-size: 15px&quot;&gt;ECSサービスの更新" style="text;html=1;align=center;verticalAlign=middle;resizable=0;points=[];autosize=1;strokeColor=none;fillColor=none;fontSize=15;" parent="1" vertex="1">
                    <mxGeometry x="930" y="153.32" width="200" height="60" as="geometry"/>
                </mxCell>
                <mxCell id="126" value="自動テスト" style="text;html=1;align=center;verticalAlign=middle;resizable=0;points=[];autosize=1;strokeColor=none;fillColor=none;fontSize=15;" parent="1" vertex="1">
                    <mxGeometry x="970" y="110.82" width="90" height="20" as="geometry"/>
                </mxCell>
            </root>
        </mxGraphModel>
    </diagram>
</mxfile>